<svg id="Layer_1" data-name="Layer 1" xmlns="http://www.w3.org/2000/svg" viewBox="0 0 63.37 52.34"><defs><style>.cls-1{fill:#4770ff;}</style></defs><path class="cls-1" d="M55.2,13.82V5.93L54,5.88C44.88,5.44,37.26,8,31.38,13.44,25.49,8,17.88,5.44,8.74,5.88l-1.18,0v7.89H.31V58.17H63.69V13.82ZM10,9c6.85-.13,12.57,1.47,17.33,4.87H10ZM3.57,55.11V16.89h4V51.06l1.37-.22c5.68-.88,11.45.55,17.19,4.27Zm26.59-.71c-5.95-4.6-12-6.93-17.95-6.93-.74,0-1.47,0-2.21.11V16.89H30.16ZM52.75,9v4.87H35.43C40.19,10.42,45.9,8.82,52.75,9ZM32.6,16.89H52.75V47.58C46,46.94,39.28,49.23,32.6,54.4ZM60.44,55.11H36.63c5.74-3.72,11.51-5.15,17.2-4.27l1.37.22V16.89h5.24Z" transform="translate(-0.31 -5.83)"/></svg>