<svg id="Layer_1" data-name="Layer 1" xmlns="http://www.w3.org/2000/svg" viewBox="0 0 104.19 92.9"><defs><style>.cls-1{fill:#0070b9;}</style></defs><path class="cls-1" d="M91.53,21.18h15.79v71.6H91.53Z" transform="translate(-3.13 0)"/><path class="cls-1" d="M48.15,92.9H32.71V38.82H48.15Z" transform="translate(-3.13 0)"/><path class="cls-1" d="M18.79,92.89H3.13V53H18.79Z" transform="translate(-3.13 0)"/><path class="cls-1" d="M62.16,52.93H77.78V92.75H62.16Z" transform="translate(-3.13 0)"/><path class="cls-1" d="M3.58,37.44c0-3.07,3.22-5.56,7.14-5.54a8.69,8.69,0,0,1,2.34.32,8.51,8.51,0,0,0,7.2-.8c2.57-1.39,5.27-2.62,8-3.81,2.92-1.28,5.11-2.51,5.31-5.68.19-2.84,3.46-4.27,7.09-4.25,4,0,6.71,2,7,4.86.25,2.51,1.72,3.61,4.17,4.64s4.77,2.28,7.14,3.46c7.12,3.51,12.78,2.54,17.78-2.94,4.79-5.24,9.79-10.42,14.43-15.77a5.59,5.59,0,0,0,1-4.46c-.72-3.74,1.57-6.86,6-7.39,4-.52,7.82,1.62,8.47,4.78v0c.65,3.41-2.61,6.28-7.22,6.8a9.08,9.08,0,0,0-4.91,1.86Q86,22.27,78.11,31.32A5.64,5.64,0,0,0,77,35.89c.72,3.66-1.31,6.7-5.48,7.34-4.38.68-8.82-1.52-9-5.11-.09-2.36-1.6-3.18-3.66-4.1-2.42-1.1-4.85-2.2-7.18-3.4-3.11-1.59-6-3.57-10-1.52a3.89,3.89,0,0,1-2.29,0C30.2,26.57,25.91,33.59,19,35.57c-.59.18-.58,1.75-.77,2.69-.43,3-3.87,5.27-7.76,5S3.56,40.51,3.58,37.44Zm42-14c-2.46-1.35-3.88-2.77-5.13-2.63s-3.28,1.71-3.28,2.66,2,2.5,3.31,2.64S43.13,24.74,45.58,23.41ZM10.87,33.53c-1.67,2-3.43,3.18-3.22,4.16a4.67,4.67,0,0,0,3.45,2.54c1.19,0,3.14-1.63,3.29-2.68S12.66,35.45,10.87,33.53ZM99.22,1.6C97.6,3.66,95.88,4.88,96.1,5.84s2.25,1.85,3.49,2.77c1.11-1,3-1.95,3.11-3s-1.74-2-3.53-4Zm-24,35.76c-2.66-1.2-4.21-2.47-5.42-2.29s-2.29,1.74-3.42,2.69c1.24.88,2.43,2.38,3.75,2.46S72.7,38.84,75.21,37.36Z" transform="translate(-3.13 0)"/></svg>