<svg id="Layer_1" data-name="Layer 1" xmlns="http://www.w3.org/2000/svg" viewBox="0 0 232.73 187.61"><defs><style>.cls-1{fill:#0070b9;}</style></defs><path class="cls-1" d="M169.33,172.23c-15.51-4.62-82.17-4.64-98.64,0,.48,3.43,1,6.91,1.46,10.38.14,1,.27,2,.4,3,.25,1.92-.71,2.93-2.5,3.19A358.8,358.8,0,0,0,19.66,200a6.31,6.31,0,0,1-7.19-2.3c-1.62-2.22-1.62-4.9.1-7.54S16,185,17.75,182.51c1.07-1.52.82-2.47-1-3.12-2.81-1-5.59-2.17-8.37-3.27-3.23-1.29-4.83-3.34-4.76-6.1.06-2.92,1.91-5.31,5.24-6.26,7.24-2,14.53-4,21.8-5.93,1.1-.3,2.2-.58,3.49-.91-.69-3.16-1.37-6.14-2-9.13-.89-4.28,1.06-7.46,5.35-8.43s8.55-1.74,12.8-2.58c0-.28.08-.47,0-.56-3.46-4.9-3.9-10.28-2.3-15.87,1.53-5.33,0-9.62-3.81-13.41-7.6-7.53-7.58-18.1.06-25.64C48.2,77.43,49.5,73,48.05,67.64,45.12,56.84,50.34,48,61.24,45.07a12.85,12.85,0,0,0,9.76-10c2.46-9.88,11-15.19,21-13.15.76.15,1.51.29,2.26.48,5.1,1.27,9.28-.08,12.92-4,5-5.37,11.34-7.08,18.32-4.66a19.93,19.93,0,0,1,7.08,4.54c4.16,4,8.67,5.38,14.31,3.81,10.25-2.86,19.45,2.66,22.1,13a12.84,12.84,0,0,0,10,10c9.86,2.44,15.25,11.08,13.21,21-.32,1.58-.56,3.18-.74,4.79A10.38,10.38,0,0,0,195,80.53a17.86,17.86,0,0,1,.1,27.21,10.81,10.81,0,0,0-3.46,11.37c1.7,6.17,1.65,12-2.39,17.59,4,.78,7.66,1.45,11.31,2.23a16.18,16.18,0,0,1,4.14,1.34,6,6,0,0,1,3.16,6.8c-.61,3.23-1.36,6.43-2.08,9.8,4.94,1.27,9.7,2.45,14.43,3.73,3.63,1,7.26,2,10.85,3.13,3.33,1,5.2,3.32,5.29,6.24s-1.56,4.91-4.92,6.23c-2.5,1-5,1.93-7.52,2.92-2.88,1.14-3,1.48-1.16,4.11,1.56,2.29,3.14,4.57,4.65,6.89,1.72,2.64,1.74,5.32.14,7.54a6.34,6.34,0,0,1-7.39,2.28,361.86,361.86,0,0,0-45.37-10.46c-1.37-.22-2.74-.44-4.11-.64-3-.45-3.5-1.08-3.1-4.15C168.11,180.58,168.73,176.48,169.33,172.23Zm-87-39.89c-10.78-11.27-16.36-24.4-15.86-39.79S73.15,64.1,84.73,53.83a53.37,53.37,0,0,1,69.68-.75A51.83,51.83,0,0,1,173,85.9c2.66,17.83-2.73,33.23-15.24,46.42.78.14,1.21.24,1.66.3,7.62,1,15.25,2,22.89,2.91a3.17,3.17,0,0,0,2.34-.93c3.34-3.67,4.06-7.94,2.68-12.67-1.94-6.7-.77-12.93,4.41-17.59,6.23-5.61,6.4-14.86-.09-20.4-4.43-3.77-5.72-9-4.83-14.68.22-1.37.48-2.73.74-4.09,1.45-7.52-2.28-13.53-9.65-15.36s-11.76-6.32-13.54-13.57a12.54,12.54,0,0,0-8.36-9.4,13.49,13.49,0,0,0-8.38.08c-6.69,1.85-12.66.44-17.63-4.52-6.49-6.48-13.5-6.53-19.92,0-3.61,3.68-7.9,5.57-13.07,5.1-2.21-.2-4.41-.61-6.6-1C83.8,25.27,77.61,28.83,76,35.37c-2,8-6.74,12.76-14.73,14.77a12.08,12.08,0,0,0-8.74,15.25c2.24,7.82.52,14.3-5.34,20a12,12,0,0,0-.06,17.58c5.93,5.74,7.72,12.3,5.36,20.16-1.11,3.7-.25,7.14,1.86,10.33,1.17,1.77,2.54,2.7,4.8,2a23.81,23.81,0,0,1,4.33-.66ZM42.55,172a372,372,0,0,1,154.84,0c1.83-8.18,3.59-16,5.32-23.77.77-3.45.53-3.84-2.83-4.53a398.1,398.1,0,0,0-71.71-8,372.28,372.28,0,0,0-56.45,2.92C60.75,140,49.87,142.15,39,144c-1.63.28-2.47,1.1-2.06,2.88C38.76,155.1,40.61,163.35,42.55,172Zm115.73-47.81a48.7,48.7,0,0,0-76-60.86c-17.07,20.9-11.92,48.22-.4,60.6,4.91-12.5,13.82-20.81,26.59-25.15-13.15-9.64-11.71-25-4.07-33a21.67,21.67,0,0,1,30.69-.61c7.5,7.19,10.67,23.06-3.41,33.7C144.39,103.12,153.27,111.46,158.28,124.16ZM120.05,102a36,36,0,0,0-33.8,24.14,4.27,4.27,0,0,0,4.56,5.64c4.22-.29,8.44-.51,12.67-.71a381.76,381.76,0,0,1,46.13.74,4.27,4.27,0,0,0,4.23-5.37A36,36,0,0,0,120.05,102Zm0-38.11a16.63,16.63,0,1,0,16.57,16.61A16.6,16.6,0,0,0,120.07,63.84Zm59.36,120.83.12.57c5.54,1.15,11.12,2.15,16.62,3.48,8.06,1.95,16.05,4.17,24.1,6.17a11.71,11.71,0,0,0,3.37-.18,14.37,14.37,0,0,0-1.06-3c-1.46-2.35-3.11-4.58-4.63-6.9-2.51-3.85-1.32-7.84,2.92-9.64,2.76-1.17,5.6-2.15,8.34-3.34a11.38,11.38,0,0,0,2.21-1.69c-.76-.65-1.43-1.64-2.3-1.89-6.5-1.87-13-3.6-19.56-5.35-1.53-.41-3.1-.72-4.81-1.11-.95,4.2-1.95,8.13-2.69,12.12-.41,2.2-1.54,3.22-3.6,3.92C192.08,180,185.77,182.36,179.43,184.67ZM35.19,161.48c-8.54,2.37-16.83,4.64-25.09,7A2.26,2.26,0,0,0,8.7,170c0,.49.75,1.27,1.34,1.52,2.76,1.18,5.58,2.2,8.36,3.32,5.22,2.1,6.36,6,3.18,10.63-1.64,2.42-3.32,4.82-4.89,7.28-.33.5-.57,1.52-.3,1.83a3.08,3.08,0,0,0,1.95.7,5.07,5.07,0,0,0,1.55-.4c10.14-2.53,20.27-5.1,30.43-7.57,3.39-.82,6.85-1.38,10.84-2.17-1.11-.5-1.63-.77-2.19-1-5.91-2.18-11.81-4.38-17.75-6.48A4.22,4.22,0,0,1,38,174.21C37.26,170.14,36.25,166.12,35.19,161.48Zm139,11.17c-.46,3.18-.9,6.17-1.4,9.57l16.56-6.52,0-.43Zm-107,9.52-1.38-9.52-15.16,2.64,0,.45Z" transform="translate(-3.63 -12.69)"/></svg>