<svg id="Layer_1" data-name="Layer 1" xmlns="http://www.w3.org/2000/svg" viewBox="0 0 186.06 255.41"><defs><style>.cls-1{fill:#5f7c8a;}.cls-2{fill:#2195f1;}.cls-3{fill:#00923e;}.cls-4{fill:#2ac44b;}.cls-5{fill:#fe6f00;}.cls-6{fill:#bdd60f;}.cls-7{fill:#99214f;}.cls-8{fill:#bdd50f;}.cls-9{fill:#98214f;}.cls-10{fill:#4bae4f;}.cls-11{fill:#2ac34a;}.cls-12{fill:#00903d;}.cls-13{fill:#fc6e00;}.cls-14{fill:#b9d20f;}.cls-15{fill:#4bac4f;}.cls-16{fill:#2093ee;}.cls-17{fill:#8ec7f5;}.cls-18{fill:#8bc4f1;}.cls-19{fill:#2090e9;}.cls-20{fill:#27b946;}.cls-21{fill:#048d3f;}.cls-22{fill:#eb6600;}.cls-23{fill:#ea6700;}.cls-24{fill:#1e89de;}.cls-25{fill:#864601;}.cls-26{fill:#8e3e00;}</style></defs><path class="cls-1" d="M114,255.71c-1.38-6.2-2.61-12.43-4.21-18.57-.86-3.28.23-4.18,3.31-4.16q14.94.12,29.89,0c3.09,0,4.16.89,3.31,4.16-1.59,6.14-2.82,12.37-4.2,18.57Z" transform="translate(-34.97 -0.29)"/><path class="cls-2" d="M106.61,22.12c3.11-10,10.27-16.59,18.92-21.83h5.11c8.17,4.83,14.74,11.14,18.47,20.05-1.46,2.56-3.91,2.95-6.54,3.07-10.12.48-20.29-.64-30.38,1A5.55,5.55,0,0,1,106.61,22.12Z" transform="translate(-34.97 -0.29)"/><path class="cls-3" d="M106.61,22.12c14.1-2.18,28.33-1.06,42.5-1.78,5.42,10.85,7.16,22.65,8.19,34.47a244.22,244.22,0,0,1-1.32,54c-2.74,1.44-5,0-7.12-1.38-13.58-8.5-28-15.18-42.93-21-3.05-1.18-5.77-2.7-7.29-5.78C97.67,60.69,98.29,40.88,106.61,22.12Z" transform="translate(-34.97 -0.29)"/><path class="cls-4" d="M98.64,80.71c20,7.6,39.45,16.27,57.34,28.14-.08.9-.16,1.8-.25,2.69a7,7,0,0,1-3.88,4c-12.38,6-20.93,16.43-30.18,26-1.48,1.53-2.78,3.24-5,3.68-7-1.95-9.45-8.26-12.81-13.68-4-11.13-3.68-22.89-5-34.39C98.25,91.77,98.69,86.22,98.64,80.71Z" transform="translate(-34.97 -0.29)"/><path class="cls-5" d="M103.83,131.61c6,2.51,7.75,9.28,12.91,12.6,2.79.56,4.06,2.84,5.49,4.9,6,8.63,11.24,17.8,17.26,26.43,1.66,2.38,2,5,2.35,7.73-1.72,11.57-6,22.47-8.87,33.72-.76,3-2.74,3.16-5.27,3.25-3,.11-4-1.46-4.72-4-5.21-17.7-10-35.48-14-53.49-2.15-9.7-4.17-19.44-6.24-29.16A1.71,1.71,0,0,1,103.83,131.61Z" transform="translate(-34.97 -0.29)"/><path class="cls-3" d="M186.67,27c14.1,15,19.06,33,17.4,53-.49,5.83-.58,11.83-3,17.37-5.72,4.68-11.86,7.19-19.17,3.81,1.18-13.28,2.17-26.55.38-39.88a101,101,0,0,0-12.73-37.61c3.65-3.36,7.36-1.45,11.09-.16A30,30,0,0,1,186.67,27Z" transform="translate(-34.97 -0.29)"/><path class="cls-6" d="M141.84,183.27c-8.75-12.77-17.65-25.45-25.1-39.06,8.27-10.91,17.53-20.86,29.11-28.31,3-1.93,6.57-2.93,9.88-4.36a380.91,380.91,0,0,1-12.28,67.66A38.23,38.23,0,0,1,141.84,183.27Z" transform="translate(-34.97 -0.29)"/><path class="cls-7" d="M85.85,174C71,149.1,60,122.73,54.08,94.29a15.18,15.18,0,0,1,0-3.16c9.62-.57,15.29,5.36,20.3,12.35C78,116.05,80.33,129,84.66,141.33c2.57,7.36,5,14.75,7.57,22.13C91.78,168,92.47,173.19,85.85,174Z" transform="translate(-34.97 -0.29)"/><path class="cls-8" d="M148.54,198.12c6.29-15.72,14.17-30.79,19.47-46.92q4.06-12.36,8.2-24.7c6.1-.56,10.7,2.08,13.27,7.61-9.49,24.55-20.71,48.12-38.42,68C148.75,201.71,148.5,200,148.54,198.12Z" transform="translate(-34.97 -0.29)"/><path class="cls-3" d="M83.26,28.77C75.16,46.91,72,66,73,85.73c-3.85-.47-3.28-3.63-3.69-6.15-.74-4.59-7.27-8.7-11.69-7.4-1.82.54-2,1.94-2.18,3.41-.32,2.44-.1,5.13-2.86,6.51-2.71-15.89.9-30.55,8.69-44.39a43.55,43.55,0,0,1,15-9C78.53,27.88,80.94,26.46,83.26,28.77Z" transform="translate(-34.97 -0.29)"/><path class="cls-9" d="M43.73,85.69c3.91,19.66,9.7,38.67,18.54,56.75,6.36,13,14.27,25.11,21.36,37.69.49,1.49.77,2.88-1.55,2.83-22.93-29.7-40-62.06-45.57-99.7C40.13,80.48,42,83,43.73,85.69Z" transform="translate(-34.97 -0.29)"/><path class="cls-10" d="M189.48,134.11,176.2,126.5l5.7-25.33,19.17-3.81A126.64,126.64,0,0,1,189.48,134.11Z" transform="translate(-34.97 -0.29)"/><path class="cls-11" d="M52.55,82.1c.06-.42.11-.84.18-1.26.68-4-2.14-10.34,1.52-11.73,4.78-1.82,10.5,1.55,15.74,3,2.05.59,1.75,2.62,1.89,4.28.28,3.11-.73,6.38,1.09,9.3q.7,8.88,1.42,17.75c-6.74-4.16-13.07-9-20.3-12.35C52.23,88.35,52.85,85.15,52.55,82.1Z" transform="translate(-34.97 -0.29)"/><path class="cls-12" d="M210.32,96.06c2.84-16.65,4.63-33.31-1.93-49.55-2.13-5.28-5-10.28-7.49-15.41,2.07-2.07,3.26.35,4.81.93,14.09,15.62,17.8,33.9,13.82,54.12-.65,3.3-1.54,6.55-2.32,9.82C215,98.2,212.65,98.61,210.32,96.06Z" transform="translate(-34.97 -0.29)"/><path class="cls-13" d="M85.85,174q3.2-5.23,6.38-10.49c7.56,15.91,14.38,32.16,22,48.15C102.82,200.35,92.57,188.47,85.85,174Z" transform="translate(-34.97 -0.29)"/><path class="cls-14" d="M200.47,140.65c-10.35,22.5-24.71,42.32-40.81,61-1.67,1.93-3.38,3.81-5.06,5.72a1.21,1.21,0,0,1-1.21-1.13c16.26-21.45,31-43.85,42.78-68.13C198.42,137.57,199.92,138.31,200.47,140.65Z" transform="translate(-34.97 -0.29)"/><path class="cls-15" d="M200.47,140.65l-4.3-2.57c5.81-13.63,10.86-27.53,14.15-42l6.9-.09A146.6,146.6,0,0,1,200.47,140.65Z" transform="translate(-34.97 -0.29)"/><path class="cls-16" d="M186.67,27l-17.12-3.27A77.52,77.52,0,0,0,150,3.58C159,3.05,178.18,15.46,186.67,27Z" transform="translate(-34.97 -0.29)"/><path class="cls-17" d="M83.26,28.77c-7.93,1.54-14.15,7.28-22,8.94a74.48,74.48,0,0,1,19-21.52c3.76-.37,7.25-.3,8,4.6A24.22,24.22,0,0,1,83.26,28.77Z" transform="translate(-34.97 -0.29)"/><path class="cls-18" d="M37.35,56.83c4-16.51,14.25-28.54,27.72-38.3A98.78,98.78,0,0,0,46.1,50C43.56,52.76,42.73,57.7,37.35,56.83Z" transform="translate(-34.97 -0.29)"/><path class="cls-19" d="M88.18,20.79l-8-4.59c7.61-6,15.78-11,25.57-13.07C99.09,8.3,93.71,14.62,88.18,20.79Z" transform="translate(-34.97 -0.29)"/><path class="cls-20" d="M43.73,85.69l-7.22-2.43c-.91-6.4-2.63-12.77-.58-19.25,6.08-1.06,7-.32,7.24,5.47.11,3.3-.4,6.62.34,9.89C43.58,81.48,43.66,83.59,43.73,85.69Z" transform="translate(-34.97 -0.29)"/><path class="cls-21" d="M43.51,79.37a8.53,8.53,0,0,1-1-6.14c.79-5.35-1.32-8.36-6.62-9.22.18-2.45-.35-5.05,1.42-7.19L46.1,50C43.3,59.61,43.56,69.51,43.51,79.37Z" transform="translate(-34.97 -0.29)"/><path class="cls-22" d="M82.08,183c.51-1,1-1.89,1.55-2.83l20.2,27c.54,1.35-.08,1.54-1.21,1.22C95.46,200.16,87.78,192.36,82.08,183Z" transform="translate(-34.97 -0.29)"/><path class="cls-23" d="M148.54,198.12l2.52,4a43.24,43.24,0,0,1-11.19,12.17C142.31,208.64,144.74,203,148.54,198.12Z" transform="translate(-34.97 -0.29)"/><path class="cls-24" d="M205.71,32l-4.81-.93c-3.69-4.2-7.39-8.39-12.26-13.92C197.12,20.64,201.49,26.25,205.71,32Z" transform="translate(-34.97 -0.29)"/><path class="cls-25" d="M153.39,206.21l1.21,1.12c-1.55,2.8-4,4.77-7.63,7.86A23.94,23.94,0,0,1,153.39,206.21Z" transform="translate(-34.97 -0.29)"/><path class="cls-26" d="M102.62,208.38l1.21-1.22,5.19,6.2C105.81,212.82,104.06,210.78,102.62,208.38Z" transform="translate(-34.97 -0.29)"/></svg>