<svg id="Layer_1" data-name="Layer 1" xmlns="http://www.w3.org/2000/svg" viewBox="0 0 143.5 119.84"><defs><style>.cls-1{fill:#0671b8;}</style></defs><path class="cls-1" d="M178.92,115.1h11.55c2.6,0,3,.33,3,2.34v14.61c0,1.61-.53,2-2.62,2H180.55c-.51,0-1,.06-1.64.09v6.43c0,1.52-.57,1.92-2.48,1.92H67.84c-2.55,0-3-.33-3-2.28v-6.1c-.64,0-1.14-.06-1.65-.06H52.38c-1.75,0-2.38-.49-2.39-1.81V116.94c0-1.33.64-1.83,2.36-1.84H63.43c.43,0,.85,0,1.43,0V24.78c0-1.65.53-2.07,2.69-2.07h80.8a16.35,16.35,0,0,1,2,0,3.66,3.66,0,0,1,1.61.49c8.59,6.52,17.15,13.08,25.74,19.6a2.75,2.75,0,0,1,1.24,2.39V115.1ZM68.64,115H175v-69H151.24c-2.07,0-2.61-.42-2.61-2V26.69c0-.92-.38-1.11-1.48-1.11H86c-4.12,0-8.25-.06-12.38-.09h-5Zm33.21,3v2.12c0,1.11-.67,1.69-1.83,1.73a1.7,1.7,0,0,1-2-1.73v-2.08H93.51c0,1.36.08,2.63,0,3.9a1.91,1.91,0,0,1-.86,1.31,2.36,2.36,0,0,1-1.77.12A2.25,2.25,0,0,1,89.76,122a32.53,32.53,0,0,1,0-4H85.15v2.14c0,1.09-.69,1.67-1.87,1.67a1.66,1.66,0,0,1-1.89-1.67v-2.14H76.82a33.61,33.61,0,0,1-.06,4.15,2.07,2.07,0,0,1-1.28,1.31,2.52,2.52,0,0,1-1.82-.38,1.81,1.81,0,0,1-.53-1.37c-.06-1.23,0-2.46,0-3.81H69.55c-.73,0-1,.19-1,.76a10.16,10.16,0,0,1,0,1.91,1.64,1.64,0,0,1-1.86,1.23h-.16c-.94,0-1.68-.64-1.64-1.37v0a13.67,13.67,0,0,1,0-1.81c.07-.59-.3-.81-1-.76-1.17,0-2.33.13-3.79.22,0,1.37-.05,2.73,0,4.09.08.67-.54,1.26-1.4,1.35a1.74,1.74,0,0,1-2-.75.69.69,0,0,1-.05-.13,5.24,5.24,0,0,1-.19-1.52v-3H53.85c0,.4-.06.73-.06,1V130c0,1,.41,1.21,1.63,1.21q28.83,0,57.68,0h75.29c1,0,1.35-.21,1.34-1,0-2.28.05-4.57.07-6.85V118.1H176.75v4.12a1.56,1.56,0,0,1-1.68,1.42h-.13a1.67,1.67,0,0,1-1.89-1.23v0a5.49,5.49,0,0,1-.06-1v-3.3h-4.55v2.06a1.64,1.64,0,0,1-1.81,1.75,1.71,1.71,0,0,1-2-1.73v-2.08h-4.47c0,.38-.06.67-.06,1v3.23a1.72,1.72,0,0,1-1.92,1.36,1.77,1.77,0,0,1-1.72-1.1,3.38,3.38,0,0,1-.12-1v-3.48h-4.55v2.05a1.64,1.64,0,0,1-1.88,1.78,1.66,1.66,0,0,1-1.86-1.81V118h-3.56c-.82,0-1.06.25-1,.84V122a1.86,1.86,0,0,1-3.71,0c0-1.06,0-2.15,0-3.22a.9.9,0,0,0-.6-.69c-1.28-.07-2.56,0-3.94,0v2.37a1.72,1.72,0,0,1-1.9,1.41,1.68,1.68,0,0,1-1.83-1.47v-2.24H127v3.72a1.74,1.74,0,0,1-2,1.85,1.68,1.68,0,0,1-1.81-1.84c0-1.15,0-2.47,0-3.75h-4.54v2.28c.1.81-.65,1.53-1.69,1.61a1.84,1.84,0,0,1-2.08-1.31,1.5,1.5,0,0,1,0-.3v-2.22h-4.54v4c0,1.3-1.27,1.9-2.51,1.52a1.55,1.55,0,0,1-1.28-1.6v-3.91ZM68.72,139.61H175v-5.4H68.72Zm84.05-111.8-.31.17V43h19.31Z" transform="translate(-49.99 -22.68)"/><path class="cls-1" d="M153.65,106.59H90.1v1.89c.1.76-.62,1.45-1.62,1.52a2,2,0,0,1-.35,0c-3,0-6.09,0-9.13-.06a2,2,0,0,1-1.51-1,12.94,12.94,0,0,1-.25-3.1v-4c0-1.34.67-1.81,2.38-1.84s3.14,0,4.7,0a2,2,0,0,0,1.86-.8q6.9-8.58,13.8-17.11c.16-.2.33-.4.5-.59a2.24,2.24,0,0,1,2.81-.77c1,.48,1.2,1.32.36,2.37-1.49,1.85-3,3.71-4.48,5.56Q94.75,94.16,90.3,99.6a1.3,1.3,0,0,0-.3,1.47,7.34,7.34,0,0,1,.18,2.47h63.25c.23-1,.48-2,.63-3,0-.23-.24-.49-.43-.71q-6.48-8-13-16.07l-.41-.52c-.82-1.06-.72-1.9.28-2.38a2.31,2.31,0,0,1,2.91.82q2.07,2.51,4.09,5c3.38,4.19,6.77,8.38,10.12,12.58a2,2,0,0,0,1.86.82c1.6-.06,3.22,0,4.83,0s2.25.53,2.26,1.81v6.35c0,1.34-.64,1.8-2.37,1.81H156c-1.7,0-2.32-.5-2.35-1.84C153.64,107.67,153.65,107.17,153.65,106.59ZM86.3,103H80.89v3.65a.78.78,0,0,0,.6.48c1.54,0,3.09,0,4.78,0Zm76.42,0h-5.2v4h5.2Z" transform="translate(-49.99 -22.68)"/><path class="cls-1" d="M129.62,90.88c2.72.49,2.8.57,2.81,2.65v3.94c0,1.31-.64,1.77-2.19,1.78h-17c-1.54,0-2.16-.56-2.17-1.79s0-2.62,0-3.93c0-2.09.07-2.16,2.81-2.65-.76-1.32-1.49-2.63-2.25-3.93-1.75-3-3.49-6.1-5.27-9.11a1.61,1.61,0,0,1,.11-2C111,70,115.48,64.1,120,58.25a2.17,2.17,0,0,1,3.72,0c3.32,4.34,6.59,8.7,9.86,13.05,1.13,1.48,2.22,3,3.4,4.41a1.75,1.75,0,0,1,.12,2.19c-2.31,3.94-4.58,7.9-6.9,11.85C130,90.13,129.83,90.46,129.62,90.88ZM123.9,64.36a3.07,3.07,0,0,0-.2.5c0,3.15-.07,6.31,0,9.47a1.92,1.92,0,0,0,.59,1.15,2.09,2.09,0,0,1-.35,3.46l-.08,0a4.38,4.38,0,0,1-4.31-.2,2.11,2.11,0,0,1-.25-3.23,2.68,2.68,0,0,0,.6-1.46c.07-2.29,0-4.57.06-6.86V64.48c-.29.13-.43.15-.48.22q-4.55,5.89-9,11.79a1,1,0,0,0-.08,1c2.46,4.31,4.93,8.59,7.41,12.88a1.32,1.32,0,0,0,1.38.69c1.73,0,3.48,0,5.21,0a1.37,1.37,0,0,0,1.44-.77c2.41-4.21,4.87-8.37,7.24-12.61a1.5,1.5,0,0,0-.14-1.46c-1.07-1.52-2.28-3-3.45-4.57ZM115,94v2.29h13.51V94Z" transform="translate(-49.99 -22.68)"/><path class="cls-1" d="M128.2,54.66c.6,0,1,.05,1.46.05h11.09a1.74,1.74,0,0,0,1.8-.83,6.78,6.78,0,0,1,6.3-2.72c2.68.2,4.92,1.66,5.65,3.66s-.22,4.12-2.38,5.33a7.61,7.61,0,0,1-8.86-.82,5.07,5.07,0,0,1-.7-.86,1.84,1.84,0,0,0-1.88-.88c-3.74,0-7.48,0-11.23,0-.59,0-1.16-.07-1.4.6a1.76,1.76,0,0,1-2,.94h0c-1-.08-1.69-.76-1.6-1.52V54h-5.35v3c0,1.38-.5,2-1.68,2.17s-1.74-.38-2.33-1.65H102.24a1.77,1.77,0,0,0-1.1.76c-1.64,2.45-5.53,3.42-8.7,2.16S88,56.12,89.65,53.67s5.53-3.42,8.7-2.16a5.91,5.91,0,0,1,2.88,2.31,1.61,1.61,0,0,0,1.06.66c4.26,0,8.52,0,13,0V52.77c0-1.3.62-1.8,2.26-1.8h8.48c1.57,0,2.17.51,2.2,1.74C128.21,53.4,128.2,54,128.2,54.66Zm20.15-.55a2.5,2.5,0,0,0-2.78,2c0,1.16,1.12,2.13,2.61,2.17h0a2.52,2.52,0,0,0,2.72-2c0-1.13-1.13-2.07-2.6-2.1Zm-53.1,4A2.47,2.47,0,0,0,98,56.17v0C98.05,55,96.87,54,95.37,54h0a2.43,2.43,0,0,0-2.67,2c-.07,1.1,1,2,2.46,2.09Z" transform="translate(-49.99 -22.68)"/><path class="cls-1" d="M187.3,124.58c0,1.34-1.4,2.44-3.15,2.44s-3.16-1.08-3.16-2.43,1.4-2.44,3.14-2.44h0c1.72,0,3.14,1,3.16,2.37Z" transform="translate(-49.99 -22.68)"/></svg>