<svg id="Layer_1" data-name="Layer 1" xmlns="http://www.w3.org/2000/svg" viewBox="0 0 193.82 204.52"><defs><style>.cls-1{fill:#000cdf;}</style></defs><path class="cls-1" d="M216.89,43.49c0-10.84-6.88-17.31-17.81-16.93a15.6,15.6,0,0,0-6.42,0l-4.55,0c-.65.09-1.3.17-1.93.27-3,1.06-5,2.47-4.39,6.39s2.43,5.9,6.4,5.9c3.63,0,7.26,0,10.88,0,3.46,0,5,1.25,5,5.15q-.18,43.32.15,86.63c0,4.27-1.23,5.17-5.26,5.15-28.87-.13-57.75,0-86.61.06q-35.11,0-70.24-.08a5.56,5.56,0,0,0-2.21.28c-3.66,1.7-4.09-.34-4.08-3.28q.09-17.69,0-35.35-.06-26.29-.17-52.56c1.2-4.89,4.78-6.09,9.24-6.08q14.52,0,29.05,0c4.65,0,7.36-2.26,7.49-6,.13-4-2.66-6.63-7.44-6.65-10.74,0-21.54-.63-32.2.27C32.1,27.5,25,32,23.43,43.23A10.06,10.06,0,0,0,23.12,45c0,35.24-.11,70.48.11,105.71.08,10.55,8.52,18.19,19.14,18.24,14.82.07,29.64.15,44.46,0,3.69,0,5.18.93,4.88,4.85A80,80,0,0,1,89.39,189c-1.92,7-1.92,7-9,7-2,0-3.93.07-5.9,0-3.83-.22-7,.8-8.27,4.75s1.23,6.18,4.21,8h99.06c3.07-1.77,5.35-4.09,4.3-7.95-.71-2.57-2.39-4.66-5.34-4.72-4.36-.1-8.79-.39-13,.31-2.18.35-2.43-.14-3.07-1.71-2.79-6.9-3.9-14.14-4.75-21.46,0-.55,0-1.12,0-1.68.06-.75.13-1.52.19-2.27q23.81-.12,47.61-.24c13.73,0,21.45-7.55,21.46-21.19Q217,95.67,216.89,43.49ZM136.57,196c-11.78,0-23.56,0-35.69,0,1.61-7.19,3.43-13.92,3.39-20.94,0-6,0-6,6.29-6,7,0,13.94.08,20.89-.05,2.63,0,3.71.57,3.72,3.52a70.41,70.41,0,0,0,3.1,20.1C138.71,194.14,139.55,196,136.57,196Zm64-40.55a8.43,8.43,0,0,0-1.07.82h0l-154.26.1c-3.06,0-6.1,0-8.1-2.93-.78-1.15-1.65-2.32-1-3.73s2.11-.89,3.23-.9q23.82,0,47.63,0c6,0,12.1-.09,18.14-.13h35.38c19.47,0,38.93,0,58.4.21,1.68,0,4.33-1.49,5,1.22C204.43,152.51,202.69,154.31,200.52,155.45Z" transform="translate(-23.09 -4.24)"/><path class="cls-1" d="M148.21,16.41c-1.28,2.35-2.19,4.89-3.42,7.27-1.86,3.59-5.28,4.9-8.66,3.24-3.59-1.78-4.49-4.92-2.94-8.33,2.28-5,4-10.41,8.14-14.35h5.46C151.31,8.9,151.45,10.42,148.21,16.41Z" transform="translate(-23.09 -4.24)"/><path class="cls-1" d="M154,72.58c-2-3.46-4.49-6.68-6.61-10.11-5.3-8.56-11.89-16.24-17-24.94-3.52-6-7.66-11.58-11.76-17.17-2.76-3.77-8.7-3.95-10.19-.17-1.27,3.23-3.56,5.71-5,8.65C98.38,39.53,90.56,47.78,81.61,55.13,74.86,60.68,66.94,64.64,60.4,70.5a18,18,0,0,0-2.57,23.26A97.73,97.73,0,0,1,63.4,102c5.18,9.67,19,10.22,27.15,5.06,2.43-1.54,4.48-4.28,8-3.49.59.39,1.39.64,1.74,1.19,3.42,5.48,8.95,8.74,13.61,12.89,3,2.69,6.35,2.11,8.8-.81,2.14-2.56,2.27-5.4-.58-8-4.73-4.27-9.32-8.69-14.13-13.21.76-.53,1.31-1,1.93-1.36,11.91-6.55,24.56-10.51,38.23-10.93C155.31,83.16,157.69,78.88,154,72.58ZM91.79,90.77c-1.18,1-3.16,1.33-3.33,3.37a3.31,3.31,0,0,0-2.89,1.74c-.95-.06-2-.23-2.28,1.07-3.88,1.81-7.09,1.29-9.52-2.52-1.5-2.4-3.11-4.73-4.79-7s-1.6-4.7-.66-7.21l0-.16a.63.63,0,0,0,.5-.64,114.81,114.81,0,0,0,9.61-6.59c2-1.62,3-1.39,4.26.48C85.83,78,89,82.76,92.26,87.4,93.31,88.88,93,89.72,91.79,90.77ZM134,72.07a100.85,100.85,0,0,0-28,9.83,1.69,1.69,0,0,1-2.33-.47c-4.82-4.93-7.08-11.68-11.85-16.65-.8-.84-.18-1.59.88-2.43,6.94-5.6,13.21-11.82,17.42-19.88,1-2,2.88-3.51,4.56-5.5,7,10.81,14.59,21,21.16,31.8C137.46,71.53,134.71,71.92,134,72.07Z" transform="translate(-23.09 -4.24)"/><path class="cls-1" d="M169.91,30.82c-4,5-9.4,8.23-15.42,10.24a5.32,5.32,0,0,1-5.56-3.46c-.76-2.08-1.13-4.25,1-6.56,3.55-3.88,7.93-6.4,12.36-8.84,2.46-1.38,5.08-.19,6.95,1.87S171.38,29,169.91,30.82Z" transform="translate(-23.09 -4.24)"/><path class="cls-1" d="M173.9,59.71c-3.26.52-6.58.69-11,1.13-2,.53-4.61-.8-6.57-2.77-3.22-3.22-.83-9.29,4-10.06a86,86,0,0,1,12.62-1c3.87,0,6.26,2.35,6.51,6.14S177.49,59.14,173.9,59.71Z" transform="translate(-23.09 -4.24)"/><path class="cls-1" d="M188.11,26.55c-.65.09-1.3.17-1.93.27A1.74,1.74,0,0,1,188.11,26.55Z" transform="translate(-23.09 -4.24)"/></svg>