<svg id="Layer_1" data-name="Layer 1" xmlns="http://www.w3.org/2000/svg" viewBox="0 0 158.31 201.58"><defs><style>.cls-1{fill:#000cdf;}</style></defs><path class="cls-1" d="M100.07,76a2,2,0,0,0-1.55.73,2.27,2.27,0,0,0-.22.32,2,2,0,0,0-.24,1,2,2,0,0,0,2,2,2,2,0,0,0,1.48-.66l.32-.45a2,2,0,0,0,.21-.9A2,2,0,0,0,100.07,76Z" transform="translate(-40.85 -5.71)"/><path class="cls-1" d="M181.64,5.71v6.77H128.77V5.71H111.24v6.77H58.37V5.71H40.85V23.24H58.37V16.48h52.87v6.76h17.53V16.48h52.87v6.76h17.51V5.71ZM55.37,20.24H43.85V8.71H55.37Zm70.4,0H114.24V8.71h11.53Zm70.38,0H184.64V8.71h11.51Z" transform="translate(-40.85 -5.71)"/><path class="cls-1" d="M185.12,95.25a65.13,65.13,0,0,0-130.23,0H48.11v17.52H65.63V95.25H58.89a61.13,61.13,0,0,1,122.23,0h-7.74v17.52H190.9V95.25Zm-122.49,3v11.52H51.11V98.25ZM187.9,109.77H176.38V98.25H187.9Z" transform="translate(-40.85 -5.71)"/><path class="cls-1" d="M151,124.39H138.93a115,115,0,0,1,18.21-22l1.25-1.18-35.95-52-.43-.62-2-2.89-2,2.89-.43.62L104.25,68.47h0a1.91,1.91,0,0,0,1.57,3h.2a1.89,1.89,0,0,0,1.57-.83l1.51-2.17L118,55.59v30.8a10.56,10.56,0,1,0,4,0V55.59l31.13,45a120.08,120.08,0,0,0-18.93,23.78H105.8a119.36,119.36,0,0,0-18.93-23.78l9.78-14.16h0a1.91,1.91,0,0,0-1.58-3h-.2a1.89,1.89,0,0,0-1.57.83l-1.5,2.17L81.63,101.16l1.25,1.18a114.59,114.59,0,0,1,18.2,22H88.67a9.06,9.06,0,0,0-9,9.65A9.26,9.26,0,0,0,89,142.47H99.51v64.82h41V142.47h10.84a9.05,9.05,0,0,0,9-9.67A9.24,9.24,0,0,0,151,124.39ZM126.57,96.75A6.56,6.56,0,1,1,120,90.19,6.56,6.56,0,0,1,126.57,96.75Zm9.94,106.54h-33V142.47h33Zm14.84-64.82H88.67a5,5,0,0,1,0-10.08h62.68a5,5,0,0,1,0,10.08Z" transform="translate(-40.85 -5.71)"/><path class="cls-1" d="M102.08,78a2,2,0,0,1-.21.9l-.32.45a2,2,0,0,1-1.48.66,2,2,0,0,1-2-2,2,2,0,0,1,.24-1,2.27,2.27,0,0,1,.22-.32A2,2,0,0,1,102.08,78Z" transform="translate(-40.85 -5.71)"/></svg>