<svg id="Layer_1" data-name="Layer 1" xmlns="http://www.w3.org/2000/svg" viewBox="0 0 1052.09 801.51"><defs><style>.cls-1{fill:#383434;}</style></defs><path class="cls-1" d="M1021.38,353.17Q820.52,255.6,620,157.42c-49.53-24.13-99.51-24.13-149.08-.64Q320.29,228.14,170.13,300.24q-62.7,30-125.19,60.33c-12.95,6.3-23.22,15.85-28.43,29.67C9,410.14,18.32,431.66,41,445.29c12,7.17,24.77,12.91,37.38,18.91,4.23,2,5.78,4.42,5.78,9.21q-.28,89.88,0,179.74c0,4.12-1,6.46-5,8.76C36.52,686.57,35.42,739.5,77,765.21c4.42,2.71,5.21,4.49,3.59,9.51-9.14,27.79-17.74,55.8-26.47,83.7-8.53,27.18-17,54.36-25.52,81.73H180.43c-.56-2-.94-3.21-1.36-4.49-16.68-53.27-33.29-106.54-50.21-159.73-1.77-5.52-1.51-7.86,4-11.06,39.91-23,39.57-79.4-.64-101.64-5.74-3.17-7.32-6.45-7.28-12.64.26-51.35.11-102.69.19-154.07,0-2.5-.95-5.29,1.39-8.12,17.9,8.76,35.38,17.78,53.31,25.9,6.91,3.13,9.21,6.83,9.17,14.5-.34,78.41-.15,156.78-.34,235.2,0,8,2,14.53,7.1,20.65Q264.12,865.8,362.21,906c89.22,36.47,181.37,43.68,275.34,24.17Q781,900.4,878,789.63c7.89-9,11.48-18.35,11.44-30.54-.45-76.68-.15-153.39-.41-230.07,0-6.76,1.89-10.19,8-13.17,42-20.31,83.7-41.34,125.83-61.43,18.65-8.91,34.62-19.93,43.15-39.53V396.4C1058.68,374.2,1041.28,362.83,1021.38,353.17ZM1007.94,419q-65.52,32.4-131.15,64.56Q739.24,550.68,601.57,617.67c-36.58,17.78-74.26,18.8-110.77,1.58C387.28,570.4,284.29,520.38,181.11,470.84c-1.81-.86-3.58-1.81-7.77-4,93-10.8,183.59-21.33,274.16-31.83q43.77-5.08,87.55-10.3c9.36-1.13,18.53-3.06,22.61-13.22,4.87-12.23-4.49-26.08-18.16-25.14-21.44,1.47-42.81,4.34-64.22,6.87q-65.62,7.65-131.3,15.56L212.64,424.33c-31.56,3.74-63.13,7.4-94.69,11.22a29.3,29.3,0,0,1-17.7-3.29C89,426.52,77.44,421.58,66.16,416c-5.06-2.53-12.2-4.79-12.16-11,.07-5.74,7.13-7.74,11.93-10.08Q128,364.78,190.25,335,339.06,263.56,488,192.23c38-18.12,76.53-18.2,114.54.34q203.09,99,406,198.28c6.87,3.32,17.78,5.47,17.63,13.55C1025.91,412.74,1015.15,415.42,1007.94,419ZM844.81,769.4C790.75,829.5,724.49,870.2,646.23,889c-128.32,31-247.89,10.54-355.67-67.91a348.52,348.52,0,0,1-56.63-52c-3.1-3.51-5-6.91-5-11.82q.24-108.27.12-216.62c0-1,.34-2,.71-4.38,42.7,20.42,84.42,40.47,126.21,60.33C398.76,617,440.82,639,484.57,656.93,528,674.75,572.65,672.86,615.46,652q111.1-54.19,222.07-108.69c3.88-1.89,7.81-3.62,12.79-5.89v10.12q0,103.18.12,206.36C850.44,760,849.08,764.68,844.81,769.4Z" transform="translate(-13.96 -139.24)"/></svg>