<svg id="Layer_1" data-name="Layer 1" xmlns="http://www.w3.org/2000/svg" viewBox="0 0 227.24 82.64"><defs><style>.cls-1{fill:#63a714;}.cls-2{fill:#e34d26;}.cls-3{fill:#365b0b;}.cls-4{fill:#0070b9;}.cls-5{fill:#89ce17;}.cls-6{fill:#eaeaea;}.cls-7{fill:#f06529;}.cls-8{fill:#fefefe;}.cls-9{fill:#29a7df;}</style></defs><path class="cls-1" d="M233.62,67.4a22,22,0,0,0-.64,5.1c-.76,8-1.45,16-2.16,24.07q-1.17,13-2.31,26.05c-.48,5.34-1,10.67-1.42,16A1.3,1.3,0,0,1,226,140q-14,3.82-27.87,7.72a3.46,3.46,0,0,1-1.94,0q-13.93-3.88-27.87-7.73a1.21,1.21,0,0,1-1.06-1.26q-1.84-21.25-3.76-42.5c-.89-9.9-1.75-19.8-2.68-29.69-.11-1.19.29-1.3,1.3-1.3q35,0,70,0c.52,0,1,0,1.55,0v.45a1.71,1.71,0,0,0,0,1.33Z" transform="translate(-6.38 -65.18)"/><path class="cls-2" d="M6.38,65.18c.48,0,1,0,1.44,0H78c1.45,0,1.42,0,1.29,1.47L76.71,95.94q-1.29,14.28-2.58,28.58c-.41,4.6-.83,9.2-1.18,13.8a1.6,1.6,0,0,1-1.41,1.7c-9.09,2.46-18.16,5-27.22,7.53a4.82,4.82,0,0,1-2.79,0Q27.89,143.73,14.22,140A1.38,1.38,0,0,1,13,138.49c-.74-8.76-1.55-17.51-2.33-26.27q-1-11.75-2.09-23.51-1-11.1-2-22.19c0-.18,0-.37-.22-.45Z" transform="translate(-6.38 -65.18)"/><path class="cls-3" d="M233.62,67a1.11,1.11,0,0,1,0-1.33Z" transform="translate(-6.38 -65.18)"/><path class="cls-4" d="M120,65.22h35.17c1.32,0,1.29,0,1.17,1.35q-1.08,11.76-2.11,23.52-1.17,13-2.32,26.06c-.64,7.18-1.29,14.35-1.91,21.53-.17,1.95-.13,2-2,2.48q-13.56,3.75-27.11,7.53a3.46,3.46,0,0,1-1.94,0Q105,143.8,91.13,140A1.28,1.28,0,0,1,90,138.66c-1.12-12.88-2.3-25.76-3.45-38.64-1-11.23-2-22.46-3-33.68-.1-1,.24-1.14,1.12-1.14Q102.31,65.25,120,65.22Z" transform="translate(-6.38 -65.18)"/><path class="cls-5" d="M197,80.25c0-2.62,0-5.24,0-7.87,0-.9.28-1.23,1.21-1.23,9.17,0,18.33,0,27.5,0,1.19,0,1.29.18,1.17,1.38-.37,3.82-.69,7.64-1,11.46s-.71,7.56-1,11.35-.63,7.49-1,11.24-.7,7.57-1,11.35-.64,7.27-.95,10.91c-.16,1.77-.33,3.53-.45,5.29,0,.66-.42.86-1,1-4.17,1.14-8.33,2.3-12.5,3.45-3.24.9-6.49,1.76-9.72,2.7-.9.26-1.22,0-1.21-.89,0-2.73,0-5.47,0-8.2a1.09,1.09,0,0,1,.42-.64c2.41-.85,4.9-1.43,7.35-2.12,2.92-.82,5.83-1.66,8.77-2.4a2.26,2.26,0,0,0,1.95-2.3c.18-2.83.46-5.66.72-8.49q.51-5.52,1-11c.33-3.6.65-7.21,1-10.81.35-3.79.63-7.58,1-11.36a2.26,2.26,0,0,0-.24-1.81,6.37,6.37,0,0,0-3.21-.65c-5.78,0-11.56,0-17.34,0C198,80.59,197.4,80.77,197,80.25Z" transform="translate(-6.38 -65.18)"/><path class="cls-5" d="M197,122.43V91.19c0-1.61,0-1.61-1.59-1.61H176.26a2.72,2.72,0,0,1-1.41-.16,1.39,1.39,0,0,1,1.36-.56c6.89,0,13.78-.09,20.66,0,3.92-.12,7.84-.06,11.76,0,1.72,0,1.92.24,1.79,2-.34,4.57-.86,9.12-1.27,13.68q-.57,6.4-1.22,12.8c-.35,3.49,0,2.83-2.9,3.68-2.13.63-4.29,1.15-6.43,1.73a2,2,0,0,1-1.09.13A.94.94,0,0,1,197,122.43Z" transform="translate(-6.38 -65.18)"/><path class="cls-6" d="M197,122.43l.42,0c.29.48.1,1,.1,1.51,0,2.67.08,5.34-.07,8l-.45.23c-4.27-1.19-8.53-2.39-12.8-3.57q-2.61-.74-5.24-1.42a1,1,0,0,1-.87-1c-.3-4.27-.65-8.54-1-12.81-.06-.64.09-.86.74-.85,2.52,0,5,0,7.55,0,.63,0,.83.24.88.82.15,1.92.34,3.83.51,5.74,0,.37,0,.73.5.85C190.53,120.73,193.73,121.78,197,122.43Z" transform="translate(-6.38 -65.18)"/><path class="cls-6" d="M197,89.35l-19.4,0-2.77,0c-.22-2.72-.42-5.43-.68-8.14-.08-.82.2-1,1-1,6.86,0,13.72,0,20.57,0,.45,0,.89,0,1.33,0,7.32,0,14.65,0,22,0,.38,0,1.2-.35.89.67-6.5.13-13,0-19.49.06-2.84,0-2.85,0-2.86,2.82,0,1.37,0,2.73,0,4.1A1.64,1.64,0,0,1,197,89.35Z" transform="translate(-6.38 -65.18)"/><path class="cls-7" d="M20.14,80.47a2.65,2.65,0,0,1,1.52-.2H41.51c1.46,0,1.48,0,1.48-1.48,0-2.15,0-4.29,0-6.43,0-.86.29-1.19,1.16-1.18q13.7,0,27.39,0c.92,0,1.29.33,1.2,1.24q-.39,4.23-.76,8.48t-.79,8.81l-1,10.57c-.27,3-.54,6.09-.82,9.14-.34,3.82-.7,7.63-1,11.45-.25,2.86-.48,5.73-.74,8.59-.14,1.62-.31,3.23-.45,4.85-.06.62-.5.74-1,.87l-13.35,3.72c-2.78.77-5.55,1.55-8.33,2.3C43,141.59,43,141.57,43,140v-7.76c.19-.92,1-.88,1.65-1.06,3.55-1,7.11-2,10.67-3,1.47-.4,2.92-.83,4.38-1.22,1.24-.33,1.52-.76,1.64-2,.51-5.51,1-11,1.49-16.53.24-2.5.44-5,.65-7.5.08-1-.3-1.4-1.49-1.41-2.69,0-5.39,0-8.09,0-3.14,0-6.28,0-9.42,0-.6,0-1.28.11-1.72-.51a2.88,2.88,0,0,1-.27-1.29c0-2.27,0-4.55,0-6.82a2.71,2.71,0,0,1,.3-1.28c.55-.61,1.29-.46,2-.47,5.65,0,11.3,0,17,0,.44,0,.89,0,1.33,0,1.13-.07,1.48-.42,1.61-1.55.16-1.43.27-2.87.41-4.3.18-1.84-.13-2.16-2-2.16-5.8,0-11.6,0-17.4,0-1,0-2,0-3-.06-7.06.13-14.11,0-21.17,0A1.52,1.52,0,0,1,20.14,80.47Z" transform="translate(-6.38 -65.18)"/><path class="cls-6" d="M20.14,80.47l22.65,0a1.4,1.4,0,0,1,.49,1.18q.07,3.36,0,6.72a1.63,1.63,0,0,1-.37,1.12c-.35.66-1,.57-1.56.58-2.84,0-5.68,0-8.53,0-1.84,0-2.06.19-1.91,2.05.12,1.54.21,3.09.41,4.63.15,1.21.43,1.53,1.68,1.55,2.73,0,5.46,0,8.19,0,.61,0,1.29-.14,1.7.54a2.16,2.16,0,0,1,.41,1.46c0,2.06,0,4.13,0,6.2a1.73,1.73,0,0,1-.45,1.43,1.41,1.41,0,0,1-.76.09q-9.36,0-18.73,0a1.51,1.51,0,0,1-.76-.08c-.29-2.86-.59-5.73-.85-8.59q-.81-8.76-1.56-17.53C20.14,81.43,20.15,81,20.14,80.47Z" transform="translate(-6.38 -65.18)"/><path class="cls-8" d="M42.79,108V99a.14.14,0,0,1,.21-.08c6.65,0,13.3,0,20,0,1,0,1.24.22,1.14,1.22-.66,7-1.28,14-1.91,21.06-.14,1.62-.33,3.23-.41,4.86,0,.78-.4,1-1.09,1.23q-8.59,2.34-17.17,4.74a4.65,4.65,0,0,0-.52.2.66.66,0,0,0-.2-.06,1.37,1.37,0,0,1-.51-1.06c-.07-2.57-.09-5.13,0-7.69a1,1,0,0,1,.21-.61c1.12-1.17,2.65-1.36,4.09-1.74s3.06-.85,4.6-1.23A1.81,1.81,0,0,0,52.71,118c.28-2.71.47-5.42.71-8.14.09-1-.2-1.32-1.26-1.33-2.47,0-4.94,0-7.41,0A2.56,2.56,0,0,1,42.79,108Z" transform="translate(-6.38 -65.18)"/><path class="cls-6" d="M42.79,122.64v9.49c-6-1.67-12-3.35-18-5a.81.81,0,0,1-.68-.85c-.36-4.19-.71-8.39-1.12-12.58-.1-1,.19-1.19,1.12-1.17,2.36.06,4.73,0,7.1,0,.7,0,.95.21,1,.91.13,1.84.36,3.68.49,5.52.05.65.23,1,.91,1.12,3,.76,6.07,1.58,9.1,2.37C42.89,122.48,42.91,122.53,42.79,122.64Z" transform="translate(-6.38 -65.18)"/><path class="cls-7" d="M42.79,122.64l-.06-.18a1.89,1.89,0,0,0,.26-1.27c0-3.87,0-7.75,0-11.62,0-1.1-.41-1.36-1.43-1.36-5.82,0-11.65,0-17.48,0a2.61,2.61,0,0,1-1.51-.2l20.2,0c3.4,0,6.8.08,10.2,0,1,0,1.18.26,1.08,1.18-.34,3.27-.62,6.55-.89,9.82a1,1,0,0,1-.88,1C49.12,120.9,46,121.78,42.79,122.64Z" transform="translate(-6.38 -65.18)"/><path class="cls-9" d="M119.8,80.49c0-2.66,0-5.32,0-8,0-.94.28-1.32,1.27-1.32q13.74,0,27.49,0c1.06,0,1.22.44,1.14,1.35-.61,6.54-1.17,13.08-1.77,19.62-.63,7-1.3,14-1.93,20.94-.48,5.41-.92,10.81-1.39,16.22-.14,1.61-.32,3.23-.43,4.85-.05.74-.54.87-1.09,1l-14,3.88c-2.71.75-5.42,1.47-8.12,2.26-.92.27-1.18,0-1.18-.92,0-2.73,0-5.47,0-8.2a.86.86,0,0,1,.48-.57,31.25,31.25,0,0,1,5.07-1.56c3.7-1.06,7.41-2.05,11.11-3.1,1.55-.45,1.74-.8,1.88-2.44l1.26-14.12c.35-4,.74-7.94,1-11.92.23-3.68.62-7.35,1-11q.24-2.53.45-5.07a1,1,0,0,0-.39-1,11.15,11.15,0,0,0-3.57-.6q-8.4,0-16.79,0C120.75,80.82,120.19,81,119.8,80.49Z" transform="translate(-6.38 -65.18)"/><path class="cls-6" d="M120.24,132l-.45.22c-6-1.7-12.06-3.41-18.09-5.07-.7-.2-1-.43-1.07-1.22-.34-4.31-.74-8.61-1.16-12.91-.07-.68.14-.81.75-.8,2.59,0,5.18,0,7.77,0,.76,0,.9.29.94,1,.11,1.84.32,3.68.46,5.52a1.12,1.12,0,0,0,1,1.2c3,.74,6,1.56,9,2.36.3.14.71-.08.93.3a3.18,3.18,0,0,1,.23,1.52c0,2.07,0,4.13,0,6.2A4.07,4.07,0,0,1,120.24,132Z" transform="translate(-6.38 -65.18)"/><path class="cls-6" d="M119.8,80.49q10.77,0,21.55,0c.42,0,.89-.19,1.26.19-.51.67-1.26.53-1.94.53-5.68,0-11.36,0-17,0-3.09,0-3.09,0-3.09,3.15,0,1.21,0,2.43,0,3.65a2.24,2.24,0,0,1-.35,1.47.38.38,0,0,1-.39.1c-6.87,0-13.75-.05-20.62,0-1.08,0-1.35-.31-1.39-1.35-.1-2.17-.34-4.34-.59-6.51-.12-.93,0-1.27,1.1-1.26,6.73.06,13.45,0,20.18,0C118.91,80.53,119.36,80.5,119.8,80.49Z" transform="translate(-6.38 -65.18)"/><path class="cls-6" d="M99.45,108c-.23-3-.69-6.06-.71-9.12a2,2,0,0,1,.87-.08c6.71,0,13.42,0,20.13,0a1.23,1.23,0,0,1,.32.07,1.61,1.61,0,0,1,.45,1.32c0,2.17,0,4.35,0,6.53a1.83,1.83,0,0,1-.42,1.34.9.9,0,0,1-.43.09c-6.49,0-13,0-19.48,0A1.11,1.11,0,0,1,99.45,108Z" transform="translate(-6.38 -65.18)"/><path class="cls-9" d="M99.45,108H120a1.53,1.53,0,0,1,1.29-.5c2.88,0,5.77,0,8.65,0,1.4,0,1.64.39,1.52,1.8-.26,3.2-.58,6.39-.93,9.59a1.62,1.62,0,0,1-1.33,1.53c-2.63.76-5.28,1.45-7.93,2.13a1.45,1.45,0,0,1-1.28-.12c-.22,0-.46,0-.63-.19.52-.24.44-.72.44-1.15,0-3.88,0-7.75,0-11.62,0-1-.32-1.28-1.28-1.28-5.91,0-11.81,0-17.72,0C100.37,108.2,99.87,108.33,99.45,108Z" transform="translate(-6.38 -65.18)"/><path class="cls-9" d="M120,98.92l-21.27,0a2.52,2.52,0,0,1,1.41-.17h18c1.62,0,1.63,0,1.62-1.67q0-3.7,0-7.41l.22-.07a1.7,1.7,0,0,1,1.42-.48c3.39,0,6.79,0,10.19,0,1.48,0,1.69.31,1.59,1.82-.15,2.36-.43,4.7-.72,7-.14,1.12-.41,1.42-1.56,1.45-3.24.09-6.49.06-9.74,0A1.41,1.41,0,0,1,120,98.92Z" transform="translate(-6.38 -65.18)"/><path class="cls-8" d="M197,89.35c0-2.55,0-5.1,0-7.65,0-.93.33-1.22,1.23-1.21,6.85,0,13.69,0,20.53,0,.44,0,.91,0,1.14.47-.41,4.82-.81,9.64-1.24,14.46q-.93,10.48-1.89,21-.45,5-.89,9.93c0,.39-.09.67-.57.8L197.47,132c-.47-.2-.47-.61-.47-1,0-2.47,0-4.94,0-7.41a1.31,1.31,0,0,1,.44-1.09c2.92-.8,5.83-1.62,8.76-2.38a1.17,1.17,0,0,0,1.06-1.24q1.32-14.28,2.75-28.57c.09-.87-.27-.88-.9-.88Z" transform="translate(-6.38 -65.18)"/><path class="cls-8" d="M42.78,89.55c0-3,0-6,0-9,3.29,0,6.58-.05,9.87-.05,4.07,0,8.13,0,12.2,0,.8,0,1,.21.89,1-.25,2.27-.44,4.56-.59,6.84-.06,1-.33,1.34-1.42,1.33-6.92-.05-13.83,0-20.75,0A.15.15,0,0,1,42.78,89.55Z" transform="translate(-6.38 -65.18)"/><path class="cls-2" d="M42.78,89.55l.21.08v9.24l-.21.08c-3.62,0-7.24-.06-10.86,0-.84,0-1.06-.28-1.12-1.05-.17-2.39-.38-4.79-.65-7.17-.11-1,.18-1.15,1.1-1.14C35.1,89.61,38.94,89.56,42.78,89.55Z" transform="translate(-6.38 -65.18)"/><path class="cls-8" d="M120,98.92c3.46,0,6.93-.08,10.4,0,1.13,0,1.6-.2,1.65-1.46.1-2.28.39-4.55.7-6.81.12-.85,0-1.07-.91-1.06-3.95,0-7.89,0-11.84,0,0-2.51,0-5,0-7.53,0-1,.37-1.32,1.36-1.32,7.09,0,14.18,0,21.27,0-.24,2.94-.46,5.88-.7,8.82q-.74,8.66-1.49,17.31c-.57,6.43-1.16,12.87-1.73,19.3,0,.44,0,.82-.63,1-5.95,1.6-11.88,3.24-17.82,4.87a1.94,1.94,0,0,1-.24-1.27v-8.29c3-.82,6-1.67,8.94-2.46a1.26,1.26,0,0,0,1.14-1.3c.26-3.27.6-6.53.95-9.79.09-.77-.22-.85-.85-.85-3.21,0-6.42,0-9.63,0A4.93,4.93,0,0,1,120,108Z" transform="translate(-6.38 -65.18)"/></svg>