<svg id="Layer_1" data-name="Layer 1" xmlns="http://www.w3.org/2000/svg" viewBox="0 0 256 256"><defs><style>.cls-1{fill:#49021f;}.cls-2{fill:#fe3366;}</style></defs><rect class="cls-1" width="256" height="256"/><path class="cls-2" d="M85.36,52.53v149.4H56.18V52.53Z"/><path class="cls-2" d="M146.91,203.47q-17.07,0-26.46-12.07t-9.4-34.06V140.28q0-22.2,9.4-34.37t26.46-12.18a26,26,0,0,1,15.56,5.09,35.86,35.86,0,0,1,11.36,14.44l-2.16,23.63a21,21,0,0,0-1.85-9.25,13.09,13.09,0,0,0-5.39-5.81,17.28,17.28,0,0,0-8.58-2q-7.92,0-12.28,5.4t-4.37,15.15v17q0,9.56,4.37,14.79t12.28,5.24a17.6,17.6,0,0,0,8.58-2,12.86,12.86,0,0,0,5.39-5.65,19.88,19.88,0,0,0,1.85-8.94l1.44,24.35a26.56,26.56,0,0,1-26.2,18.29Zm24.76-1.54V52.53h28.15v149.4Z"/></svg>