<svg id="Layer_1" data-name="Layer 1" xmlns="http://www.w3.org/2000/svg" viewBox="0 0 202.76 156.44"><defs><style>.cls-1{fill:#0070b9;}</style></defs><path class="cls-1" d="M221.38,69.2c-.92,3.52-2.1,6.92-4.53,9.76-.28.33-.09,1.23.11,1.79,1.51,4.34.84,8.28-2.42,11.52a9.88,9.88,0,0,1-11.3,2.32c-1.28-.51-1.88-.09-2.68.72q-11.67,11.75-23.38,23.44c-7.51,7.53-15.08,15-22.5,22.62-2.28,2.33-4.67,4.25-7.88,5-1.17.26-1.54.88-1.52,2.09.08,4,0,7.92,0,12.18h17.26c.53,0,1.06,0,1.59,0,2,.19,3.16,1.37,3.06,3.16s-1.22,2.73-3.22,2.75c-5.41,0-10.83,0-16.24,0h-2.45v3.63c0,3.7,0,7.41,0,11.11,0,2.17-1.18,3.44-3,3.43s-2.92-1.26-2.93-3.46c0-4.82,0-9.63,0-14.71-2.26,0-4.36,0-6.45,0-2.33,0-3.68-1.13-3.67-3s1.38-2.94,3.7-3c2,0,4.08,0,6.27,0V149.08L126,153.77a12.82,12.82,0,0,1-2.8.94c-1.41.15-3.21.54-4.22-.12-2.3-1.52-3.86-.39-5.67.69-2.75,1.66-5.56,3.24-8.76,5.09.91.11,1.37.22,1.84.22,4.22,0,8.45,0,12.67,0,.79,0,1.83-.11,2.29.32a5.72,5.72,0,0,1,1.83,2.91c.23,1.36-.79,2.34-2.18,2.6a12.47,12.47,0,0,1-2.37.11h-72v12.33c0,.85,0,1.72,0,2.57-.11,2.11-1.17,3.26-3,3.27s-2.92-1.15-2.95-3.25c-.06-4.16,0-8.33,0-12.49v-2.32c-.91,0-1.61-.1-2.31-.1H22.46c-2.51,0-3.87-1.08-3.84-3s1.39-3,3.9-3c5.22,0,10.43,0,15.65,0h2.29V52.4H33.68c-3.83,0-7.66,0-11.49,0-2.29,0-3.63-1.25-3.57-3.09s1.34-2.82,3.57-2.83c5.35,0,10.69,0,16,0h2.38v-9.7c0-1.65,0-3.3,0-5,.05-2.28,1.06-3.47,2.89-3.5s3,1.2,3,3.58c0,4.17.09,8.34,0,12.5,0,1.65.45,2.19,2.11,2.11,2.63-.13,5.28-.06,7.92,0,2.13,0,3.32,1,3.4,2.78s-1.14,3.08-3.3,3.13c-3.28.08-6.56,0-10,0v20.3L81,52.9l0-.5H77.55c-2.64,0-5.28,0-7.92,0-2.36,0-3.64-1.15-3.64-3s1.25-2.92,3.66-2.93q33.46,0,66.93,0h2.79V35.82c0-1.53,0-3,0-4.57a2.86,2.86,0,0,1,3-3,2.91,2.91,0,0,1,2.89,3.13c.06,3.9,0,7.8,0,11.7v3.34h10.26c2.71,0,5.42,0,8.12,0,2.29,0,3.49,1,3.53,2.84s-1.21,3.06-3.55,3.08c-5.41,0-10.82,0-16.24,0-.64,0-1.28.06-2,.09V96.66c.57-.53,1-.85,1.3-1.2Q160.16,82,173.62,68.54a2.4,2.4,0,0,0,.73-3,10,10,0,0,1,2.41-11.14A10.11,10.11,0,0,1,188.07,52a2.36,2.36,0,0,0,2.63-.31A18.9,18.9,0,0,1,221,62.93a11.11,11.11,0,0,0,.37,1.11ZM126.28,116c4.48-4.5,8.58-8.58,12.61-12.72a2.85,2.85,0,0,0,.46-1.82c0-5.89,0-11.77,0-17.66a6.61,6.61,0,0,0-3.58-6.16q-19.71-11.39-39.4-22.8a6.38,6.38,0,0,0-6.91,0Q69.71,66.29,49.91,77.7a6.19,6.19,0,0,0-3.34,5.68v46.23a6.18,6.18,0,0,0,3.34,5.67q19.8,11.44,39.56,22.91a6.31,6.31,0,0,0,6.75.09c5.6-3.24,11.2-6.46,16.78-9.73a2.56,2.56,0,0,0,1.07-1.25c.93-2.6,1.75-5.25,2.65-7.87,1.1-3.22,2.25-6.43,3.52-10.06-1,.5-1.53.77-2.07,1.08-6.17,3.56-12.35,7.11-18.5,10.7a12.46,12.46,0,0,1-13.49,0q-9.83-5.74-19.7-11.39c-4.53-2.59-6.86-6.37-6.83-11.65q.08-11.61,0-23.21a12.36,12.36,0,0,1,6.68-11.53q10-5.7,19.88-11.49a12.44,12.44,0,0,1,13.48,0q9.9,5.81,19.87,11.5a12.54,12.54,0,0,1,6.73,11.72c0,6.15,0,12.3,0,18.45Zm-60.67-9.4c0,4,0,7.93,0,11.9a6.28,6.28,0,0,0,3.4,5.84l20.54,11.9a6.35,6.35,0,0,0,6.76,0q10.29-5.94,20.56-11.88a6.49,6.49,0,0,0,3.48-6V94.73a6.49,6.49,0,0,0-3.44-6q-10.2-5.88-20.37-11.8a6.56,6.56,0,0,0-7.11,0C82.7,80.79,76,84.7,69.21,88.55a6.59,6.59,0,0,0-3.62,6.32C65.65,98.77,65.6,102.67,65.61,106.57ZM190.07,83.21c-.36.35-.85.79-1.31,1.25-2.25,2.24-4.47,4.51-6.73,6.73-1.59,1.56-3.24,1.68-4.55.43s-1.16-3.05.41-4.69c.54-.58,1.11-1.13,1.67-1.69l6.13-6L179,72.52l-44.17,44.2c3.2.84,5.29,3.28,6.59,7.27a23.58,23.58,0,0,1,1.61-2.16Q154.88,110,166.72,98.12a9.25,9.25,0,0,1,1.63-1.44c1.29-.78,2.76-.68,3.52.56a6,6,0,0,1,.42,3.43c0,.59-.84,1.13-1.35,1.64q-11.74,11.79-23.53,23.55a12.49,12.49,0,0,1-2.13,1.41l.42.63a9.27,9.27,0,0,1,6.79,6.7L197,90.09ZM184.4,56.86c-2.2.42-3.64,1.38-4.4,3.16a4.54,4.54,0,0,0,1.07,5.28q11.24,11.3,22.5,22.54c2.15,2.13,5,2.12,6.86.16s1.82-4.7-.34-6.88Q199,69.94,187.84,58.88A15.8,15.8,0,0,0,184.4,56.86ZM105,52.51l-.1.36,34.34,19.87V52.51ZM46.67,140.28v20.19H80.86l.11-.34Zm89-13.25a16.48,16.48,0,0,0-.33-2.3c-.47-1.77-1.9-2.49-4.37-2.68-1.79-.14-2.19.93-2.64,2.25-1.23,3.62-2.59,7.2-3.77,10.83a2.67,2.67,0,0,0,.45,2.2c2.19,2.38,4.5,4.65,6.84,6.87a2.18,2.18,0,0,0,1.83.43c4.06-1.36,8.08-2.82,12.11-4.29a1.84,1.84,0,0,0,1-.75,4.46,4.46,0,0,0-3.54-6.05,25.2,25.2,0,0,0-4.33.23c-2.25.22-3.7-1.07-3.6-3.33C135.42,129.38,135.56,128.33,135.69,127Zm76.87-52.46c4.24-4.78,3.8-12.67-1.12-17.39s-12.82-4.87-17-.78Zm-90.74,68.32c-.53,1.47-1.1,2.89-1.57,4.35s.13,2.08,1.54,1.68,3-1,4.59-1.63Z" transform="translate(-18.62 -28.28)"/></svg>