<svg id="Layer_1" data-name="Layer 1" xmlns="http://www.w3.org/2000/svg" viewBox="0 0 160.42 143.28"><defs><style>.cls-1{fill:#0070b9;}</style></defs><path class="cls-1" d="M133.67,54.68c4.92,0,9.1-.07,13.29,0,8.65.16,13.44,3.86,13.45,10.59q.06,27.72,0,55.45c0,6.8-5,10.71-13.78,10.72q-64,.06-128.07,0C7.13,131.44,0,125.81,0,117V14.49C0,5.64,7.15.06,18.57,0Q50.48,0,82.39.1A10.69,10.69,0,0,1,88.22,2q21.87,16.59,43.36,33.47a5.67,5.67,0,0,1,2,3.94C133.81,44.32,133.67,49.27,133.67,54.68ZM82.34,3.92h-63c-9.52,0-14.19,3.6-14.19,10.92V116.65c0,7.32,4.66,10.91,14.18,10.92H79.78c1.33,0,2.66-.09,3.46-.12-.45-4.8-.88-9.35-1.32-14-1.21-.06-2.31-.13-3.41-.13H24.35a11.82,11.82,0,0,1-3.71-.21,3.37,3.37,0,0,1-2-2.09c-.08-.42,1.28-1.25,2.17-1.49a13.42,13.42,0,0,1,3.41-.14h57.9v-7.65H24.42a11.82,11.82,0,0,1-3.33-.09,10.26,10.26,0,0,1-2.56-1.76,11,11,0,0,1,2.69-2,9.46,9.46,0,0,1,3.32-.09H82.09V90.18H24.43A15.09,15.09,0,0,1,20.69,90c-.86-.22-2-1.05-2-1.63a2.71,2.71,0,0,1,1.76-1.86,12.82,12.82,0,0,1,3.71-.22H82.07V78.77H24.73A14.19,14.19,0,0,1,21,78.63a8.06,8.06,0,0,1-2.47-1.78,8.37,8.37,0,0,1,2.42-1.77A14.62,14.62,0,0,1,24.68,75H82V67.3H24.28A11,11,0,0,1,21,67.18c-.94-.32-2.24-1.19-2.25-1.85S20,63.86,21,63.54a11.05,11.05,0,0,1,3.32-.1H82c3.36-7.16,6.26-8.75,15.63-8.77h30.77V40.12a4.87,4.87,0,0,0-1.07-.31c-9,0-17.92-.29-26.86,0-10.85.32-19.86-5.35-18-17.06.12-.77,1.67-1.38,2.55-2.07.79.77,2,1.44,2.27,2.32.38,1.45,0,3,.14,4.52a8.91,8.91,0,0,0,8.65,8c9.28.4,18.61.12,27,.12L87.4,8c0,.84.35,2.09-.1,3.13s-1.68,1.81-2.57,2.7c-.8-.87-2.14-1.68-2.28-2.6A52.33,52.33,0,0,1,82.34,3.92ZM87.4,93v27.56c0,4.94,2.53,7,8.77,7q25.18,0,50.38,0c6,0,8.72-2.1,8.73-6.75V65.36c0-4.67-2.64-6.84-8.59-6.86q-25.4-.07-50.8,0c-5.83,0-8.47,2.16-8.49,6.6C87.38,74.39,87.4,83.69,87.4,93Z" transform="translate(-0.02 0.01)"/><path class="cls-1" d="M23.52,25.92H63a36.64,36.64,0,0,1,.11-6.37c.17-1,1.49-1.79,2.29-2.67.89.93,2.27,1.73,2.57,2.79a16,16,0,0,1,.1,5c-.21,3.84-2.37,6.08-6.57,6.13q-18.21.2-36.43,0c-4.36-.06-6.47-2.4-6.59-6.5,0-1.29-.35-2.7.08-3.86.49-1.34,1.67-2.39,2.55-3.57.81,1.24,2,2.41,2.33,3.77C23.83,22.23,23.52,24,23.52,25.92Z" transform="translate(-0.02 0.01)"/><path class="cls-1" d="M63,41.27H56.73c-9.93,0-19.87.06-29.81,0-2.47,0-3.76.6-3.4,3.06a2,2,0,0,1,0,.78c-.41,2,1.33,5.47-2.67,5.38-3.59-.07-2.3-3.29-2.34-5.26-.14-7,1.66-8.6,9.37-8.61H59.79c5,0,9.12,3.74,9.15,8.41a8,8,0,0,1-1.24,4.29c-.39.64-1.79,1.39-2.28,1.19-1-.41-2.18-1.37-2.31-2.24A48.1,48.1,0,0,1,63,41.27Z" transform="translate(-0.02 0.01)"/><path class="cls-1" d="M45.67,67c-7.69,0-15.39.11-23.07-.1-1.38,0-2.71-1.41-4.07-2.18,1.36-.79,2.7-2.28,4.07-2.29q23.28-.26,46.57,0c1.34,0,2.67,1.5,4,2.3-1.34.76-2.65,2.13-4,2.17C61.34,67.12,53.5,67,45.67,67Z" transform="translate(-0.02 0.01)"/><path class="cls-1" d="M121.06,118.25c-7.13,0-14.25-.07-21.37,0-3.16,0-4.68-1-4.56-4.08.14-3.36.07-6.74,0-10.11,0-2.45,1.25-3.52,3.84-3.51H143.8c2.68,0,3.72,1.28,3.68,3.66,0,3.37-.09,6.74,0,10.11.09,2.78-1.25,4-4.27,3.92C135.86,118.19,128.46,118.26,121.06,118.25Zm-20.68-12.78v7.88h18.07v-7.88ZM124,113.32h18.22v-7.81H124Z" transform="translate(-0.02 0.01)"/><path class="cls-1" d="M121.53,143.22c-7.14,0-14.28-.12-21.41.05-3.56.08-5.22-1-5-4.46a91.13,91.13,0,0,0,0-9.35c-.08-2.62,1.1-3.8,4-3.8q22.25,0,44.51,0c2.58,0,3.93.92,3.9,3.45,0,3.51-.07,7,0,10.52,0,2.71-1.38,3.64-4.16,3.6C136.09,143.17,128.81,143.22,121.53,143.22Zm20.77-12.43a5.8,5.8,0,0,0-1.24-.4c-3.35,0-6.71-.07-10.06-.08-8.06,0-8.2.15-7,7.59,0,.1.17.2.39.44h17.88Zm-42,7.61h18.24v-7.81H100.33Z" transform="translate(-0.02 0.01)"/><path class="cls-1" d="M100.11,87.71h42.44a55.8,55.8,0,0,1,.11-7.65c.15-1.06,1.56-2,2.39-2.94.81.93,2.23,1.76,2.32,2.72a95.35,95.35,0,0,1,.11,9.71c0,2.3-1.44,3.12-3.81,3.12H98.83c-2.45,0-3.64-1-3.65-3.28a80,80,0,0,1,.12-9.29c.12-1.06,1.63-2,2.51-3,.76,1,2,2,2.2,3.11A54.62,54.62,0,0,1,100.11,87.71Z" transform="translate(-0.02 0.01)"/></svg>