<svg id="Layer_1" data-name="Layer 1" xmlns="http://www.w3.org/2000/svg" viewBox="0 0 167.85 142.15"><defs><style>.cls-1{fill:#0070b9;}</style></defs><path class="cls-1" d="M51.39,15.21C51.87,6,53.26,4.88,66,4.88H91.66c8.36,0,11.07,2.27,11.14,9.29v2.32l1.07-.62c3,2.72,6.38,5.2,8.8,8.22,5.82,7.3,11.28,14.79,16.63,22.32a11.63,11.63,0,0,1,2,6c.28,5,.09,10.07.09,15.78,3.67-2.07,6.74-3.77,9.78-5.53,4.78-2.75,9.51-5.57,14.31-8.3s10-2.42,13.17.71,2.8,7.37-1.4,10.84c-11.11,9.22-22.32,18.35-33.31,27.66a7.26,7.26,0,0,0-2.44,4.91c-.2,12.68-.08,25.36-.12,38,0,6.86-4.51,10.51-12.87,10.52H35.93c-8.52,0-13-3.75-13-10.84q0-41.91.09-83.83a10.9,10.9,0,0,1,2.12-5.9c5.52-7.81,11.23-15.59,17.21-23.18C44.47,20.58,47.65,18.49,51.39,15.21ZM28.88,52.29a6,6,0,0,0-.27,1v83.82c0,3.6,2.32,5.15,7.2,5.15H118.4c5.53,0,7.55-1.65,7.58-6.31.06-7.29,0-14.58,0-21.88V98.93c-.93-.1-1.42-.17-1.92-.21-6.55-.47-7.49.32-8.26,5.64-.82,5.78-4.85,9.54-11.29,11.69a17.08,17.08,0,0,0-4.47,2.14c-9.14,6.61-19.65,8.7-31.41,6.6C53.13,122,41.77,111,40.85,97.9,40.07,84.35,49.75,72.53,65,68.4c15.8-4.28,32.15.32,41,11.61.87,1.1,1.7,2.2,2.26,2.92a74.72,74.72,0,0,1,5.9-4.6c3.09-2,6.44-3.72,9.59-5.66.93-.56,2-1.47,2.06-2.25.17-6,.1-12,.1-18.11Zm94.64-4.88c-6.18-8.31-11.88-16.17-17.9-23.84-.93-1.16-3.4-2.05-5.17-2.08q-23.16-.24-46.34,0c-1.79,0-4.32.85-5.22,2-6.11,7.74-11.88,15.69-18,23.94ZM81.74,93.8c-10.59-5-25.86-1.39-33.67,6.15-.77.73-.58,2.56-.13,3.69,3.49,8.78,10.89,14.2,21.59,16.52a33,33,0,0,0,21.79-2.54c-4.09-.22-7.13-.41-10.17-.52s-4.2-1.34-3.74-3.7C78.81,107,80.26,100.51,81.74,93.8Zm-34.84.08A5.23,5.23,0,0,0,48,93.52c11.48-7.1,23.82-8.43,37.08-3.87a3.71,3.71,0,0,0,2.22.29c5.27-2.8,11-3.2,17.1-1.73-4-11.15-17.65-18-32-16.49C58.4,73.21,47.37,82.78,46.9,93.88Zm76.77.6a26.38,26.38,0,0,0,3.17-1.78c1.8-1.37,3.47-2.84,5.2-4.26q15.51-12.85,31-25.66c2.81-2.36,2.71-5-.32-5.48a7.3,7.3,0,0,0-4.34,1.09q-18.21,10.39-36.23,21c-10.29,6-10.14,4.31-1.87,12.55A31.76,31.76,0,0,0,123.67,94.48ZM82.2,113.06c7.41-.42,13.35-.5,19.18-1.17,4.9-.57,8.09-3.88,8.71-7.8.26-1.63-.27-2.42-2.07-3.42s-4.2-3.1-4.29-4.79c-.2-3.44-2.59-3.91-5.5-3.92-4.76,0-9.09,1.32-10.76,5.29-2,4.79-3.32,9.8-5.27,15.79ZM57.15,16.65h40.1V12.72c0-2-1.11-3.09-3.69-3.09-11,0-21.94-.09-32.9.13-1.2,0-2.81,1.65-3.39,2.82S57.15,15.21,57.15,16.65Zm59.12,78.6-4.56-4.49A27.46,27.46,0,0,0,109.19,95c-.14.39,1.15,1.64,1.63,1.55A39.7,39.7,0,0,0,116.27,95.25Z" transform="translate(-2.9 -4.88)"/><path class="cls-1" d="M14.32,142.16c1.23.07,2.39-.15,3.07.23.93.56,2.23,1.55,2.19,2.32a3.32,3.32,0,0,1-2.4,2.16,94.49,94.49,0,0,1-11.78,0,3.24,3.24,0,0,1-2.27-2.25c0-.78,1.43-1.65,2.37-2.18a8.18,8.18,0,0,1,2.8-.26V52.36a6.44,6.44,0,0,1-2-.23C5.11,51.49,4,50.69,2.9,50c1.24-.78,2.41-2.07,3.74-2.22a44.28,44.28,0,0,1,9.35,0c1.33.15,2.48,1.44,3.74,2.2-1.23.78-2.44,1.55-3.74,2.21a6.49,6.49,0,0,1-1.71.26Z" transform="translate(-2.9 -4.88)"/><path class="cls-1" d="M80.33,80.63c-1.81,1.1-2.81,2.2-3.92,2.23-.85,0-2.55-1.35-2.46-2a3.56,3.56,0,0,1,2.38-2.4C77.33,78.37,78.46,79.57,80.33,80.63Z" transform="translate(-2.9 -4.88)"/></svg>