<svg id="Layer_1" data-name="Layer 1" xmlns="http://www.w3.org/2000/svg" viewBox="0 0 176.69 162.24"><defs><style>.cls-1{fill:#0070b9;}</style></defs><path class="cls-1" d="M29.44,95.51V92.6c0-24,.26-48-.14-72-.15-9.29,8.12-14.95,17.54-15q27.19-.1,54.39,0a7.56,7.56,0,0,1,4,1.34q20.4,14.62,40.6,29.39a3.87,3.87,0,0,1,1.37,2.85c.08,17.86,0,35.74,0,53.61v2.68h13.24c9.91,0,16.22,5.28,16.23,13.6V145.9c0,8.25-6.38,13.63-16.23,13.64H16c-9.51,0-16-5.45-16-13.43V108.82c0-8,6.43-13.35,16-13.37C20.34,95.5,24.65,95.51,29.44,95.51ZM141,41.18h-3.48c-7.48,0-15,.09-22.45-.06S98.55,36.08,98.93,27c.19-4.6,0-9.24,0-13.82V10.82H47c-7.36,0-11.36,3.46-11.35,9.63v80.6c0,.66.1,1.33.14,2H141Zm9.74,113.17c3.8,0,7.28,0,10.75,0,5.14-.08,8.92-3,9-7.36.12-13,.09-26,0-39,0-3.59-2.75-6.61-6.89-6.93-5.31-.43-10.71-.11-16.37-.11v7.42H29.34v-7.68H16.1c-6.2,0-9.81,3-9.89,8.16v37.29c0,4.14,2.3,7.34,6.57,7.85s8.69.11,13.19.11V148c0-3.47,2.13-5.24,6.32-5.33,2,0,4,0,6,0H143.63c5.09,0,7,1.68,7.05,6C150.69,150.38,150.69,152.18,150.69,154.35ZM144.25,148H32.43v6.18H144.25ZM105.34,13.93c0,5.42-.18,10.29.11,15.11a7.09,7.09,0,0,0,2.38,4c2.25,2.18,5.39,2.93,8.76,3H135.8Z" transform="translate(0.02 -5.5)"/><path class="cls-1" d="M48.16,102.49V96.55h80.28v5.94Z" transform="translate(0.02 -5.5)"/><path class="cls-1" d="M48.23,77.46h80.3v5.92H48.23Z" transform="translate(0.02 -5.5)"/><path class="cls-1" d="M128.54,58.43V64.2H48V58.43Z" transform="translate(0.02 -5.5)"/><path class="cls-1" d="M90.69,20.2v6H48.18v-6Z" transform="translate(0.02 -5.5)"/><path class="cls-1" d="M48.19,39.27H90.61v6H48.19Z" transform="translate(0.02 -5.5)"/><path class="cls-1" d="M162.24,127a4.12,4.12,0,1,1-4.13-4.11h0A4.19,4.19,0,0,1,162.24,127Z" transform="translate(0.02 -5.5)"/><path class="cls-1" d="M162.24,145.27a4.12,4.12,0,1,1-8.24.25h0a4.12,4.12,0,1,1,8.24-.25Z" transform="translate(0.02 -5.5)"/><path class="cls-1" d="M158.11,159.54a4.1,4.1,0,1,1-4.12,4.08v-.08a4,4,0,0,1,4.1-4Z" transform="translate(0.02 -5.5)"/></svg>