<svg id="Layer_1" data-name="Layer 1" xmlns="http://www.w3.org/2000/svg" viewBox="0 0 256 256"><defs><style>.cls-1{fill:#001e36;}.cls-2{fill:#31a8ff;}</style></defs><rect class="cls-1" width="256" height="256"/><path class="cls-2" d="M57.07,177.86V77.1h19V177.86Zm8.66-39.08v-18.3H98a10.79,10.79,0,0,0,8.31-3.43,12.73,12.73,0,0,0,3.19-9q0-5.76-3.15-9.19A10.83,10.83,0,0,0,98,95.39H65.73V77.1H97.47A34.43,34.43,0,0,1,114.14,81a27.47,27.47,0,0,1,11,10.77A32.27,32.27,0,0,1,129.14,108a32.1,32.1,0,0,1-3.95,16.21A27.25,27.25,0,0,1,114.1,135a34.66,34.66,0,0,1-16.63,3.82Z"/><path class="cls-2" d="M168.09,178.9a64.77,64.77,0,0,1-18.47-2.6,46.46,46.46,0,0,1-14.93-7.24l11.71-14.62a45.94,45.94,0,0,0,10.88,5.13,35.81,35.81,0,0,0,10.81,1.8c4.43,0,7.88-.5,10.33-1.49s3.67-2.37,3.67-4.13a4.36,4.36,0,0,0-2.53-4.36,20.13,20.13,0,0,0-6.62-1.56c-2.73-.25-5.61-.59-8.66-1s-6.16-.91-9.18-1.49a29.2,29.2,0,0,1-8.29-2.84,14.5,14.5,0,0,1-6-6q-2.21-4-2.21-10.84,0-10.87,7.69-16.84t21.76-6a56,56,0,0,1,16.25,2.42,49.9,49.9,0,0,1,14.31,6.86L187.35,128a45.38,45.38,0,0,0-9.84-4.09,36,36,0,0,0-9.84-1.46,24.91,24.91,0,0,0-8.94,1.28c-2.12.86-3.18,2.09-3.18,3.71a3.32,3.32,0,0,0,2.21,3.12,19.77,19.77,0,0,0,5.82,1.49q3.61.45,7.77.93c3.18.37,6.4.83,9.63,1.36a30.17,30.17,0,0,1,8.9,2.87,16,16,0,0,1,6.55,6.31q2.5,4.23,2.5,11.64,0,11.3-8.08,17.53T168.09,178.9Z"/></svg>