<svg id="Layer_1" data-name="Layer 1" xmlns="http://www.w3.org/2000/svg" viewBox="0 0 260.46 260.46"><defs><style>.cls-1{fill:#fa0f00;}</style></defs><path class="cls-1" d="M54.77,127l.15.3c.35.11.71.2,1.08.28C55.6,127.39,55.19,127.2,54.77,127Z" transform="translate(10.23 23.73)"/><path class="cls-1" d="M93.66,39.3a13,13,0,0,1-4.41,2.23l-.41.12h0a133.46,133.46,0,0,0-32,11.51A113.16,113.16,0,0,1,58.6,76.73c-.44,5.14-.74,10.16-.84,15-.64.19-1.19.24-1.82.41a7.23,7.23,0,0,0-2.32,1.11L49.75,96c1.54-16.35,1.76-32-.12-46.61,11-7.2,23.36-11.73,36.6-14.53l4.85,3.38A5.65,5.65,0,0,0,93.66,39.3Z" transform="translate(10.23 23.73)"/><path class="cls-1" d="M190.25,96l-3.87-2.77c-2-1.32-2.85-1.14-4.13-1.51-.11-4.86-.41-9.89-.85-15a112.49,112.49,0,0,1,1.74-23.57,133.55,133.55,0,0,0-32-11.51h0l-.4-.11a13,13,0,0,1-4.41-2.23,5.65,5.65,0,0,0,2.58-1l4.85-3.37c13.25,2.8,25.61,7.32,36.6,14.52C188.49,64,188.71,79.69,190.25,96Z" transform="translate(10.23 23.73)"/><path class="cls-1" d="M176.52,134.15a22.11,22.11,0,0,1-4-1.22c-4.3,5.76-10.33,11.44-18.41,17C140.68,159.43,126,169.4,120,176c-4.77-5.22-15.07-12.61-25.83-20.18l-.38-.27L85.92,150c-8.08-5.6-14.11-11.29-18.41-17.05a21.36,21.36,0,0,1-4,1.23,36.81,36.81,0,0,1-.13,4.61,213.82,213.82,0,0,0,35.16,29.67A198.45,198.45,0,0,1,120,185.51a199.43,199.43,0,0,1,21.49-17.08,213.33,213.33,0,0,0,35.16-29.67A36.75,36.75,0,0,1,176.52,134.15Z" transform="translate(10.23 23.73)"/><path class="cls-1" d="M61.13,54.52l-.89.4.14.94a126,126,0,0,1,1.21,23.66,24.78,24.78,0,0,1,2.72-2.7,130.38,130.38,0,0,0-1.2-20.36,161.78,161.78,0,0,1,25.8-9.06,13.81,13.81,0,0,1,2-3.12A160.87,160.87,0,0,0,61.13,54.52Z" transform="translate(10.23 23.73)"/><path class="cls-1" d="M112.67,162.3a.44.44,0,0,1-.29.09h-.6v-.77Z" transform="translate(10.23 23.73)"/><polygon class="cls-1" points="135.31 186.82 135.31 186.82 135.3 186.82 135.31 186.82"/><path class="cls-1" d="M127.59,161.76v.29a.37.37,0,0,1-.09.27.33.33,0,0,1-.26.1.33.33,0,0,1-.25-.09.41.41,0,0,1-.09-.28v-.36a.4.4,0,0,1,.09-.23.28.28,0,0,1,.25-.11h.1a.27.27,0,0,1,.16.1A.45.45,0,0,1,127.59,161.76Z" transform="translate(10.23 23.73)"/><path class="cls-1" d="M142.12,150.6l-1.76,1.49-.45.08,1.9-1.38h0l.16-.12Z" transform="translate(10.23 23.73)"/><path class="cls-1" d="M178.53,54.92l-.89-.4a163.16,163.16,0,0,0-28.24-9.89,14.21,14.21,0,0,1,1.85,3.13,163.42,163.42,0,0,1,24.41,8.7,130.84,130.84,0,0,0-1.22,19.33c.94.75,1.85,1.53,2.69,2.35a126.12,126.12,0,0,1,1.27-22.28Z" transform="translate(10.23 23.73)"/><path class="cls-1" d="M163,123.93c-.76,3.91-2,7.68-6,10.76a26.21,26.21,0,0,0-7.28,8.81c.7-3.21,2.44-6.59,5.82-10.24a14.47,14.47,0,0,0,3.28-6.47,9.19,9.19,0,0,1-1.33,5.63A28.23,28.23,0,0,0,163,123.93Z" transform="translate(10.23 23.73)"/><path class="cls-1" d="M160.38,115.88c2.89,8.77,7.48,15.78,17.29,17.35-.41,7.75,1.37,13.8,4.61,18.71a37.39,37.39,0,0,1-2.92-18.84,10.14,10.14,0,0,0,3.44-.78,9.53,9.53,0,0,1-3.31-.26,21,21,0,0,0,7.47-4.75C175.35,134,167,128.16,160.38,115.88Z" transform="translate(10.23 23.73)"/><path class="cls-1" d="M168.54,100.07c-1.63,2.15-2.74,5.31-2.49,11.23a24.14,24.14,0,0,1-.37-7.92c-3.21,8.26-.41,20.74,9.19,22.72a26.16,26.16,0,0,1-7.28-10,23.53,23.53,0,0,0,10.33,10.23c3.51.67,6.31.38,8.43-.83,1-3.11,1.08-7,.46-11.57.92,3.65,1.6,7.2,1.22,10.33,4.05-11.82-7.43-24.05-13.86-24.34a34.47,34.47,0,0,1,8.89,8.48C177.42,102.45,172.6,99.74,168.54,100.07Z" transform="translate(10.23 23.73)"/><path class="cls-1" d="M177,98.78c3.09,1.24,6.05,2.75,8,6.19a13.33,13.33,0,0,1,6.24,2C187.36,98.66,182.64,95.72,177,98.78Z" transform="translate(10.23 23.73)"/><path class="cls-1" d="M181.6,96.34c4.2.84,8.09,3.29,11,10.92a39.9,39.9,0,0,1,5.55,4.8c.17-7.26-3.21-11.32-7.6-14.46l3.61,5.54C189.94,97.33,185.77,95.41,181.6,96.34Z" transform="translate(10.23 23.73)"/><path class="cls-1" d="M186.59,107.23c4.2,6.08,8.37,12.17,8.25,18.25a23.6,23.6,0,0,0-1.93-5.43,50.41,50.41,0,0,1-.18,9.62,23.65,23.65,0,0,0-2-11.76,36.43,36.43,0,0,1-1.17,10,87.31,87.31,0,0,0-.66,10.16,41.24,41.24,0,0,0,1.83-5,64.25,64.25,0,0,0-1.44,11.65,59.75,59.75,0,0,0,.53,8.73l.72.21a20.58,20.58,0,0,0,4.87-9.53,92.63,92.63,0,0,0,2.55-15.37,55.56,55.56,0,0,1-.89,13.41,25,25,0,0,0,3.79-11.51,36.59,36.59,0,0,0-2.05-10.54,42.05,42.05,0,0,1,2.63,7.76,14.57,14.57,0,0,0-.84-8C196.86,112,192.05,108.36,186.59,107.23Z" transform="translate(10.23 23.73)"/><path class="cls-1" d="M190.85,154.42" transform="translate(10.23 23.73)"/><path class="cls-1" d="M187.79,129c-7.35,4.36-7.25,15.69-2.73,22.39-1-2.65-1.26-6.27-1.27-10.18A32,32,0,0,0,187,152.44l1.63.49a86.76,86.76,0,0,1-1.14-15.87l-.71,3.76C186,137.61,186.66,133.47,187.79,129Z" transform="translate(10.23 23.73)"/><path class="cls-1" d="M203.92,138.48A73.79,73.79,0,0,1,193,154.68a23.73,23.73,0,0,1,4.56,3.22,56.23,56.23,0,0,1,3.8-7.43,17.15,17.15,0,0,0-3.73,3.14C201.37,148.18,204.33,142.93,203.92,138.48Z" transform="translate(10.23 23.73)"/><path class="cls-1" d="M206.46,129.41A31.83,31.83,0,0,1,205,135c.61,6.54-1.24,14.42-6.3,23.24C205.29,148.77,208.26,139.24,206.46,129.41Z" transform="translate(10.23 23.73)"/><path class="cls-1" d="M199.18,113.81a34.75,34.75,0,0,1,3.95,8.49,9.87,9.87,0,0,1,.25,3.67,63.48,63.48,0,0,1-7.44,22c4.28-6.26,8.21-12.61,9.33-19.71a10.57,10.57,0,0,0-.46-5.11A26.44,26.44,0,0,0,199.18,113.81Z" transform="translate(10.23 23.73)"/><path class="cls-1" d="M148.93,145.59a28.56,28.56,0,0,1-.38-4.68c-2.25,1.07-2.63,4.94-4.24,6.08a30.47,30.47,0,0,0,1.94-4.66c1-1.78,3-2.72,2.3-5.38-1.26,1.8-5.41,4.78-8.72,7.78a14.37,14.37,0,0,0-3.75,7.88c3.66-2,5-5.86,7.17-6.48-2.23,2.57-2.23,4.7-5,6.25-12.36,6.09-24.55,6.28-36.54,0-2.75-1.55-2.75-3.68-5-6.25,2.19.62,3.51,4.53,7.17,6.48a14.37,14.37,0,0,0-3.75-7.88c-3.31-3-7.46-6-8.72-7.78-.69,2.66,1.32,3.6,2.3,5.38A30.47,30.47,0,0,0,95.69,147c-1.61-1.14-2-5-4.24-6.08.13,2.18-.49,4.16-.4,5.56l.74.55a9.9,9.9,0,0,1,.41-3,7.3,7.3,0,0,0,.58,3.68h0c1.11.82,2.21,1.62,3.29,2.4h0l.11.08,1.7,1.23.43.31,2.05,1.48.13.09,3.34,2.42c2.52,1.83,4.93,3.59,7.2,5.29V159h1.38a1.14,1.14,0,0,1,.79.26,1,1,0,0,1,.28.73v.22a.75.75,0,0,1-.19.52.84.84,0,0,1-.52.27.8.8,0,0,1,.76.85v.29a1,1,0,0,1-.23.68c2.19,1.69,4.23,3.33,6.07,4.91q2.61-2.24,5.69-4.6h-.76l.8-3.44h-.6v.55h-.72V159h2.12v.52l-.83,3.6c.36-.28.72-.56,1.1-.84a1.5,1.5,0,0,1,0-.22v-.27a2.52,2.52,0,0,1,.07-.56,4.36,4.36,0,0,1,.2-.53l.74-1.7H128l-.73,1.69h.13a.9.9,0,0,1,.63.21c2.19-1.63,4.5-3.33,6.92-5.08l3.12-2.26.36-.25c.49-.36,1-.73,1.5-1.09h0l1.9-1.38h0l.16-.12c1.84-1.33,3.73-2.71,5.64-4.12a7.81,7.81,0,0,0,.17-2.47,11.07,11.07,0,0,1,.39,2.07C148.43,146,148.68,145.77,148.93,145.59ZM116.49,162a1,1,0,0,1-.34.83,1.42,1.42,0,0,1-1,.3,1.63,1.63,0,0,1-.61-.1,1.07,1.07,0,0,1-.44-.31,1.29,1.29,0,0,1-.24-.5l.69-.31a.7.7,0,0,0,.24.38.68.68,0,0,0,.4.13.57.57,0,0,0,.38-.11.36.36,0,0,0,.14-.3v-.19a.31.31,0,0,0-.09-.24.7.7,0,0,0-.24-.15,2,2,0,0,0-.32-.11l-.38-.13a1.55,1.55,0,0,1-.36-.19.82.82,0,0,1-.26-.32,1.12,1.12,0,0,1-.1-.52v-.11a1,1,0,0,1,.33-.83,1.34,1.34,0,0,1,.94-.3,1.24,1.24,0,0,1,.76.22,1.08,1.08,0,0,1,.4.66l-.65.31a.89.89,0,0,0-.22-.36.52.52,0,0,0-.33-.12.58.58,0,0,0-.37.1.36.36,0,0,0-.13.28v.14a.41.41,0,0,0,.1.27.88.88,0,0,0,.27.16l.34.11.38.14a1.35,1.35,0,0,1,.33.19,1,1,0,0,1,.25.31,1.16,1.16,0,0,1,.09.49Zm4.06,1.09h-2.18v-.67l1.13-1.66a2.74,2.74,0,0,0,.21-.42,1,1,0,0,0,.07-.35v0a.36.36,0,0,0-.08-.24.33.33,0,0,0-.25-.08.28.28,0,0,0-.25.11.49.49,0,0,0-.11.32v.08h-.76v-.08a1.29,1.29,0,0,1,.31-.86,1.11,1.11,0,0,1,.8-.29,1.14,1.14,0,0,1,.82.26,1,1,0,0,1,.28.77v0a1.82,1.82,0,0,1-.1.54,2.92,2.92,0,0,1-.29.59l-.84,1.26h1.24Zm2.73-1a1.13,1.13,0,0,1-.28.8,1.1,1.1,0,0,1-.82.28,1.08,1.08,0,0,1-.81-.28,1.1,1.1,0,0,1-.28-.8V160a1,1,0,0,1,1.09-1.08,1.1,1.1,0,0,1,.82.28,1.13,1.13,0,0,1,.28.8Z" transform="translate(10.23 23.73)"/><path class="cls-1" d="M142.12,150.6l-1.76,1.49-.45.08,1.9-1.38h0l.16-.12Z" transform="translate(10.23 23.73)"/><path class="cls-1" d="M149.58,130.51a15.65,15.65,0,0,1-4.36,8.86c-2.85,2.75-5.88,2.87-7.08,5-.25-6.73,6.61-6.24,8.15-12.3a14.22,14.22,0,0,1-3.77,4.29,12.76,12.76,0,0,0,2.2-4.7l-5.88,7.62c-.28-7.6,6.53-10.15,5-15.19,0,1.75-.22,3.29-1.08,4.06-.13-3.31-2.43-4.6-3.21-7.89,2.46,1.43,4.78.89,7.47,1.49,1.65.46,2.39,1.84,2,4.39a6.06,6.06,0,0,0-.14-4.5c.91-.67,1.49-.49,1.69.68a21.92,21.92,0,0,1-3.3,11.11A10.84,10.84,0,0,0,149.58,130.51Z" transform="translate(10.23 23.73)"/><path class="cls-1" d="M186.73,95.4c-1.32-.66-7.16-1.19-8-1.05.22-.42,1.23-1.72,2.11-1.72C182.45,92.72,184.49,93.86,186.73,95.4Z" transform="translate(10.23 23.73)"/><path class="cls-1" d="M178.3,94.36c4.74-8.6.76-13.48-4.62-17.76C177.4,82.1,179.88,87.85,178.3,94.36Z" transform="translate(10.23 23.73)"/><path class="cls-1" d="M159.3,76.6c6.82-4.8,19.18-.49,17.67,16.89-.32-4.22-1.31-8.38-5.34-12.31,4.45,7.21,4.87,12.43,3.56,16.79C173.33,85.06,167.7,78.49,159.3,76.6Z" transform="translate(10.23 23.73)"/><path class="cls-1" d="M173.31,98.14a24.73,24.73,0,0,0-7.53-13c3.27,4.43,5.34,8.71,5.92,12.82-3.21-.74-5.48-3.11-7.19-6.43.92,3,2.16,5.56,4.56,6.92-8.58-2.19-3.26-14.16-20.69-17.33,2.85-2.43,6.86-2.29,12.47,1.39-1.13-1.43-2.23-2.86-7.23-3.9C163.83,73.94,174.65,89.71,173.31,98.14Z" transform="translate(10.23 23.73)"/><path class="cls-1" d="M135.49,82.72a87,87,0,0,1,8.69.65,46.14,46.14,0,0,0-9.36.35,12.9,12.9,0,0,1-1.72,3.07,34.35,34.35,0,0,1,5.78.73h-6.2l-1.24,1.91.41-1.65-1,.1a7.67,7.67,0,0,1-3.1,1.82l.91-1.46-.62.19a26.4,26.4,0,0,1-1.9,3.25,25.71,25.71,0,0,1,8.09-.63,43.44,43.44,0,0,0-10.91,2.5l-.17,1.29c-.22-.14-.27-.53-.28-1a3.87,3.87,0,0,0-1.7,2c0,.31,0,1.38.22,1.5a28.81,28.81,0,0,1,18.67-2.54c5.7,1,11.8,4.46,18.23,10.14,1.5-3.51-3.8-7.82-12.38-12.52,5.78,2.49,10.76,5.49,13.88,9.69-.69-5.67-4.26-10.31-10.47-14,4.5,2,8.17,4.73,10.47,8.5a20.08,20.08,0,0,0-6.63-10c5.76,4.32,9.23,9.48,8.48,16.18-.75,3.56-5.2,8.39-9.46,10.08,2.26-.12,4.88-1.94,6.05-2.77-4.53,5.32-10.56,7.44-18.65,5.2,4.56,1.86,9,2.49,13.16.88-11.49,6.24-17.12-4-30.65-4.39,13.07,2.73,16.53,11,28.83,7.48,6-3.31,10.7-8.62,12.9-17.74C164.21,91.44,153.62,78.62,135.49,82.72Z" transform="translate(10.23 23.73)"/><path class="cls-1" d="M164.59,73.73c-4,0-6,2.55-10.11.93a3.47,3.47,0,0,0,1.43,1.15c-1.87.91-4,.77-6.64-1.22A6.46,6.46,0,0,1,151,77.65a37.56,37.56,0,0,0-5.51-5.48,4.1,4.1,0,0,0,.18-1.67c2.64,1.1,5.39,2.21,6.45,3.07,0-.62-.63-1.27-1.46-1.92a9.19,9.19,0,0,1,3.41-.73A38.19,38.19,0,0,0,150,68.27C155.54,69.8,160.91,71.41,164.59,73.73Z" transform="translate(10.23 23.73)"/><path class="cls-1" d="M149.26,78.13a27.68,27.68,0,0,0-4-5l-.32.59-.14-1-.88-.75L144,73.5A18.15,18.15,0,0,1,149.26,78.13Z" transform="translate(10.23 23.73)"/><path class="cls-1" d="M144.05,73.71A35.56,35.56,0,0,1,142.68,78c.17-1.29,0-5.32-1.27-6.71a16.75,16.75,0,0,1-.71,6.15c3.18,2.88,4.88,2.48,6.57,2.07C147.35,77.31,146.11,75.43,144.05,73.71Z" transform="translate(10.23 23.73)"/><path class="cls-1" d="M140.35,75.2a10.84,10.84,0,0,0,.15,1.92,2.61,2.61,0,0,0-.61-.56A7.86,7.86,0,0,0,140.35,75.2Z" transform="translate(10.23 23.73)"/><path class="cls-1" d="M139.58,77.32a.78.78,0,0,1-.2.52c.65.5,1.58,1.25,2.58,2C141,78.92,140.18,78,139.58,77.32Z" transform="translate(10.23 23.73)"/><path class="cls-1" d="M157.5,106.77a26.79,26.79,0,0,1-15.87-2c3,2.56,7.4,3.71,12.41,4.26-4.38,1.41-9.44,1.59-16.26-1.46A26.84,26.84,0,0,0,150,111.4c-3.91,2.82-9,3.49-15.89,1.07-3.75-1.24-7.25-2.36-10.09-3.17a6.21,6.21,0,0,1-2.24-4.11c2.61-2.65,6.53-2.29,11.11-.39a11.7,11.7,0,0,0-10.84-1.47c-1.49-4,6.84-6.26,13.08-3.7-3.77-2.5-8.13-2.76-13.21-.34,4.89-4.55,11.16-5,18.16-3.34C146.82,98.31,152.78,101.69,157.5,106.77Z" transform="translate(10.23 23.73)"/><path class="cls-1" d="M138.34,127.51c2-.76,2-1.76,1.32-2.85-.7,3.74-5.09,0-7.88-.39-5.3-.73-9.31,1.09-10.58-4,0,2,.59,3.37,2.64,4.07-3.84.82-4.14-4.76-2.53-6.44,3-2.53,6.87-2,11.23,0,4.35,2.68,8.23,5.41,8.31,8.65C140.84,127.41,140,127.69,138.34,127.51Z" transform="translate(10.23 23.73)"/><path class="cls-1" d="M136,136.45a4.41,4.41,0,0,0,1.9-5.33c-.06,3.12-1.83,4.33-4.75,4.24-2.26-1.47-4.91-1-8.07-1.44a4.47,4.47,0,0,1-2.92-3.56,4,4,0,0,0,2.1,4.31c-2.58.66-3.46-1.14-3.29-4.48.81-3.24,4.27-4.74,10.23-4.58,4,.54,6.67,2.54,7.75,6.09C139.4,134.32,138.45,135.93,136,136.45Z" transform="translate(10.23 23.73)"/><path class="cls-1" d="M132.72,153.72a6.94,6.94,0,0,0,1.31-3.18c-1,3.2-3.18,4.14-5.75,4.43-2.84.35-4.78-.44-5.91-2.27.26,1,.3,1.94,2.82,2.71-3.78.61-4-1.91-3.34-5.27,1.71-2.85,4.89-3.47,8.84-2.9,3.18.55,4.53,1.91,4,4.09A3.82,3.82,0,0,1,132.72,153.72Z" transform="translate(10.23 23.73)"/><path class="cls-1" d="M133.15,146.77a4.51,4.51,0,0,0,2.7-4.31,4.72,4.72,0,0,1-4.31,3.88,20.63,20.63,0,0,0-6.29-.71c-2.21-1.16-3-3.1-2.57-5.69a6.58,6.58,0,0,0,1.33,6.13c-2.62-1-3.35-3.46-2.13-7.51,1.48-2,4.05-2.59,7.22-2.46a10.19,10.19,0,0,1,6.75,3.23C137.47,144.29,136.14,146.35,133.15,146.77Z" transform="translate(10.23 23.73)"/><path class="cls-1" d="M155,130.45c-.54-.48-2.13.94-3.75,1.9a4.64,4.64,0,0,0-1.17,4.16c.85.34,2.05-.76,3.44-2.6C154.68,132.48,155.3,131.28,155,130.45Z" transform="translate(10.23 23.73)"/><path class="cls-1" d="M151.17,130.76a4.54,4.54,0,0,1,.87-4.23,23.05,23.05,0,0,1,4.94-2.29c.58.49.07,1.73-2.16,4.18C153.43,129.9,152.13,131,151.17,130.76Z" transform="translate(10.23 23.73)"/><path class="cls-1" d="M153.78,119.56c2.35-1.12,5-2.47,5.25-2,.95,1.12-1.36,3.44-3.62,5.75-2,1.58-3.25,2.14-3.56,1.35C151.77,122.22,152.5,120.61,153.78,119.56Z" transform="translate(10.23 23.73)"/><polygon class="cls-1" points="153.4 48.99 146.44 49.81 147.78 47.92 153.4 48.99"/><path class="cls-1" d="M141,26.2c-1.18,1-2.82.19-4.41.55s-1.74,1.42-2.63,2.36l.38.57c.56-1,1.18-1.5,1.88-1.46a2.65,2.65,0,0,0-1.53,1.67,6,6,0,0,1,2.6-1.42,7.16,7.16,0,0,0,2.41-.94A3.8,3.8,0,0,1,138,28.67a3.34,3.34,0,0,0,2.06-.13,4.33,4.33,0,0,1-1.39.61,4.2,4.2,0,0,0,1.64-.1,2.22,2.22,0,0,1-1.56.48c.22.23.41.45.39.59a5.17,5.17,0,0,0,1.28-.08c.5.8.51,1.4.12,1.85-.07,1.91-1,2.6-2.3,2.63a7,7,0,0,1,.89-1.41c-1.16.27-1.86,1.7-2.05,2a2.09,2.09,0,0,1,.15-1.26,2.48,2.48,0,0,0-1,1.81h2.38c1.34,0,2-1.34,2.8-3.5L141.18,29A5.35,5.35,0,0,0,141,26.2Z" transform="translate(10.23 23.73)"/><path class="cls-1" d="M134.06,30.59c-.07.34-.87.31-.89,0l-.25,1.05a2.83,2.83,0,0,1,1.14.13Z" transform="translate(10.23 23.73)"/><path class="cls-1" d="M135.77,31.81a3.06,3.06,0,0,1-2.81,0,2.26,2.26,0,0,0,.21,1.35A2.78,2.78,0,0,0,135.77,31.81Z" transform="translate(10.23 23.73)"/><path class="cls-1" d="M134.13,34.09a2.22,2.22,0,0,0,1.39-.13,1.55,1.55,0,0,1-1.14.73Z" transform="translate(10.23 23.73)"/><path class="cls-1" d="M135.77,35.07a2.45,2.45,0,0,1-1.42,0c-.25.25-.51.48-.76.69l-1.33-1a8.12,8.12,0,0,1,1.94,2.55,2.29,2.29,0,0,0,2,1.06A9.42,9.42,0,0,1,143,39.49a8.16,8.16,0,0,0-5.78-.27c3,.11,5.4.84,7.06,2.37a6,6,0,0,0,6.14,1c-5.94-1.62-6.46-6.16-13.9-5.17,4.72-2.24,7.78,2.7,11.74-.06-3.52.79-5.34-1.76-8.35-1.53-2.11.49-4,.62-5.3-.05C135.24,35.63,135.67,35.41,135.77,35.07Z" transform="translate(10.23 23.73)"/><path class="cls-1" d="M142.26,33.13l-.8.51c1.38-2.32,3.6-3.07,6.76-2.09-2,.17-3.87.61-5.05,1.9a6.36,6.36,0,0,0,5.85.72c-2.93,3-6.05-.49-8.51,1A22.56,22.56,0,0,0,142.26,33.13Z" transform="translate(10.23 23.73)"/><path class="cls-1" d="M135,38.68c1.63,2.51,12.27.28,15.82,11-1.5-2.69-3.24-4.75-5.36-5.83C152,49,149.76,54,153.38,57.81c-5.22-1.77-4.29-4.92-8.22-8.63a10.33,10.33,0,0,1,2.05,3.32c-2.91-3-6.34-4-8.6-7.61a17.58,17.58,0,0,1,5.17,3c-1.84-2.67-5.94-3.16-6.27-5.51,8.9,2.48,9.7,6.28,11.43,9.73C145.69,39.09,137.24,45.07,135,38.68Z" transform="translate(10.23 23.73)"/><path class="cls-1" d="M146.39,68.09c-.83-5.57-6.25-4.94-8.38-10.41a10.86,10.86,0,0,0,2.68,2,7.85,7.85,0,0,1-3.12-5c1.7,1.18,3.41,1.29,4.41,3.22-.28-3.13-6.46-3.25-6.08-8.86a17.36,17.36,0,0,0,6.35,4.83c-2.72-1.68-4.94-3.58-5.61-6.21a6.79,6.79,0,0,0,2.62,2.31c-3.54-3.46-2.41-5.65-3.54-8.79,2.55,1.28,1,5.61,7.84,9.34,3.55,2.12,6,5,6.62,9.13-1.45-2.3-3.06-4.21-5.4-4.5,4.8,3,6.11,6.7,4.63,10.94-1-3.54-3.12-5.25-5.37-6.73,2.89,2.67,4.14,4.62,3.47,7.34-.74-2.73-2.58-4.28-4.56-5.67C144.23,63.17,147.08,64.53,146.39,68.09Z" transform="translate(10.23 23.73)"/><path class="cls-1" d="M145.19,68c-.26-5.45-6.24-3.68-8.06-11.49-.76,3.44.58,5,3.3,9.83-1.83-2.82-2.93-3.24-3.72-6a9.69,9.69,0,0,0,1.23,5,9,9,0,0,1-1.77-4.58c-1.72,6.42,5.57,7.74,1.89,18.43,1.88-2.29,2.13-5.48,1.43-9.22a14,14,0,0,1,1.34,4.31c.41-2.55-.76-5-2.11-7.75,1.62,2.72,3.69,3.77,4.54,8.37a10.15,10.15,0,0,0-1.81-7.61c1.61,1.94,3.18,2.22,3.59,4.63.54-3.3-1.06-5.62-4-7.32C142.28,64.81,143.48,64.73,145.19,68Z" transform="translate(10.23 23.73)"/><path class="cls-1" d="M135.27,63c-.39,4.59,2.19,3.56,2.19,8.6a30.14,30.14,0,0,0-2.58-4.3c1.47,4.25,3.73,5.59,1.54,11.93.53-7.55-5.69-9.17-1.81-17.2a24.45,24.45,0,0,0-.17,3A7.86,7.86,0,0,1,135.27,63Z" transform="translate(10.23 23.73)"/><path class="cls-1" d="M133,63.71c-1.61.91-2.32,3.4-1.41,8.65a8.65,8.65,0,0,1-1.49-5.14c-1.38,2.9-.17,6.31,1.93,9.9-1.26-1.73-2.35-2.72-2.8-4.45-2.36,6.51,5.75,7.44,0,15.63,3.21-1.76,4-4.9,2.65-9.34.87,1.16,1.79,2.2,1.12,7,2.62-3.48,3-7.53,1.71-12a13.62,13.62,0,0,1-.17,6C134.79,70.83,131.74,72.93,133,63.71Z" transform="translate(10.23 23.73)"/><path class="cls-1" d="M128.06,75.62c-.52,3.9,1.51,4,1.3,7.3-.26,1.92-1.74,3.71-2.72,6.67,2-4,4.88-4.39,4-8.25l-.7,2.29C130.79,79,128.91,80.72,128.06,75.62Z" transform="translate(10.23 23.73)"/><path class="cls-1" d="M122.79,92.73a6.8,6.8,0,0,1-.23-1.52v0l0,0h0a6.88,6.88,0,0,0-.79,2c0,.07,0,.09,0,.1h0a6.21,6.21,0,0,0,1-.41l.06,0h0v0l0,0Zm-1,.39a8.75,8.75,0,0,1,.67-1.76,6.44,6.44,0,0,0,.21,1.37C122.51,92.81,122,93.07,121.8,93.12Z" transform="translate(10.23 23.73)"/><path class="cls-1" d="M124.3,89.54l-.09,0c-.32,1-.62,2-.79,2.85v0h0a.57.57,0,0,0,.18,0,.71.71,0,0,0,.49-.22l0,0,0,0a5.85,5.85,0,0,1,.1-2.14ZM124,92.18a.56.56,0,0,1-.5.16c.14-.63.35-1.39.58-2.15A5.36,5.36,0,0,0,124,92.18Z" transform="translate(10.23 23.73)"/><path class="cls-1" d="M126.14,88.87a14.67,14.67,0,0,0-1.45,3.18l0,.12.11-.06a3.15,3.15,0,0,1,1-.34h0v0a17.24,17.24,0,0,1,.4-2.82l.06-.3Zm-.41,2.81a3.15,3.15,0,0,0-.91.28,14.46,14.46,0,0,1,1.26-2.77A15.38,15.38,0,0,0,125.73,91.68Z" transform="translate(10.23 23.73)"/><path class="cls-1" d="M132.32,85.72l-.67,1.35.13-.06a.78.78,0,0,0,.43-.49l.21-.77Zm-.21.77a.83.83,0,0,1-.22.33l.28-.56Z" transform="translate(10.23 23.73)"/><path class="cls-1" d="M130.15,85.77A9.54,9.54,0,0,0,129,87.18l-.09.17.17-.09a1.86,1.86,0,0,0,.79-.78l.51-1Zm-.34.66a1.69,1.69,0,0,1-.56.63,7.8,7.8,0,0,1,.71-.91Z" transform="translate(10.23 23.73)"/><path class="cls-1" d="M146.59,69.08c0,.24-.06.61-.06.61l2.13,1.16C148.51,70.8,146.59,69,146.59,69.08Z" transform="translate(10.23 23.73)"/><path class="cls-1" d="M134.55,21.63A4.51,4.51,0,0,1,131,23.56a1.5,1.5,0,0,0-.41,1.14c2.28.34,3.74-.3,4.48-1.8C135.23,22.54,135,22.1,134.55,21.63Z" transform="translate(10.23 23.73)"/><path class="cls-1" d="M134.59,24.64a6.62,6.62,0,0,1-4,.57c.11.94.75,1.32,2,1.05a2.15,2.15,0,0,1-1.11-.18C133.45,26.23,134.19,25.55,134.59,24.64Z" transform="translate(10.23 23.73)"/><path class="cls-1" d="M125.87,19.68c-1.69.83-3.05,3.15-3.68,3.39a4.65,4.65,0,0,1,2-3.13A8,8,0,0,1,125.87,19.68Z" transform="translate(10.23 23.73)"/><path class="cls-1" d="M122,23.42s4.18-3,4.18-2.91a6.64,6.64,0,0,0,.45.55l-4.17,3.58Z" transform="translate(10.23 23.73)"/><path class="cls-1" d="M122.82,24.79a3.59,3.59,0,0,0,2.09.39,5.3,5.3,0,0,1,2-1.37,4.94,4.94,0,0,0,.27-.74,7.16,7.16,0,0,0-2.47,1.23,7.6,7.6,0,0,1,2.47-2.1C125.57,22.34,124.24,23.84,122.82,24.79Z" transform="translate(10.23 23.73)"/><path class="cls-1" d="M133.7,30.44a.35.35,0,0,1-.23-.09c-1.58-1.62-9-1.85-13.48-2a.32.32,0,0,1-.31-.33.33.33,0,0,1,.33-.31c6.4.2,12.29.51,13.92,2.18a.33.33,0,0,1,0,.45A.35.35,0,0,1,133.7,30.44Z" transform="translate(10.23 23.73)"/><path class="cls-1" d="M133.7,35.32a.37.37,0,0,1-.23-.1c-1.58-1.62-9-1.85-13.48-2a.33.33,0,0,1-.31-.33.32.32,0,0,1,.33-.31c6.4.19,12.29.51,13.92,2.17a.33.33,0,0,1,0,.45A.32.32,0,0,1,133.7,35.32Z" transform="translate(10.23 23.73)"/><path class="cls-1" d="M130.7,31.06a.21.21,0,0,0-.21.21.2.2,0,0,0,.21.2.21.21,0,1,0,0-.41Zm0,0a.21.21,0,0,0-.21.21.2.2,0,0,0,.21.2.21.21,0,1,0,0-.41Zm0,0a.21.21,0,0,0-.21.21.2.2,0,0,0,.21.2.21.21,0,1,0,0-.41Zm0,0a.21.21,0,0,0-.21.21.2.2,0,0,0,.21.2.21.21,0,1,0,0-.41Zm0,0a.21.21,0,0,0-.21.21.2.2,0,0,0,.21.2.21.21,0,1,0,0-.41ZM120,30.11h0v2h0V30.75a.33.33,0,0,0,.32-.32A.32.32,0,0,0,120,30.11Zm10.7.95a.21.21,0,0,0-.21.21.2.2,0,0,0,.21.2.21.21,0,1,0,0-.41Zm0,0a.21.21,0,0,0-.21.21.2.2,0,0,0,.21.2.21.21,0,1,0,0-.41Z" transform="translate(10.23 23.73)"/><path class="cls-1" d="M120.32,30.43a.31.31,0,0,1-.32.31v.53h0V30.11h0A.32.32,0,0,1,120.32,30.43Z" transform="translate(10.23 23.73)"/><path class="cls-1" d="M120.32,30.43a.31.31,0,0,1-.32.31h0v-.63h0A.32.32,0,0,1,120.32,30.43Z" transform="translate(10.23 23.73)"/><path class="cls-1" d="M130.91,31.27a.21.21,0,0,1-.21.2.2.2,0,0,1-.21-.2.21.21,0,0,1,.21-.22A.22.22,0,0,1,130.91,31.27Z" transform="translate(10.23 23.73)"/><path class="cls-1" d="M130.91,31.27a.21.21,0,0,1-.21.2.2.2,0,0,1-.21-.2.21.21,0,0,1,.21-.22A.22.22,0,0,1,130.91,31.27Z" transform="translate(10.23 23.73)"/><path class="cls-1" d="M125.61,34,123,33.71a4,4,0,0,1-.27,2.41A9.73,9.73,0,0,1,125.61,34Z" transform="translate(10.23 23.73)"/><path class="cls-1" d="M130.7,34.53a5.24,5.24,0,0,0,1.56,1.08.83.83,0,0,0-.36-.86A2.64,2.64,0,0,1,130.7,34.53Z" transform="translate(10.23 23.73)"/><path class="cls-1" d="M125.72,34.53l.82-.57,3.08.28a6.71,6.71,0,0,0,3.32,2.07c.52.17.63,1,1.19,1.53.51,1,.48,2.35.94,2.76L133.62,40a4.72,4.72,0,0,0-.7-.71l.33.81a7.56,7.56,0,0,1-1.71-2.85,7.62,7.62,0,0,0,.94,2.79,9.82,9.82,0,0,1-2.3-3,5.11,5.11,0,0,0,.31,1.41c-1.43-.49-2.5.64-3.53,2a7.69,7.69,0,0,1,1.48-2.9c-1.12.79-2.07,2.1-2.41,5.29-.54,1.95-1.5,2.41-2.84,1.56a8.91,8.91,0,0,1-1.74-2.4,5.91,5.91,0,0,0,1.85.94c.4.1.63-.3.84-.76-.35.3-.47.41-.87.32a5.67,5.67,0,0,0-2.5-1c-.12-1.16-1-2.17-.18-3.53a2.54,2.54,0,0,0,.31,1.72c-.06-.75-.08-1.43.4-1.85l2.13-1.58a6.31,6.31,0,0,1,3.53,0,4.78,4.78,0,0,0-2.62-.69c1.12-.81,2.6-.81,4.72.51C128.47,35.09,127.26,34.65,125.72,34.53Z" transform="translate(10.23 23.73)"/><path class="cls-1" d="M130.86,39.22c-.34-1-1.78-.58-2.7.15A27.16,27.16,0,0,0,126,43.79a5.24,5.24,0,0,0,1.25-2.07c.06-.55.88-2.09,1.41-2.21a18.35,18.35,0,0,0-1.35,2.7,5.35,5.35,0,0,1-1.9,2.57,9.23,9.23,0,0,0,2.28-2,4.39,4.39,0,0,1-2.15,2.33c1.25.11,1.88-1,2.93-1.27,1.16-1.43,2.42-2.49,4-2.32a2.81,2.81,0,0,1-1.22.53c1.59.41,2.33,2,3.2,1.89a3.12,3.12,0,0,0-.49-1.58,2,2,0,0,1,.72,1.77,11.9,11.9,0,0,0,.67,1.15l-.26-.1a9.06,9.06,0,0,1,.39,1.84,16,16,0,0,0,.26-4.2c-.46-1.58-1.13-2.15-1.93-2a4.18,4.18,0,0,1,.89,1.18A3.44,3.44,0,0,0,133,40.86a2.77,2.77,0,0,0-1.7-.67,6.18,6.18,0,0,0-2.36,1.13A5.38,5.38,0,0,1,130.63,40a1.82,1.82,0,0,0-2,1.29c.09-.36.73-2.38,3.12-1.29a7.45,7.45,0,0,0-1.94-1A1.52,1.52,0,0,1,130.86,39.22Z" transform="translate(10.23 23.73)"/><path class="cls-1" d="M129,43.53a2.92,2.92,0,0,1,3.29.21,1.12,1.12,0,0,0,.79,0C131.45,41.76,130.11,42.28,129,43.53Z" transform="translate(10.23 23.73)"/><path class="cls-1" d="M129.6,43.56a2,2,0,0,1,2.33.3l-.62-.15.13.24A4.2,4.2,0,0,0,129.6,43.56Z" transform="translate(10.23 23.73)"/><path class="cls-1" d="M129.75,45.15a.57.57,0,0,1-.51-.29.6.6,0,0,1,.36-.78l.07,0a.72.72,0,0,1,.85.77,1.55,1.55,0,0,1-.25.73c-1.14,1.44-3.29.14-2.37-.6A1,1,0,0,0,129.75,45.15Z" transform="translate(10.23 23.73)"/><path class="cls-1" d="M127.3,45.54c-.06.62.34.91,1.07,1A1.65,1.65,0,0,1,127.3,45.54Z" transform="translate(10.23 23.73)"/><path class="cls-1" d="M130.92,44.15a2.12,2.12,0,0,1,0,1.51l-.1-.41a2.19,2.19,0,0,1-1.93,1.44C130.46,47.34,132.13,44.78,130.92,44.15Z" transform="translate(10.23 23.73)"/><path class="cls-1" d="M132.48,44.31c-1.45.62-1.29,3-3.38,2.73-2.08-.6-2.94-.66-3.77.44,1.59-1,2.25-.26,3.81.1C131.22,47.53,130.9,46,132.48,44.31Z" transform="translate(10.23 23.73)"/><path class="cls-1" d="M131.45,46.32a2.58,2.58,0,0,1-2.95,1.38,2.71,2.71,0,0,0-2.84-.12,9.23,9.23,0,0,0,3,.85,3.27,3.27,0,0,1-1.86-.21C129.39,49.64,130.64,48.42,131.45,46.32Z" transform="translate(10.23 23.73)"/><path class="cls-1" d="M132.7,44.68c-1.51,1.53-.44,3.51-3.54,4.4a4.23,4.23,0,0,0,2.36-.28,4.27,4.27,0,0,1-4.37.08c1.31,2.13,2.67,2.4,2.18,5.27a2.57,2.57,0,0,0,.26-2.52,2.49,2.49,0,0,1-.38,3.24A7.87,7.87,0,0,0,131,53.45a4.51,4.51,0,0,1-1.11,1.42c2.88-1.57,5.06-3.53,5.29-6.57A10,10,0,0,1,132.52,52c1.55-1.81,2.8-3.68,2.55-5.87a4.39,4.39,0,0,1-.66-2c-1,0-1.62.65-2,1.73A3.29,3.29,0,0,1,132.7,44.68Z" transform="translate(10.23 23.73)"/><path class="cls-1" d="M122.9,46.11c.49.73.92.13,1.34-.57C123.84,46,123.42,46.28,122.9,46.11Z" transform="translate(10.23 23.73)"/><path class="cls-1" d="M126.36,65.12a8.75,8.75,0,0,1-2,5.36,17,17,0,0,0-.52-6.4c.88-.17.92,1.25,1,3l.21-2.54c1-.09,1,.69.51,1.87A3.15,3.15,0,0,0,126.36,65.12Z" transform="translate(10.23 23.73)"/><path class="cls-1" d="M124.56,71.22a6.88,6.88,0,0,1-.78,4.55,10,10,0,0,0,.39-1.57c-.59,1.27-1,2-1.87,2.08.21-.79.42-1.53.65-2.19a1.83,1.83,0,0,0-.52.72C122.3,72.7,124.15,73.09,124.56,71.22Z" transform="translate(10.23 23.73)"/><path class="cls-1" d="M125.84,61.2l0,0-.16.18,0,0-.11,0,0-.12,0,0,.16-.18,0,0a.22.22,0,0,1,.13,0A.45.45,0,0,1,125.84,61.2Z" transform="translate(10.23 23.73)"/><ellipse class="cls-1" cx="130.51" cy="87.96" rx="0.19" ry="0.6"/><ellipse class="cls-1" cx="131.11" cy="88" rx="0.24" ry="0.56"/><ellipse class="cls-1" cx="131.84" cy="87.95" rx="0.3" ry="0.68"/><path class="cls-1" d="M123.13,64.64c0,.57-.15,1.18-.33,1a2.39,2.39,0,0,1-.71-1.2c-.09-1.08.39-.87.56-.47C122.73,64.2,123.11,63.76,123.13,64.64Z" transform="translate(10.23 23.73)"/><path class="cls-1" d="M127.48,66.05a13.6,13.6,0,0,1-1.58,4.2,3,3,0,0,0-.29.88c-.36,1.84-.84,4.6-1.8,5.15.9-.21,1.48-1.56,1.94-4.5a2.73,2.73,0,0,1,.18-.68,11.45,11.45,0,0,1,.91-1.82,4.89,4.89,0,0,1,.55-.72,1.67,1.67,0,0,0,.43-1.11,2.49,2.49,0,0,1-.54.84A3.39,3.39,0,0,0,127.48,66.05Z" transform="translate(10.23 23.73)"/><ellipse class="cls-1" cx="130.62" cy="98.86" rx="0.25" ry="0.48"/><ellipse class="cls-1" cx="121.13" cy="75.13" rx="0.57" ry="0.18" transform="translate(45.16 212.38) rotate(-84.6)"/><ellipse class="cls-1" cx="121.83" cy="75.33" rx="0.69" ry="0.29" transform="translate(33.78 203.26) rotate(-78.4)"/><path class="cls-1" d="M169.48,156.08C156,163,155,182.31,166.54,191.18,155.66,180,157.19,164.44,169.48,156.08Z" transform="translate(10.23 23.73)"/><path class="cls-1" d="M179.62,186.67c-16.69,3.63-18.78-18.85-7.06-23.12C160.59,169.66,166.43,189.34,179.62,186.67Z" transform="translate(10.23 23.73)"/><path class="cls-1" d="M176.15,171.79a3.23,3.23,0,1,0,3,3.21A3.1,3.1,0,0,0,176.15,171.79Zm-.23,5.47c2.16.25,3.06-3.32,1-4.45C179,173.6,178.65,177.71,175.92,177.26Z" transform="translate(10.23 23.73)"/><path class="cls-1" d="M177.45,153.9c22.44,1.56,26.48,33,5.46,42.26,18.25-5.15,21.41-29.62,4.75-40.08,16.12,8.72,16,33-2,40.08,17.11-3.7,19.52-27.38,9-36.72,10.7,9.34,9.81,30.68-6.52,37.43C209.56,191.18,210.84,152.33,177.45,153.9Z" transform="translate(10.23 23.73)"/><path class="cls-1" d="M204,161.41c14.32,10.38,11.2,29.38-2.55,35.05C212.86,188.27,215.44,174.14,204,161.41Z" transform="translate(10.23 23.73)"/><path class="cls-1" d="M206.19,161.74c13.28,9.18,12.65,29.07-2.41,35.13C217.21,187.75,216.63,173.23,206.19,161.74Z" transform="translate(10.23 23.73)"/><path class="cls-1" d="M208.6,162.39c13.9,10.2,11.75,30.34-2.71,35.16C218.65,189.21,219.23,174.16,208.6,162.39Z" transform="translate(10.23 23.73)"/><path class="cls-1" d="M77,123.93c.76,3.91,2,7.68,6,10.76a26.21,26.21,0,0,1,7.28,8.81c-.7-3.21-2.44-6.59-5.82-10.24a14.47,14.47,0,0,1-3.28-6.47,9.19,9.19,0,0,0,1.33,5.63A28.23,28.23,0,0,1,77,123.93Z" transform="translate(10.23 23.73)"/><path class="cls-1" d="M79.62,115.88c-2.89,8.77-7.48,15.78-17.29,17.35C62.74,141,61,147,57.72,151.94a37.39,37.39,0,0,0,2.92-18.84,10.14,10.14,0,0,1-3.44-.78,9.53,9.53,0,0,0,3.31-.26A21,21,0,0,1,53,127.31C64.65,134,73,128.16,79.62,115.88Z" transform="translate(10.23 23.73)"/><path class="cls-1" d="M71.46,100.07c1.63,2.15,2.74,5.31,2.49,11.23a24.14,24.14,0,0,0,.37-7.92c3.21,8.26.41,20.74-9.19,22.72a26.16,26.16,0,0,0,7.28-10,23.53,23.53,0,0,1-10.33,10.23c-3.51.67-6.31.38-8.43-.83-1-3.11-1.08-7-.46-11.57-.92,3.65-1.6,7.2-1.22,10.33-4-11.82,7.43-24.05,13.86-24.34a34.47,34.47,0,0,0-8.89,8.48C62.58,102.45,67.4,99.74,71.46,100.07Z" transform="translate(10.23 23.73)"/><path class="cls-1" d="M63,98.78C59.94,100,57,101.53,55,105a13.33,13.33,0,0,0-6.24,2C52.64,98.66,57.36,95.72,63,98.78Z" transform="translate(10.23 23.73)"/><path class="cls-1" d="M58.4,96.34c-4.2.84-8.09,3.29-11,10.92a39.9,39.9,0,0,0-5.55,4.8c-.17-7.26,3.21-11.32,7.6-14.46l-3.61,5.54C50.06,97.33,54.23,95.41,58.4,96.34Z" transform="translate(10.23 23.73)"/><path class="cls-1" d="M53.41,107.23c-4.2,6.08-8.37,12.17-8.25,18.25a23.6,23.6,0,0,1,1.93-5.43,50.41,50.41,0,0,0,.18,9.62,23.65,23.65,0,0,1,2-11.76,36.43,36.43,0,0,0,1.17,10A87.31,87.31,0,0,1,51.12,138a41.24,41.24,0,0,1-1.83-5,64.25,64.25,0,0,1,1.44,11.65,59.75,59.75,0,0,1-.53,8.73l-.72.21a20.58,20.58,0,0,1-4.87-9.53,92.63,92.63,0,0,1-2.55-15.37A55.56,55.56,0,0,0,43,142.12a25,25,0,0,1-3.79-11.51,36.59,36.59,0,0,1,2.05-10.54,42.05,42.05,0,0,0-2.63,7.76,14.57,14.57,0,0,1,.84-8C43.14,112,48,108.36,53.41,107.23Z" transform="translate(10.23 23.73)"/><path class="cls-1" d="M49.15,154.42" transform="translate(10.23 23.73)"/><path class="cls-1" d="M52.21,129c7.35,4.36,7.25,15.69,2.73,22.39,1-2.65,1.26-6.27,1.27-10.18A32,32,0,0,1,53,152.44l-1.63.49a86.76,86.76,0,0,0,1.14-15.87l.71,3.76C54,137.61,53.34,133.47,52.21,129Z" transform="translate(10.23 23.73)"/><path class="cls-1" d="M36.08,138.48A73.79,73.79,0,0,0,47,154.68a23.73,23.73,0,0,0-4.56,3.22,56.23,56.23,0,0,0-3.8-7.43,17.15,17.15,0,0,1,3.73,3.14C38.63,148.18,35.67,142.93,36.08,138.48Z" transform="translate(10.23 23.73)"/><path class="cls-1" d="M33.54,129.41A31.83,31.83,0,0,0,35,135c-.61,6.54,1.24,14.42,6.3,23.24C34.71,148.77,31.74,139.24,33.54,129.41Z" transform="translate(10.23 23.73)"/><path class="cls-1" d="M40.82,113.81a34.75,34.75,0,0,0-4,8.49,9.87,9.87,0,0,0-.25,3.67,63.48,63.48,0,0,0,7.44,22c-4.28-6.26-8.21-12.61-9.33-19.71a10.57,10.57,0,0,1,.46-5.11A26.44,26.44,0,0,1,40.82,113.81Z" transform="translate(10.23 23.73)"/><path class="cls-1" d="M90.42,130.51a15.65,15.65,0,0,0,4.36,8.86c2.85,2.75,5.88,2.87,7.08,5,.25-6.73-6.61-6.24-8.15-12.3a14.22,14.22,0,0,0,3.77,4.29,12.76,12.76,0,0,1-2.2-4.7l5.88,7.62c.28-7.6-6.53-10.15-5-15.19,0,1.75.22,3.29,1.08,4.06.13-3.31,2.43-4.6,3.21-7.89-2.46,1.43-4.78.89-7.47,1.49-1.65.46-2.39,1.84-2,4.39a6.06,6.06,0,0,1,.14-4.5c-.91-.67-1.49-.49-1.69.68a21.92,21.92,0,0,0,3.3,11.11A10.84,10.84,0,0,1,90.42,130.51Z" transform="translate(10.23 23.73)"/><path class="cls-1" d="M53.27,95.4c1.32-.66,7.16-1.19,8-1.05-.22-.42-1.23-1.72-2.11-1.72C57.55,92.72,55.51,93.86,53.27,95.4Z" transform="translate(10.23 23.73)"/><path class="cls-1" d="M61.7,94.36c-4.74-8.6-.76-13.48,4.62-17.76C62.6,82.1,60.12,87.85,61.7,94.36Z" transform="translate(10.23 23.73)"/><path class="cls-1" d="M80.7,76.6C73.88,71.8,61.52,76.11,63,93.49c.32-4.22,1.31-8.38,5.34-12.31C63.92,88.39,63.5,93.61,64.81,98,66.67,85.06,72.3,78.49,80.7,76.6Z" transform="translate(10.23 23.73)"/><path class="cls-1" d="M66.69,98.14a24.73,24.73,0,0,1,7.53-13C71,89.58,68.88,93.86,68.3,98c3.21-.74,5.48-3.11,7.19-6.43-.92,3-2.16,5.56-4.56,6.92,8.58-2.19,3.26-14.16,20.69-17.33-2.85-2.43-6.86-2.29-12.47,1.39,1.13-1.43,2.23-2.86,7.23-3.9C76.17,73.94,65.35,89.71,66.69,98.14Z" transform="translate(10.23 23.73)"/><path class="cls-1" d="M104.51,82.72a87,87,0,0,0-8.69.65,46.14,46.14,0,0,1,9.36.35,12.9,12.9,0,0,0,1.72,3.07,34.35,34.35,0,0,0-5.78.73h6.2l1.24,1.91-.41-1.65,1,.1a7.67,7.67,0,0,0,3.1,1.82l-.91-1.46.62.19a26.4,26.4,0,0,0,1.9,3.25,25.71,25.71,0,0,0-8.09-.63,43.44,43.44,0,0,1,10.91,2.5l.17,1.29c.22-.14.27-.53.28-1a3.87,3.87,0,0,1,1.7,2c0,.31,0,1.38-.22,1.5A28.81,28.81,0,0,0,99.9,94.79c-5.7,1-11.8,4.46-18.23,10.14-1.5-3.51,3.8-7.82,12.38-12.52-5.78,2.49-10.76,5.49-13.88,9.69.69-5.67,4.26-10.31,10.47-14-4.5,2-8.17,4.73-10.47,8.5a20.08,20.08,0,0,1,6.63-10C81,91,77.57,96.11,78.32,102.81c.75,3.56,5.2,8.39,9.46,10.08-2.26-.12-4.88-1.94-6-2.77,4.53,5.32,10.56,7.44,18.65,5.2-4.56,1.86-9,2.49-13.16.88,11.49,6.24,17.12-4,30.65-4.39-13.07,2.73-16.53,11-28.83,7.48-6-3.31-10.7-8.62-12.9-17.74C75.79,91.44,86.38,78.62,104.51,82.72Z" transform="translate(10.23 23.73)"/><path class="cls-1" d="M75.41,73.73c4,0,6,2.55,10.11.93a3.47,3.47,0,0,1-1.43,1.15c1.87.91,4,.77,6.64-1.22A6.46,6.46,0,0,0,89,77.65a37.56,37.56,0,0,1,5.51-5.48,4.1,4.1,0,0,1-.18-1.67c-2.64,1.1-5.39,2.21-6.45,3.07,0-.62.63-1.27,1.46-1.92a9.19,9.19,0,0,0-3.41-.73,38.19,38.19,0,0,1,4.11-2.65C84.46,69.8,79.09,71.41,75.41,73.73Z" transform="translate(10.23 23.73)"/><path class="cls-1" d="M90.74,78.13a27.68,27.68,0,0,1,4-5l.32.59.14-1,.88-.75L96,73.5A18.15,18.15,0,0,0,90.74,78.13Z" transform="translate(10.23 23.73)"/><path class="cls-1" d="M96,73.71A35.56,35.56,0,0,0,97.32,78c-.17-1.29,0-5.32,1.27-6.71a16.75,16.75,0,0,0,.71,6.15c-3.18,2.88-4.88,2.48-6.57,2.07C92.65,77.31,93.89,75.43,96,73.71Z" transform="translate(10.23 23.73)"/><path class="cls-1" d="M99.65,75.2a10.84,10.84,0,0,1-.15,1.92,2.61,2.61,0,0,1,.61-.56A7.86,7.86,0,0,1,99.65,75.2Z" transform="translate(10.23 23.73)"/><path class="cls-1" d="M100.42,77.32a.78.78,0,0,0,.2.52c-.65.5-1.58,1.25-2.58,2C99,78.92,99.82,78,100.42,77.32Z" transform="translate(10.23 23.73)"/><path class="cls-1" d="M82.5,106.77a26.79,26.79,0,0,0,15.87-2c-3,2.56-7.4,3.71-12.41,4.26,4.38,1.41,9.44,1.59,16.26-1.46A26.84,26.84,0,0,1,90,111.4c3.91,2.82,9,3.49,15.89,1.07,3.75-1.24,7.25-2.36,10.09-3.17a6.21,6.21,0,0,0,2.24-4.11c-2.61-2.65-6.53-2.29-11.11-.39a11.7,11.7,0,0,1,10.84-1.47c1.49-4-6.84-6.26-13.08-3.7,3.77-2.5,8.13-2.76,13.21-.34-4.89-4.55-11.16-5-18.16-3.34C93.18,98.31,87.22,101.69,82.5,106.77Z" transform="translate(10.23 23.73)"/><path class="cls-1" d="M101.66,127.51c-2-.76-2-1.76-1.32-2.85.7,3.74,5.09,0,7.88-.39,5.3-.73,9.31,1.09,10.58-4,0,2-.59,3.37-2.64,4.07,3.84.82,4.14-4.76,2.53-6.44-3-2.53-6.87-2-11.23,0-4.35,2.68-8.23,5.41-8.31,8.65C99.16,127.41,100,127.69,101.66,127.51Z" transform="translate(10.23 23.73)"/><path class="cls-1" d="M104.05,136.45a4.41,4.41,0,0,1-1.9-5.33c.06,3.12,1.83,4.33,4.75,4.24,2.26-1.47,4.91-1,8.07-1.44a4.47,4.47,0,0,0,2.92-3.56,4,4,0,0,1-2.1,4.31c2.58.66,3.46-1.14,3.29-4.48-.81-3.24-4.27-4.74-10.23-4.58-4,.54-6.67,2.54-7.75,6.09C100.6,134.32,101.55,135.93,104.05,136.45Z" transform="translate(10.23 23.73)"/><path class="cls-1" d="M107.28,153.72a6.94,6.94,0,0,1-1.31-3.18c1,3.2,3.18,4.14,5.75,4.43,2.84.35,4.78-.44,5.91-2.27-.26,1-.3,1.94-2.82,2.71,3.78.61,4-1.91,3.34-5.27-1.71-2.85-4.89-3.47-8.84-2.9-3.18.55-4.53,1.91-4,4.09A3.82,3.82,0,0,0,107.28,153.72Z" transform="translate(10.23 23.73)"/><path class="cls-1" d="M106.85,146.77a4.51,4.51,0,0,1-2.7-4.31,4.72,4.72,0,0,0,4.31,3.88,20.63,20.63,0,0,1,6.29-.71c2.21-1.16,3-3.1,2.57-5.69a6.58,6.58,0,0,1-1.33,6.13c2.62-1,3.35-3.46,2.13-7.51-1.48-2-4.05-2.59-7.22-2.46a10.19,10.19,0,0,0-6.75,3.23C102.53,144.29,103.86,146.35,106.85,146.77Z" transform="translate(10.23 23.73)"/><path class="cls-1" d="M85.05,130.45c.54-.48,2.13.94,3.75,1.9A4.64,4.64,0,0,1,90,136.51c-.85.34-2-.76-3.44-2.6C85.32,132.48,84.7,131.28,85.05,130.45Z" transform="translate(10.23 23.73)"/><path class="cls-1" d="M88.83,130.76a4.54,4.54,0,0,0-.87-4.23A23.05,23.05,0,0,0,83,124.24c-.58.49-.07,1.73,2.16,4.18C86.57,129.9,87.87,131,88.83,130.76Z" transform="translate(10.23 23.73)"/><path class="cls-1" d="M86.22,119.56c-2.35-1.12-5-2.47-5.25-2-1,1.12,1.36,3.44,3.62,5.75,2,1.58,3.25,2.14,3.56,1.35C88.23,122.22,87.5,120.61,86.22,119.56Z" transform="translate(10.23 23.73)"/><polygon class="cls-1" points="107.07 48.99 114.03 49.81 112.68 47.92 107.07 48.99"/><path class="cls-1" d="M99,26.2c1.18,1,2.82.19,4.41.55s1.74,1.42,2.63,2.36l-.38.57c-.56-1-1.18-1.5-1.88-1.46a2.65,2.65,0,0,1,1.53,1.67,6,6,0,0,0-2.6-1.42,7.16,7.16,0,0,1-2.41-.94A3.8,3.8,0,0,0,102,28.67a3.34,3.34,0,0,1-2.06-.13,4.33,4.33,0,0,0,1.39.61,4.2,4.2,0,0,1-1.64-.1,2.22,2.22,0,0,0,1.56.48c-.22.23-.41.45-.39.59A5.17,5.17,0,0,1,99.59,30c-.5.8-.51,1.4-.12,1.85.07,1.91,1,2.6,2.3,2.63a7,7,0,0,0-.89-1.41c1.16.27,1.86,1.7,2.05,2a2.09,2.09,0,0,0-.15-1.26,2.48,2.48,0,0,1,1,1.81h-2.38c-1.34,0-2-1.34-2.8-3.5L98.82,29A5.35,5.35,0,0,1,99,26.2Z" transform="translate(10.23 23.73)"/><path class="cls-1" d="M105.94,30.59c.07.34.87.31.89,0l.25,1.05a2.83,2.83,0,0,0-1.14.13Z" transform="translate(10.23 23.73)"/><path class="cls-1" d="M104.23,31.81a3.06,3.06,0,0,0,2.81,0,2.26,2.26,0,0,1-.21,1.35A2.78,2.78,0,0,1,104.23,31.81Z" transform="translate(10.23 23.73)"/><path class="cls-1" d="M105.87,34.09a2.22,2.22,0,0,1-1.39-.13,1.55,1.55,0,0,0,1.14.73Z" transform="translate(10.23 23.73)"/><path class="cls-1" d="M104.23,35.07a2.45,2.45,0,0,0,1.42,0c.25.25.51.48.76.69l1.33-1a8.12,8.12,0,0,0-1.94,2.55,2.29,2.29,0,0,1-2,1.06A9.42,9.42,0,0,0,97,39.49a8.16,8.16,0,0,1,5.78-.27c-3,.11-5.4.84-7.06,2.37a6,6,0,0,1-6.14,1c5.94-1.62,6.46-6.16,13.9-5.17-4.72-2.24-7.78,2.7-11.74-.06,3.52.79,5.34-1.76,8.35-1.53,2.11.49,4,.62,5.3-.05C104.76,35.63,104.33,35.41,104.23,35.07Z" transform="translate(10.23 23.73)"/><path class="cls-1" d="M97.74,33.13l.8.51c-1.38-2.32-3.6-3.07-6.76-2.09,2,.17,3.87.61,5,1.9a6.36,6.36,0,0,1-5.85.72c2.93,3,6-.49,8.51,1A22.56,22.56,0,0,1,97.74,33.13Z" transform="translate(10.23 23.73)"/><path class="cls-1" d="M105,38.68c-1.63,2.51-12.27.28-15.82,11,1.5-2.69,3.24-4.75,5.36-5.83C88.05,49,90.24,54,86.62,57.81c5.22-1.77,4.29-4.92,8.22-8.63a10.33,10.33,0,0,0-2,3.32c2.91-3,6.34-4,8.6-7.61a17.58,17.58,0,0,0-5.17,3c1.84-2.67,5.94-3.16,6.27-5.51-8.9,2.48-9.7,6.28-11.43,9.73C94.31,39.09,102.76,45.07,105,38.68Z" transform="translate(10.23 23.73)"/><path class="cls-1" d="M93.61,68.09c.83-5.57,6.25-4.94,8.38-10.41a10.86,10.86,0,0,1-2.68,2,7.85,7.85,0,0,0,3.12-5c-1.7,1.18-3.41,1.29-4.41,3.22.28-3.13,6.46-3.25,6.08-8.86a17.36,17.36,0,0,1-6.35,4.83c2.72-1.68,4.94-3.58,5.61-6.21a6.79,6.79,0,0,1-2.62,2.31c3.54-3.46,2.41-5.65,3.54-8.79-2.55,1.28-1,5.61-7.84,9.34-3.55,2.12-6,5-6.62,9.13,1.45-2.3,3.06-4.21,5.4-4.5-4.8,3-6.11,6.7-4.63,10.94,1-3.54,3.12-5.25,5.37-6.73-2.89,2.67-4.14,4.62-3.47,7.34.74-2.73,2.58-4.28,4.56-5.67C95.77,63.17,92.92,64.53,93.61,68.09Z" transform="translate(10.23 23.73)"/><path class="cls-1" d="M94.81,68c.26-5.45,6.24-3.68,8.06-11.49.76,3.44-.58,5-3.3,9.83,1.83-2.82,2.93-3.24,3.72-6a9.69,9.69,0,0,1-1.23,5,9,9,0,0,0,1.77-4.58c1.72,6.42-5.57,7.74-1.89,18.43-1.88-2.29-2.13-5.48-1.43-9.22a14,14,0,0,0-1.34,4.31c-.41-2.55.76-5,2.11-7.75-1.62,2.72-3.69,3.77-4.54,8.37a10.15,10.15,0,0,1,1.81-7.61c-1.61,1.94-3.18,2.22-3.59,4.63-.54-3.3,1.06-5.62,4-7.32C97.72,64.81,96.52,64.73,94.81,68Z" transform="translate(10.23 23.73)"/><path class="cls-1" d="M104.73,63c.39,4.59-2.19,3.56-2.19,8.6a30.14,30.14,0,0,1,2.58-4.3c-1.47,4.25-3.73,5.59-1.54,11.93-.53-7.55,5.69-9.17,1.81-17.2a24.45,24.45,0,0,1,.17,3A7.86,7.86,0,0,0,104.73,63Z" transform="translate(10.23 23.73)"/><path class="cls-1" d="M107,63.71c1.61.91,2.32,3.4,1.41,8.65a8.65,8.65,0,0,0,1.49-5.14c1.38,2.9.17,6.31-1.93,9.9,1.26-1.73,2.35-2.72,2.8-4.45,2.36,6.51-5.75,7.44,0,15.63-3.21-1.76-4-4.9-2.65-9.34-.87,1.16-1.79,2.2-1.12,7-2.62-3.48-3-7.53-1.71-12a13.62,13.62,0,0,0,.17,6C105.21,70.83,108.26,72.93,107,63.71Z" transform="translate(10.23 23.73)"/><path class="cls-1" d="M111.94,75.62c.52,3.9-1.51,4-1.3,7.3.26,1.92,1.74,3.71,2.72,6.67-2-4-4.88-4.39-4-8.25l.7,2.29C109.21,79,111.09,80.72,111.94,75.62Z" transform="translate(10.23 23.73)"/><path class="cls-1" d="M127.67,80.26a4.65,4.65,0,0,1,.64,4c-1.41,2.79-3.17,4.32-3.56,6.16.18-3.37,2.43-4.39,2.68-7.15-1.93,4.58-3.47,3.86-4.26,8.12-.94-4.65,1.35-4.08,1.08-7.55-.38,2-1.28,2.81-1.66,4.17a14.91,14.91,0,0,1-1.39,4.48,8.58,8.58,0,0,0-.14-4.2c0,2.36,0,4.62-1.06,5.55-1.07-.93-1.11-3.19-1.06-5.55a8.58,8.58,0,0,0-.14,4.2A14.91,14.91,0,0,1,117.41,88c-.38-1.36-1.28-2.2-1.66-4.17-.27,3.47,2,2.9,1.08,7.55-.8-4.26-2.33-3.54-4.26-8.12.25,2.76,2.5,3.78,2.68,7.15-.39-1.84-2.15-3.37-3.56-6.16a4.65,4.65,0,0,1,.64-4,4,4,0,0,0-1.07,1.67c-.2-1.63,1-2,1.21-4.22.55,1.77,1.79,2.32,3.81,1.47a8.72,8.72,0,0,0,.53,2.16,2.64,2.64,0,0,1,.81-2.56,5.2,5.2,0,0,0,1,2.56c.13-1.7.6-2.66,1.4-2.88.8.22,1.27,1.18,1.4,2.88a5.29,5.29,0,0,0,1-2.56,2.64,2.64,0,0,1,.81,2.56,8.72,8.72,0,0,0,.53-2.16c2,.85,3.26.3,3.81-1.47.25,2.27,1.41,2.59,1.21,4.22A4,4,0,0,0,127.67,80.26Z" transform="translate(10.23 23.73)"/><path class="cls-1" d="M117.52,91.16h0l0,0v0a7.42,7.42,0,0,1-.23,1.52l0,0,0,0v0h0l.06,0a6.21,6.21,0,0,0,1,.41h0s0,0,0-.1A6.88,6.88,0,0,0,117.52,91.16Zm-.2,1.57a6.65,6.65,0,0,0,.21-1.37,8.18,8.18,0,0,1,.67,1.76C118.05,93.07,117.49,92.81,117.32,92.73Z" transform="translate(10.23 23.73)"/><path class="cls-1" d="M116.58,92.37c-.17-.82-.48-1.85-.79-2.85l-.09,0,.06.5a5.85,5.85,0,0,1,.1,2.14l0,0,0,0a.71.71,0,0,0,.49.22.57.57,0,0,0,.18,0h0Zm-.61-.19a5.59,5.59,0,0,0-.08-2c.23.76.44,1.52.57,2.15A.55.55,0,0,1,116,92.18Z" transform="translate(10.23 23.73)"/><path class="cls-1" d="M115.31,92.05a14.2,14.2,0,0,0-1.45-3.18l-.16-.26.06.3a17.24,17.24,0,0,1,.4,2.82v0h0a3.15,3.15,0,0,1,1,.34l.11.06Zm-1-.37a15.38,15.38,0,0,0-.35-2.49A14.46,14.46,0,0,1,115.18,92,3.24,3.24,0,0,0,114.27,91.68Z" transform="translate(10.23 23.73)"/><path class="cls-1" d="M107.68,85.72l-.1,0,.21.77a.78.78,0,0,0,.43.49l.13.06Zm.22.77-.07-.23.28.56A.72.72,0,0,1,107.9,86.49Z" transform="translate(10.23 23.73)"/><path class="cls-1" d="M111,87.18a9.54,9.54,0,0,0-1.11-1.41l-.27-.27.51,1a1.83,1.83,0,0,0,.8.78l.17.09Zm-.77-.75-.15-.28a7.8,7.8,0,0,1,.71.91A1.69,1.69,0,0,1,110.19,86.43Z" transform="translate(10.23 23.73)"/><path class="cls-1" d="M93.41,69.08c0,.24.06.61.06.61l-2.13,1.16C91.49,70.8,93.41,69,93.41,69.08Z" transform="translate(10.23 23.73)"/><path class="cls-1" d="M105.45,21.63A4.51,4.51,0,0,0,109,23.56a1.5,1.5,0,0,1,.41,1.14c-2.28.34-3.74-.3-4.48-1.8C104.77,22.54,105,22.1,105.45,21.63Z" transform="translate(10.23 23.73)"/><path class="cls-1" d="M105.41,24.64a6.62,6.62,0,0,0,4,.57c-.11.94-.75,1.32-2,1.05a2.15,2.15,0,0,0,1.11-.18C106.55,26.23,105.81,25.55,105.41,24.64Z" transform="translate(10.23 23.73)"/><path class="cls-1" d="M114.13,19.68c1.69.83,3.05,3.15,3.68,3.39a4.65,4.65,0,0,0-2-3.13A8,8,0,0,0,114.13,19.68Z" transform="translate(10.23 23.73)"/><path class="cls-1" d="M118,23.42s-4.18-3-4.18-2.91a6.64,6.64,0,0,1-.45.55l4.17,3.58Z" transform="translate(10.23 23.73)"/><path class="cls-1" d="M117.18,24.79a3.59,3.59,0,0,1-2.09.39,5.3,5.3,0,0,0-2-1.37,4.94,4.94,0,0,1-.27-.74,7.16,7.16,0,0,1,2.47,1.23,7.6,7.6,0,0,0-2.47-2.1C114.43,22.34,115.76,23.84,117.18,24.79Z" transform="translate(10.23 23.73)"/><path class="cls-1" d="M140.82,18.77l-7.29,10c-3-1.25-8.1-1.5-13.53-1.61-5.43.11-10.56.36-13.53,1.61l-7.29-9.95a10.39,10.39,0,0,0,5.71,2.6,3.76,3.76,0,0,0,3.79,5.41c2.56-1,1-4.58-1.9-5.89,1.74-1.27,2.15-3.06,1.9-5.12,1.37,2.23,3,3.76,5,4-2.62,2.66-1.4,5.52,2.17,6,3.47-.63,3.43-3.25.36-6.32A4.73,4.73,0,0,0,120,15.45a4.73,4.73,0,0,0,3.77,4.05c-3.07,3.07-3.11,5.69.36,6.32,3.57-.49,4.79-3.35,2.16-6,2-.28,3.66-1.81,5-4-.25,2.06.16,3.85,1.89,5.12-2.93,1.31-4.45,4.86-1.89,5.89a3.76,3.76,0,0,0,3.79-5.41A10.39,10.39,0,0,0,140.82,18.77Z" transform="translate(10.23 23.73)"/><path class="cls-1" d="M106.3,30.44a.35.35,0,0,0,.23-.09c1.58-1.62,9-1.85,13.48-2a.32.32,0,0,0,.31-.33.33.33,0,0,0-.33-.31c-6.4.2-12.29.51-13.92,2.18a.33.33,0,0,0,0,.45A.35.35,0,0,0,106.3,30.44Z" transform="translate(10.23 23.73)"/><path class="cls-1" d="M106.3,35.32a.37.37,0,0,0,.23-.1c1.58-1.62,9-1.85,13.48-2a.33.33,0,0,0,.31-.33.32.32,0,0,0-.33-.31c-6.4.19-12.29.51-13.92,2.17a.33.33,0,0,0,0,.45A.32.32,0,0,0,106.3,35.32Z" transform="translate(10.23 23.73)"/><path class="cls-1" d="M109.3,31.06a.21.21,0,1,0,0,.41.2.2,0,0,0,.21-.2A.21.21,0,0,0,109.3,31.06Zm0,0a.21.21,0,1,0,0,.41.2.2,0,0,0,.21-.2A.21.21,0,0,0,109.3,31.06Zm10.7-.95a.32.32,0,0,0-.32.32.33.33,0,0,0,.32.32v1.31h0v-2Zm-10.7.95a.21.21,0,1,0,0,.41.2.2,0,0,0,.21-.2A.21.21,0,0,0,109.3,31.06Zm10.38-.63a.33.33,0,0,0,.32.32v-.64A.32.32,0,0,0,119.68,30.43Z" transform="translate(10.23 23.73)"/><path class="cls-1" d="M132.59,30.37A43.24,43.24,0,0,0,120,29h0a43.24,43.24,0,0,0-12.59,1.37,5,5,0,0,1,0,2.76A77.2,77.2,0,0,1,120,32.06v-.79a.84.84,0,0,1,0-1.68h0a.84.84,0,1,1,0,1.68v.79a77.2,77.2,0,0,1,12.59,1.07A5,5,0,0,1,132.59,30.37ZM109.3,32a.76.76,0,1,1,.76-.75A.76.76,0,0,1,109.3,32Zm4.87-.63a.84.84,0,1,1,.83-.83A.83.83,0,0,1,114.17,31.39Zm11.66,0a.84.84,0,1,1,.84-.83A.83.83,0,0,1,125.83,31.39Zm4.87.63a.76.76,0,1,1,.76-.75A.76.76,0,0,1,130.7,32Z" transform="translate(10.23 23.73)"/><path class="cls-1" d="M120,30.11v1.16h0v-.53a.31.31,0,0,1-.32-.31.32.32,0,0,1,.32-.32Z" transform="translate(10.23 23.73)"/><path class="cls-1" d="M120,30.11v.63h0a.31.31,0,0,1-.32-.31.32.32,0,0,1,.32-.32Z" transform="translate(10.23 23.73)"/><path class="cls-1" d="M109.51,31.27a.2.2,0,0,1-.21.2.21.21,0,0,1-.21-.2.22.22,0,0,1,.21-.22A.21.21,0,0,1,109.51,31.27Z" transform="translate(10.23 23.73)"/><path class="cls-1" d="M109.51,31.27a.2.2,0,0,1-.21.2.21.21,0,0,1-.21-.2.22.22,0,0,1,.21-.22A.21.21,0,0,1,109.51,31.27Z" transform="translate(10.23 23.73)"/><path class="cls-1" d="M114.39,34l2.62-.25a4,4,0,0,0,.27,2.41A9.73,9.73,0,0,0,114.39,34Z" transform="translate(10.23 23.73)"/><path class="cls-1" d="M121.78,36.88a6.36,6.36,0,0,0,0-2.56c.06,2-.49,3.16-1.78,3.52-1.29-.36-1.84-1.57-1.78-3.52a6.36,6.36,0,0,0,0,2.56,3.86,3.86,0,0,1-.82-3.16h5.2A3.9,3.9,0,0,1,121.78,36.88Z" transform="translate(10.23 23.73)"/><path class="cls-1" d="M109.3,34.53a5.24,5.24,0,0,1-1.56,1.08.83.83,0,0,1,.36-.86A2.64,2.64,0,0,0,109.3,34.53Z" transform="translate(10.23 23.73)"/><path class="cls-1" d="M114.28,34.53l-.82-.57-3.08.28a6.71,6.71,0,0,1-3.32,2.07c-.52.17-.63,1-1.19,1.53-.51,1-.48,2.35-.94,2.76l1.45-.57a4.72,4.72,0,0,1,.7-.71l-.33.81a7.56,7.56,0,0,0,1.71-2.85,7.62,7.62,0,0,1-.94,2.79,9.82,9.82,0,0,0,2.3-3,5.11,5.11,0,0,1-.31,1.41c1.43-.49,2.5.64,3.53,2a7.69,7.69,0,0,0-1.48-2.9c1.12.79,2.07,2.1,2.41,5.29.54,1.95,1.5,2.41,2.84,1.56a8.91,8.91,0,0,0,1.74-2.4,5.91,5.91,0,0,1-1.85.94c-.4.1-.63-.3-.84-.76.35.3.47.41.87.32a5.67,5.67,0,0,1,2.5-1c.12-1.16,1-2.17.18-3.53a2.54,2.54,0,0,1-.31,1.72c.06-.75.08-1.43-.4-1.85l-2.13-1.58a6.31,6.31,0,0,0-3.53,0,4.78,4.78,0,0,1,2.62-.69c-1.12-.81-2.6-.81-4.72.51C111.53,35.09,112.74,34.65,114.28,34.53Z" transform="translate(10.23 23.73)"/><path class="cls-1" d="M109.14,39.22c.34-1,1.78-.58,2.7.15A27.16,27.16,0,0,1,114,43.79a5.24,5.24,0,0,1-1.25-2.07c-.06-.55-.88-2.09-1.41-2.21a18.35,18.35,0,0,1,1.35,2.7,5.35,5.35,0,0,0,1.9,2.57,9.23,9.23,0,0,1-2.28-2,4.39,4.39,0,0,0,2.15,2.33c-1.25.11-1.88-1-2.93-1.27-1.16-1.43-2.42-2.49-4-2.32a2.81,2.81,0,0,0,1.22.53c-1.59.41-2.33,2-3.2,1.89a3.12,3.12,0,0,1,.49-1.58,2,2,0,0,0-.72,1.77,11.9,11.9,0,0,1-.67,1.15l.26-.1a9.06,9.06,0,0,0-.39,1.84,16,16,0,0,1-.26-4.2c.46-1.58,1.13-2.15,1.93-2a4.18,4.18,0,0,0-.89,1.18A3.44,3.44,0,0,1,107,40.86a2.77,2.77,0,0,1,1.7-.67,6.18,6.18,0,0,1,2.36,1.13A5.38,5.38,0,0,0,109.37,40a1.82,1.82,0,0,1,2,1.29c-.09-.36-.73-2.38-3.12-1.29a7.45,7.45,0,0,1,1.94-1A1.52,1.52,0,0,0,109.14,39.22Z" transform="translate(10.23 23.73)"/><path class="cls-1" d="M111,43.53a2.92,2.92,0,0,0-3.29.21,1.12,1.12,0,0,1-.79,0C108.55,41.76,109.89,42.28,111,43.53Z" transform="translate(10.23 23.73)"/><path class="cls-1" d="M110.4,43.56a2,2,0,0,0-2.33.3l.62-.15-.13.24A4.2,4.2,0,0,1,110.4,43.56Z" transform="translate(10.23 23.73)"/><path class="cls-1" d="M110.25,45.15a.57.57,0,0,0,.51-.29.6.6,0,0,0-.36-.78l-.07,0a.72.72,0,0,0-.85.77,1.55,1.55,0,0,0,.25.73c1.14,1.44,3.29.14,2.37-.6A1,1,0,0,1,110.25,45.15Z" transform="translate(10.23 23.73)"/><path class="cls-1" d="M112.7,45.54c.06.62-.34.91-1.07,1A1.65,1.65,0,0,0,112.7,45.54Z" transform="translate(10.23 23.73)"/><path class="cls-1" d="M109.08,44.15a2.12,2.12,0,0,0,0,1.51l.1-.41a2.19,2.19,0,0,0,1.93,1.44C109.54,47.34,107.87,44.78,109.08,44.15Z" transform="translate(10.23 23.73)"/><path class="cls-1" d="M107.52,44.31c1.45.62,1.29,3,3.38,2.73,2.08-.6,2.94-.66,3.77.44-1.59-1-2.25-.26-3.81.1C108.78,47.53,109.1,46,107.52,44.31Z" transform="translate(10.23 23.73)"/><path class="cls-1" d="M108.55,46.32a2.58,2.58,0,0,0,3,1.38,2.71,2.71,0,0,1,2.84-.12,9.23,9.23,0,0,1-3,.85,3.27,3.27,0,0,0,1.86-.21C110.61,49.64,109.36,48.42,108.55,46.32Z" transform="translate(10.23 23.73)"/><path class="cls-1" d="M107.3,44.68c1.51,1.53.44,3.51,3.54,4.4a4.23,4.23,0,0,1-2.36-.28,4.27,4.27,0,0,0,4.37.08c-1.31,2.13-2.67,2.4-2.18,5.27a2.57,2.57,0,0,1-.26-2.52,2.49,2.49,0,0,0,.38,3.24A7.87,7.87,0,0,1,109,53.45a4.51,4.51,0,0,0,1.11,1.42c-2.88-1.57-5.06-3.53-5.29-6.57A10,10,0,0,0,107.48,52c-1.55-1.81-2.8-3.68-2.55-5.87a4.39,4.39,0,0,0,.66-2c1,0,1.62.65,2,1.73A3.29,3.29,0,0,0,107.3,44.68Z" transform="translate(10.23 23.73)"/><path class="cls-1" d="M124.11,45.13c-.59.93-1.46.79-2.6-.36a2.25,2.25,0,0,0,.7,1.06c-.56.05-1-.58-1.4-1.51a1.29,1.29,0,0,0,.12,1.12c-.58-.13-.82-.65-.93-1.34-.11.69-.35,1.21-.93,1.34a1.29,1.29,0,0,0,.12-1.12c-.39.93-.84,1.56-1.4,1.51a2.25,2.25,0,0,0,.7-1.06c-1.14,1.15-2,1.29-2.6.36,0,0,2.1-1.44,2.4-2.3a1.14,1.14,0,0,1,0,.82c.39-1.23,1-1.93,1.71-2.09.75.16,1.32.86,1.71,2.09a1.14,1.14,0,0,1,0-.82C122,43.69,124.11,45.13,124.11,45.13Z" transform="translate(10.23 23.73)"/><path class="cls-1" d="M117.1,46.11c-.49.73-.92.13-1.34-.57C116.16,46,116.58,46.28,117.1,46.11Z" transform="translate(10.23 23.73)"/><path class="cls-1" d="M131.39,58.33,131.24,56c-1,1.84-3.58,3.74-6.4,4.53,2.75-1.22,5-2.73,6.13-4.85-.73-.71-1.68-.66-2.9.41a3.49,3.49,0,0,1-.36,1.49c.28-1.8-.78-2.21-.56-3.53a4.16,4.16,0,0,0,.78,1.55,4.06,4.06,0,0,0,.4-2.17,3.06,3.06,0,0,1,.22,1.44c.67-1.13,1-2.36-.5-4.26-1.17-1.49-1.35-2.68-2.67-2.72-.8.83-.7,2,.47,3.56A2.71,2.71,0,0,1,127.23,53,4.37,4.37,0,0,0,126,51.9a5.64,5.64,0,0,1,0,2.61,8.32,8.32,0,0,0-.6-3.06,6.77,6.77,0,0,1-1.13-2.52,2.79,2.79,0,0,0-1.18-.92,2.54,2.54,0,0,1,1.13.33c-.58-.68-1.34-1.19-3-.83a4.55,4.55,0,0,1,1.34-.36,2.92,2.92,0,0,0-1.14-.44,2.13,2.13,0,0,1,1.85.57A2.08,2.08,0,0,0,121.13,46a2.75,2.75,0,0,1-.48.58,2.11,2.11,0,0,1,.25-.73,1.36,1.36,0,0,1-.64-.47.27.27,0,1,1-.52,0,1.36,1.36,0,0,1-.64.47,2.11,2.11,0,0,1,.25.73,2.75,2.75,0,0,1-.48-.58,2.08,2.08,0,0,0-2.17,1.29,2.13,2.13,0,0,1,1.85-.57,3,3,0,0,0-1.15.44,4.53,4.53,0,0,1,1.35.36c-1.71-.36-2.47.15-3,.83a2.54,2.54,0,0,1,1.13-.33,2.79,2.79,0,0,0-1.18.92,6.77,6.77,0,0,1-1.13,2.52,8.32,8.32,0,0,0-.6,3.06,5.64,5.64,0,0,1,0-2.61,4.37,4.37,0,0,0-1.2,1.12,2.71,2.71,0,0,1,1.38-1.57c1.17-1.56,1.27-2.73.47-3.56-1.32,0-1.5,1.23-2.67,2.72-1.53,1.9-1.17,3.13-.5,4.26a3.06,3.06,0,0,1,.22-1.44,4.06,4.06,0,0,0,.4,2.17,4.16,4.16,0,0,0,.78-1.55c.22,1.32-.84,1.73-.56,3.53a3.49,3.49,0,0,1-.36-1.49c-1.22-1.07-2.17-1.12-2.9-.41,1.14,2.12,3.38,3.63,6.13,4.85-2.82-.79-5.41-2.69-6.4-4.53l-.15,2.33c0,1.54,3.62,3.51,7.12,3.71a9.83,9.83,0,0,1-6.25-1.64,3.06,3.06,0,0,0,1,2.51c1.28,1.18,3.26.05,5,.2a12.81,12.81,0,0,1-4.23.67c.57,1.17,1.86,1.4,4.23.21,2.52-.8,4.12-.6,4.4-2.75,0-1.54-1-1.25-2.39-2.38a1.37,1.37,0,0,1,.93.09c-.18-.4-.8-.62-1.68-.72-1.33-.7-.67-1.85-2.3-2.92.58.12.82.38,1.38,1.06.83-1.43,2.08.3,4.22.16h0c2.14.14,3.39-1.59,4.22-.16.56-.68.8-.94,1.38-1.06-1.63,1.07-1,2.22-2.3,2.92-.88.1-1.5.32-1.68.72a1.38,1.38,0,0,1,.93-.09c-1.38,1.13-2.36.84-2.39,2.38.28,2.15,1.88,1.95,4.4,2.75,2.37,1.19,3.66,1,4.23-.21a12.81,12.81,0,0,1-4.23-.67c1.7-.15,3.68,1,5-.2a3.06,3.06,0,0,0,1-2.51A9.83,9.83,0,0,1,124.27,62C127.77,61.84,131.39,59.87,131.39,58.33Zm-2.2-1.74,0,0,.13,0a1,1,0,0,1,0,.12s0,0,0,0l-.09.09-.08.09,0,0-.12,0s0-.09,0-.13Zm-2.73,2.33.11-.11.12-.1.06-.05.13,0a.57.57,0,0,1,0,.13l-.06,0-.12.1-.11.1-.07.06-.12,0a.62.62,0,0,1,0-.13Zm-15.47-2-.12,0,0,0-.08-.09-.13-.13a1,1,0,0,1,0-.12l.12,0,.13.13.09.09,0,0S111,56.89,111,56.94Zm2.6,2.16-.13,0-.06-.06-.11-.1-.12-.1-.06,0a.57.57,0,0,1,0-.13l.13,0,.06.05.12.1.11.11.06,0A.62.62,0,0,1,113.59,59.1Zm-3.5,0a.39.39,0,0,1-.11.06l0,0-.09-.06-.1-.06a.05.05,0,0,0,0,0v-.13l.11-.06a.1.1,0,0,0,0,0l.1.05.1.07,0,0A.53.53,0,0,1,110.09,59.14Zm2.07,1.59a.53.53,0,0,1-.12,0l0,0-.19-.19,0,0,0-.12.12,0,0,0,.19.18,0,0A.27.27,0,0,1,112.16,60.73Zm2.36.72-.11,0,0,0-.17-.18,0,0a.45.45,0,0,1,0-.11.22.22,0,0,1,.13,0l0,0,.17.18,0,0Zm-2.74,1.15-.06,0-.12-.07-.11-.06-.06,0s0-.07,0-.12l.12-.07s0,0,0,0l.12.06.11.07.06,0s0,.08,0,.12Zm2.47.28-.06,0-.11-.07-.11-.06-.06,0v-.12l.11-.06.06,0,.11.07.12.06,0,0a.41.41,0,0,1,0,.12Zm7.54-14.23a2.27,2.27,0,0,0,.77,1.24l1-.78c-.28.35-.06.73.23,1.14l-.5-.37a4,4,0,0,0-1.51,2.34,4.74,4.74,0,0,1,.51-1.85A3.46,3.46,0,0,1,121.79,48.65Zm-5.36.46,1,.78a2.31,2.31,0,0,0,.76-1.24,3.46,3.46,0,0,1-.51,1.72,4.74,4.74,0,0,1,.51,1.85,4,4,0,0,0-1.51-2.34l-.5.37C116.49,49.84,116.71,49.46,116.43,49.11Zm-1.45,6a3.19,3.19,0,0,1,.7-3.94A6.57,6.57,0,0,0,115,55.07Zm5,.77h0c-2.09-.29-2.87-1.29-4.67-.92,1.15-1.11,2.83.67,4.67.36h0c1.83.32,3.52-1.47,4.67-.36C122.87,54.55,122.09,55.55,120,55.84Zm5-.77a6.57,6.57,0,0,0-.7-3.94A3.19,3.19,0,0,1,125,55.07Zm3.1,7.34.06,0,.11-.07.12-.06s0,0,.05,0l.12.07a.45.45,0,0,1,0,.12l-.06,0-.11.06-.12.07-.06,0-.1-.07A.48.48,0,0,1,128.12,62.41Zm-2.48.29.06,0,.12-.06.1-.07.06,0,.11.06a.47.47,0,0,1,0,.12l-.06,0-.11.06-.11.07-.06,0-.11-.06Zm.16-1.46-.16.18,0,0-.11,0,0-.12,0,0,.16-.18,0,0a.22.22,0,0,1,.13,0,.45.45,0,0,1,0,.11Zm2.39-.71-.19.19,0,0-.13,0a.5.5,0,0,1,0-.12l0,0,.19-.18,0,0,.12,0c0,.05,0,.08,0,.12Zm2.07-1.48-.1.06-.09.06,0,0a.39.39,0,0,1-.11-.06.53.53,0,0,1,0-.12l0,0,.1-.07.1-.05a.1.1,0,0,0,.05,0l.11.06V59A.05.05,0,0,0,130.26,59.05Z" transform="translate(10.23 23.73)"/><path class="cls-1" d="M113.64,65.12a8.75,8.75,0,0,0,2,5.36,17,17,0,0,1,.52-6.4c-.88-.17-.92,1.25-1,3l-.21-2.54c-1-.09-1,.69-.51,1.87A3.15,3.15,0,0,1,113.64,65.12Z" transform="translate(10.23 23.73)"/><path class="cls-1" d="M115.44,71.22a6.88,6.88,0,0,0,.78,4.55,10,10,0,0,1-.39-1.57c.59,1.27,1,2,1.87,2.08-.21-.79-.42-1.53-.65-2.19a1.83,1.83,0,0,1,.52.72C117.7,72.7,115.85,73.09,115.44,71.22Z" transform="translate(10.23 23.73)"/><path class="cls-1" d="M137.06,55l-.84,2.08c-.37,1.86-1.11,3-2.23,3.43a5,5,0,0,0,1.15-3.36,5.31,5.31,0,0,1-.93,2.38,5.25,5.25,0,0,0-1.45,3.15A22.51,22.51,0,0,0,130,66a15.1,15.1,0,0,0-2.16,6A4.12,4.12,0,0,0,129,69.62c.3,2.21-1.13,4.13-1.46,5.76,0,2-.67,3.15-2.24,3.29a2.24,2.24,0,0,0,1.27-.11c-1,1.22-2.29.36-3.62-.45a2.89,2.89,0,0,1,.39,1.28c-.53-1.06-1.12-1.3-1.72-1.33a2,2,0,0,1,.07,1.75,2.56,2.56,0,0,0-1.68-2,2.56,2.56,0,0,0-1.68,2,2,2,0,0,1,.07-1.75c-.6,0-1.19.27-1.72,1.33a2.89,2.89,0,0,1,.39-1.28c-1.33.81-2.67,1.67-3.62.45a2.24,2.24,0,0,0,1.27.11c-1.57-.14-2.26-1.31-2.24-3.29-.33-1.63-1.76-3.55-1.45-5.76a4.05,4.05,0,0,0,1.12,2.28A15.1,15.1,0,0,0,110,66a22.51,22.51,0,0,0-2.74-3.25,5.25,5.25,0,0,0-1.45-3.15,5.31,5.31,0,0,1-.93-2.38A5,5,0,0,0,106,60.53c-1.12-.42-1.86-1.57-2.23-3.43L102.94,55a23.48,23.48,0,0,0,1.62-3,4.19,4.19,0,0,0,1.14,2.51,7.29,7.29,0,0,1-.62-3.51,12.2,12.2,0,0,0,3.68,3.65,7,7,0,0,0-.27,5,6.07,6.07,0,0,0,1.87,4.05,7,7,0,0,0,1,3.24c.66,2,1.22,4.11,1.72,6.34S114.57,76.71,116,77a1.77,1.77,0,0,1-1.74-.62c.19.77.89,1.16,2.35,1L120,77l3.39.37c1.46.2,2.16-.19,2.35-1A1.77,1.77,0,0,1,124,77c1.43-.33,2.37-1.64,2.87-3.75s1.06-4.35,1.72-6.34a7,7,0,0,0,1-3.24,6.07,6.07,0,0,0,1.87-4.05,7,7,0,0,0-.27-5A12.2,12.2,0,0,0,134.92,51a7.41,7.41,0,0,1-.62,3.51A4.19,4.19,0,0,0,135.44,52,23.48,23.48,0,0,0,137.06,55Z" transform="translate(10.23 23.73)"/><path class="cls-1" d="M114.57,61.33l0,.12-.11,0,0,0-.17-.18,0,0a.45.45,0,0,1,0-.11.22.22,0,0,1,.13,0l0,0,.17.18Z" transform="translate(10.23 23.73)"/><ellipse class="cls-1" cx="129.96" cy="87.96" rx="0.19" ry="0.6"/><ellipse class="cls-1" cx="129.35" cy="88" rx="0.24" ry="0.56"/><ellipse class="cls-1" cx="128.63" cy="87.95" rx="0.3" ry="0.68"/><path class="cls-1" d="M116.87,64.64c0,.57.15,1.18.33,1a2.39,2.39,0,0,0,.71-1.2c.09-1.08-.39-.87-.56-.47C117.27,64.2,116.89,63.76,116.87,64.64Z" transform="translate(10.23 23.73)"/><path class="cls-1" d="M123.33,71.19a3.38,3.38,0,0,1-6.66,0,4.39,4.39,0,0,0,1.17,1.59c-1.73-2.23-1-3.72-1.83-6,.7.31.9,2.6,1.71,2.62a3.85,3.85,0,0,1-.66-1.51,2.51,2.51,0,0,0,1.28.9,1.59,1.59,0,0,1-.83-1.38c.38.76,1.27,1.09,2.49,1.15s2.11-.39,2.49-1.15a1.59,1.59,0,0,1-.83,1.38,2.47,2.47,0,0,0,1.28-.9,3.85,3.85,0,0,1-.66,1.51c.81,0,1-2.31,1.71-2.62-.81,2.23-.1,3.72-1.83,6A4.39,4.39,0,0,0,123.33,71.19Z" transform="translate(10.23 23.73)"/><path class="cls-1" d="M112.52,66.05a13.6,13.6,0,0,0,1.58,4.2,3,3,0,0,1,.29.88c.36,1.84.84,4.6,1.8,5.15-.9-.21-1.48-1.56-1.94-4.5a2.73,2.73,0,0,0-.18-.68,11.45,11.45,0,0,0-.91-1.82,4.89,4.89,0,0,0-.55-.72,1.67,1.67,0,0,1-.43-1.11,2.49,2.49,0,0,0,.54.84A3.39,3.39,0,0,1,112.52,66.05Z" transform="translate(10.23 23.73)"/><ellipse class="cls-1" cx="129.84" cy="98.86" rx="0.25" ry="0.48"/><ellipse class="cls-1" cx="118.87" cy="75.13" rx="0.18" ry="0.57" transform="translate(3.69 35.26) rotate(-5.4)"/><ellipse class="cls-1" cx="118.17" cy="75.33" rx="0.29" ry="0.69" transform="translate(-2.5 49.03) rotate(-11.6)"/><path class="cls-1" d="M70.52,156.08c13.5,6.91,14.53,26.23,2.94,35.1C84.34,180,82.81,164.44,70.52,156.08Z" transform="translate(10.23 23.73)"/><path class="cls-1" d="M60.38,186.67c16.69,3.63,18.78-18.85,7.06-23.12C79.41,169.66,73.57,189.34,60.38,186.67Z" transform="translate(10.23 23.73)"/><path class="cls-1" d="M63.85,171.79a3.23,3.23,0,1,0,3,3.21A3.1,3.1,0,0,0,63.85,171.79Zm-.79,1c-2,1.13-1.13,4.7,1,4.45C61.35,177.71,61.05,173.6,63.06,172.81Z" transform="translate(10.23 23.73)"/><path class="cls-1" d="M62.55,153.9c-22.44,1.56-26.48,33-5.46,42.26-18.25-5.15-21.41-29.62-4.75-40.08-16.12,8.72-16,33,2,40.08-17.11-3.7-19.52-27.38-9-36.72-10.7,9.34-9.81,30.68,6.52,37.43C30.44,191.18,29.16,152.33,62.55,153.9Z" transform="translate(10.23 23.73)"/><path class="cls-1" d="M36,161.41c-14.32,10.38-11.2,29.38,2.55,35.05C27.14,188.27,24.56,174.14,36,161.41Z" transform="translate(10.23 23.73)"/><path class="cls-1" d="M33.81,161.74c-13.28,9.18-12.65,29.07,2.41,35.13C22.79,187.75,23.37,173.23,33.81,161.74Z" transform="translate(10.23 23.73)"/><path class="cls-1" d="M31.4,162.39c-13.9,10.2-11.75,30.34,2.71,35.16C21.35,189.21,20.77,174.16,31.4,162.39Z" transform="translate(10.23 23.73)"/><path class="cls-1" d="M90.84,219.28a1.46,1.46,0,0,0-1.7,1l2.46.73A1.26,1.26,0,0,0,90.84,219.28Zm0,0a1.46,1.46,0,0,0-1.7,1l2.46.73A1.26,1.26,0,0,0,90.84,219.28Zm0,0a1.46,1.46,0,0,0-1.7,1l2.46.73A1.26,1.26,0,0,0,90.84,219.28Zm11.11.84a5.33,5.33,0,0,0-1-.08l-.91,5.22a4.28,4.28,0,0,0,.85.2,2.57,2.57,0,0,0,3.31-2.31A2.4,2.4,0,0,0,102,220.12Zm6.4,2.77c-1-.11-1.58.79-1.69,1.7a1.65,1.65,0,0,0,1.25,2c.83.09,1.55-.62,1.67-1.7C109.67,224.09,109.38,223,108.35,222.89Zm0,0c-1-.11-1.58.79-1.69,1.7a1.65,1.65,0,0,0,1.25,2c.83.09,1.55-.62,1.67-1.7C109.67,224.09,109.38,223,108.35,222.89Zm-6.4-2.77a5.33,5.33,0,0,0-1-.08l-.91,5.22a4.28,4.28,0,0,0,.85.2,2.57,2.57,0,0,0,3.31-2.31A2.4,2.4,0,0,0,102,220.12Zm-11.11-.84a1.46,1.46,0,0,0-1.7,1l2.46.73A1.26,1.26,0,0,0,90.84,219.28Zm0,0a1.46,1.46,0,0,0-1.7,1l2.46.73A1.26,1.26,0,0,0,90.84,219.28Zm11.11.84a5.33,5.33,0,0,0-1-.08l-.91,5.22a4.28,4.28,0,0,0,.85.2,2.57,2.57,0,0,0,3.31-2.31A2.4,2.4,0,0,0,102,220.12Zm6.4,2.77c-1-.11-1.58.79-1.69,1.7a1.65,1.65,0,0,0,1.25,2c.83.09,1.55-.62,1.67-1.7C109.67,224.09,109.38,223,108.35,222.89Zm0,0c-1-.11-1.58.79-1.69,1.7a1.65,1.65,0,0,0,1.25,2c.83.09,1.55-.62,1.67-1.7C109.67,224.09,109.38,223,108.35,222.89Zm-6.4-2.77a5.33,5.33,0,0,0-1-.08l-.91,5.22a4.28,4.28,0,0,0,.85.2,2.57,2.57,0,0,0,3.31-2.31A2.4,2.4,0,0,0,102,220.12Zm-11.11-.84a1.46,1.46,0,0,0-1.7,1l2.46.73A1.26,1.26,0,0,0,90.84,219.28Zm0,0a1.46,1.46,0,0,0-1.7,1l2.46.73A1.26,1.26,0,0,0,90.84,219.28Zm11.11.84a5.33,5.33,0,0,0-1-.08l-.91,5.22a4.28,4.28,0,0,0,.85.2,2.57,2.57,0,0,0,3.31-2.31A2.4,2.4,0,0,0,102,220.12Zm6.4,2.77c-1-.11-1.58.79-1.69,1.7a1.65,1.65,0,0,0,1.25,2c.83.09,1.55-.62,1.67-1.7C109.67,224.09,109.38,223,108.35,222.89Zm17.51-1.33a3.15,3.15,0,0,0-.76.11l.13,2.15.79,0c.91-.06,1.42-.57,1.38-1.22S126.74,221.5,125.86,221.56Zm1.94,4.07c-.06-.92-.87-1.25-1.81-1.19l-.72,0,.15,2.56a5.8,5.8,0,0,0,.73,0C127.05,227,127.86,226.6,127.8,225.63Zm0,0c-.06-.92-.87-1.25-1.81-1.19l-.72,0,.15,2.56a5.8,5.8,0,0,0,.73,0C127.05,227,127.86,226.6,127.8,225.63Zm-1.94-4.07a3.15,3.15,0,0,0-.76.11l.13,2.15.79,0c.91-.06,1.42-.57,1.38-1.22S126.74,221.5,125.86,221.56Zm-17.51,1.33c-1-.11-1.58.79-1.69,1.7a1.65,1.65,0,0,0,1.25,2c.83.09,1.55-.62,1.67-1.7C109.67,224.09,109.38,223,108.35,222.89Zm-6.4-2.77a5.33,5.33,0,0,0-1-.08l-.91,5.22a4.28,4.28,0,0,0,.85.2,2.57,2.57,0,0,0,3.31-2.31A2.4,2.4,0,0,0,102,220.12Zm-11.11-.84a1.46,1.46,0,0,0-1.7,1l2.46.73A1.26,1.26,0,0,0,90.84,219.28Zm0,0a1.46,1.46,0,0,0-1.7,1l2.46.73A1.26,1.26,0,0,0,90.84,219.28Zm11.11.84a5.33,5.33,0,0,0-1-.08l-.91,5.22a4.28,4.28,0,0,0,.85.2,2.57,2.57,0,0,0,3.31-2.31A2.4,2.4,0,0,0,102,220.12Zm6.4,2.77c-1-.11-1.58.79-1.69,1.7a1.65,1.65,0,0,0,1.25,2c.83.09,1.55-.62,1.67-1.7C109.67,224.09,109.38,223,108.35,222.89Zm17.51-1.33a3.15,3.15,0,0,0-.76.11l.13,2.15.79,0c.91-.06,1.42-.57,1.38-1.22S126.74,221.5,125.86,221.56Zm1.94,4.07c-.06-.92-.87-1.25-1.81-1.19l-.72,0,.15,2.56a5.8,5.8,0,0,0,.73,0C127.05,227,127.86,226.6,127.8,225.63Zm0,0c-.06-.92-.87-1.25-1.81-1.19l-.72,0,.15,2.56a5.8,5.8,0,0,0,.73,0C127.05,227,127.86,226.6,127.8,225.63Zm-1.94-4.07a3.15,3.15,0,0,0-.76.11l.13,2.15.79,0c.91-.06,1.42-.57,1.38-1.22S126.74,221.5,125.86,221.56Zm-17.51,1.33c-1-.11-1.58.79-1.69,1.7a1.65,1.65,0,0,0,1.25,2c.83.09,1.55-.62,1.67-1.7C109.67,224.09,109.38,223,108.35,222.89Zm-6.4-2.77a5.33,5.33,0,0,0-1-.08l-.91,5.22a4.28,4.28,0,0,0,.85.2,2.57,2.57,0,0,0,3.31-2.31A2.4,2.4,0,0,0,102,220.12Zm-11.11-.84a1.46,1.46,0,0,0-1.7,1l2.46.73A1.26,1.26,0,0,0,90.84,219.28Zm0,0a1.46,1.46,0,0,0-1.7,1l2.46.73A1.26,1.26,0,0,0,90.84,219.28Zm11.11.84a5.33,5.33,0,0,0-1-.08l-.91,5.22a4.28,4.28,0,0,0,.85.2,2.57,2.57,0,0,0,3.31-2.31A2.4,2.4,0,0,0,102,220.12Zm6.4,2.77c-1-.11-1.58.79-1.69,1.7a1.65,1.65,0,0,0,1.25,2c.83.09,1.55-.62,1.67-1.7C109.67,224.09,109.38,223,108.35,222.89Zm17.51-1.33a3.15,3.15,0,0,0-.76.11l.13,2.15.79,0c.91-.06,1.42-.57,1.38-1.22S126.74,221.5,125.86,221.56Zm1.94,4.07c-.06-.92-.87-1.25-1.81-1.19l-.72,0,.15,2.56a5.8,5.8,0,0,0,.73,0C127.05,227,127.86,226.6,127.8,225.63Zm0,0c-.06-.92-.87-1.25-1.81-1.19l-.72,0,.15,2.56a5.8,5.8,0,0,0,.73,0C127.05,227,127.86,226.6,127.8,225.63Zm-1.94-4.07a3.15,3.15,0,0,0-.76.11l.13,2.15.79,0c.91-.06,1.42-.57,1.38-1.22S126.74,221.5,125.86,221.56Zm-17.51,1.33c-1-.11-1.58.79-1.69,1.7a1.65,1.65,0,0,0,1.25,2c.83.09,1.55-.62,1.67-1.7C109.67,224.09,109.38,223,108.35,222.89Zm-6.4-2.77a5.33,5.33,0,0,0-1-.08l-.91,5.22a4.28,4.28,0,0,0,.85.2,2.57,2.57,0,0,0,3.31-2.31A2.4,2.4,0,0,0,102,220.12Zm-11.11-.84a1.46,1.46,0,0,0-1.7,1l2.46.73A1.26,1.26,0,0,0,90.84,219.28Zm0,0a1.46,1.46,0,0,0-1.7,1l2.46.73A1.26,1.26,0,0,0,90.84,219.28Zm11.11.84a5.33,5.33,0,0,0-1-.08l-.91,5.22a4.28,4.28,0,0,0,.85.2,2.57,2.57,0,0,0,3.31-2.31A2.4,2.4,0,0,0,102,220.12Zm6.4,2.77c-1-.11-1.58.79-1.69,1.7a1.65,1.65,0,0,0,1.25,2c.83.09,1.55-.62,1.67-1.7C109.67,224.09,109.38,223,108.35,222.89Zm17.51-1.33a3.15,3.15,0,0,0-.76.11l.13,2.15.79,0c.91-.06,1.42-.57,1.38-1.22S126.74,221.5,125.86,221.56Zm1.94,4.07c-.06-.92-.87-1.25-1.81-1.19l-.72,0,.15,2.56a5.8,5.8,0,0,0,.73,0C127.05,227,127.86,226.6,127.8,225.63Zm26.81-5.29-.27-.79c-.91.29-1.89.8-1.58,1.69a.77.77,0,0,0,1.05.52,1.19,1.19,0,0,0,.84-1.14A.82.82,0,0,0,154.61,220.34Zm0,0-.27-.79c-.91.29-1.89.8-1.58,1.69a.77.77,0,0,0,1.05.52,1.19,1.19,0,0,0,.84-1.14A.82.82,0,0,0,154.61,220.34Zm-26.81,5.29c-.06-.92-.87-1.25-1.81-1.19l-.72,0,.15,2.56a5.8,5.8,0,0,0,.73,0C127.05,227,127.86,226.6,127.8,225.63Zm-1.94-4.07a3.15,3.15,0,0,0-.76.11l.13,2.15.79,0c.91-.06,1.42-.57,1.38-1.22S126.74,221.5,125.86,221.56Zm-17.51,1.33c-1-.11-1.58.79-1.69,1.7a1.65,1.65,0,0,0,1.25,2c.83.09,1.55-.62,1.67-1.7C109.67,224.09,109.38,223,108.35,222.89Zm-6.4-2.77a5.33,5.33,0,0,0-1-.08l-.91,5.22a4.28,4.28,0,0,0,.85.2,2.57,2.57,0,0,0,3.31-2.31A2.4,2.4,0,0,0,102,220.12Zm-11.11-.84a1.46,1.46,0,0,0-1.7,1l2.46.73A1.26,1.26,0,0,0,90.84,219.28Zm0,0a1.46,1.46,0,0,0-1.7,1l2.46.73A1.26,1.26,0,0,0,90.84,219.28Zm11.11.84a5.33,5.33,0,0,0-1-.08l-.91,5.22a4.28,4.28,0,0,0,.85.2,2.57,2.57,0,0,0,3.31-2.31A2.4,2.4,0,0,0,102,220.12Zm6.4,2.77c-1-.11-1.58.79-1.69,1.7a1.65,1.65,0,0,0,1.25,2c.83.09,1.55-.62,1.67-1.7C109.67,224.09,109.38,223,108.35,222.89Zm17.51-1.33a3.15,3.15,0,0,0-.76.11l.13,2.15.79,0c.91-.06,1.42-.57,1.38-1.22S126.74,221.5,125.86,221.56Zm1.94,4.07c-.06-.92-.87-1.25-1.81-1.19l-.72,0,.15,2.56a5.8,5.8,0,0,0,.73,0C127.05,227,127.86,226.6,127.8,225.63Zm26.81-5.29-.27-.79c-.91.29-1.89.8-1.58,1.69a.77.77,0,0,0,1.05.52,1.19,1.19,0,0,0,.84-1.14A.82.82,0,0,0,154.61,220.34Zm7.38-3.78c-.32-.75-1.1-1.55-2.05-1.14a1.92,1.92,0,0,0,1.44,3.44A1.66,1.66,0,0,0,162,216.56Zm0,0c-.32-.75-1.1-1.55-2.05-1.14a1.92,1.92,0,0,0,1.44,3.44A1.66,1.66,0,0,0,162,216.56Zm-7.38,3.78-.27-.79c-.91.29-1.89.8-1.58,1.69a.77.77,0,0,0,1.05.52,1.19,1.19,0,0,0,.84-1.14A.82.82,0,0,0,154.61,220.34Zm-26.81,5.29c-.06-.92-.87-1.25-1.81-1.19l-.72,0,.15,2.56a5.8,5.8,0,0,0,.73,0C127.05,227,127.86,226.6,127.8,225.63Zm-1.94-4.07a3.15,3.15,0,0,0-.76.11l.13,2.15.79,0c.91-.06,1.42-.57,1.38-1.22S126.74,221.5,125.86,221.56Zm-17.51,1.33c-1-.11-1.58.79-1.69,1.7a1.65,1.65,0,0,0,1.25,2c.83.09,1.55-.62,1.67-1.7C109.67,224.09,109.38,223,108.35,222.89Zm-6.4-2.77a5.33,5.33,0,0,0-1-.08l-.91,5.22a4.28,4.28,0,0,0,.85.2,2.57,2.57,0,0,0,3.31-2.31A2.4,2.4,0,0,0,102,220.12Zm-11.11-.84a1.46,1.46,0,0,0-1.7,1l2.46.73A1.26,1.26,0,0,0,90.84,219.28Zm0,0a1.46,1.46,0,0,0-1.7,1l2.46.73A1.26,1.26,0,0,0,90.84,219.28Zm11.11.84a5.33,5.33,0,0,0-1-.08l-.91,5.22a4.28,4.28,0,0,0,.85.2,2.57,2.57,0,0,0,3.31-2.31A2.4,2.4,0,0,0,102,220.12Zm6.4,2.77c-1-.11-1.58.79-1.69,1.7a1.65,1.65,0,0,0,1.25,2c.83.09,1.55-.62,1.67-1.7C109.67,224.09,109.38,223,108.35,222.89Zm17.51-1.33a3.15,3.15,0,0,0-.76.11l.13,2.15.79,0c.91-.06,1.42-.57,1.38-1.22S126.74,221.5,125.86,221.56Zm1.94,4.07c-.06-.92-.87-1.25-1.81-1.19l-.72,0,.15,2.56a5.8,5.8,0,0,0,.73,0C127.05,227,127.86,226.6,127.8,225.63Zm26.81-5.29-.27-.79c-.91.29-1.89.8-1.58,1.69a.77.77,0,0,0,1.05.52,1.19,1.19,0,0,0,.84-1.14A.82.82,0,0,0,154.61,220.34Zm7.38-3.78c-.32-.75-1.1-1.55-2.05-1.14a1.92,1.92,0,0,0,1.44,3.44A1.66,1.66,0,0,0,162,216.56Zm0,0c-.32-.75-1.1-1.55-2.05-1.14a1.92,1.92,0,0,0,1.44,3.44A1.66,1.66,0,0,0,162,216.56Zm-7.38,3.78-.27-.79c-.91.29-1.89.8-1.58,1.69a.77.77,0,0,0,1.05.52,1.19,1.19,0,0,0,.84-1.14A.82.82,0,0,0,154.61,220.34Zm-26.81,5.29c-.06-.92-.87-1.25-1.81-1.19l-.72,0,.15,2.56a5.8,5.8,0,0,0,.73,0C127.05,227,127.86,226.6,127.8,225.63Zm-1.94-4.07a3.15,3.15,0,0,0-.76.11l.13,2.15.79,0c.91-.06,1.42-.57,1.38-1.22S126.74,221.5,125.86,221.56Zm-17.51,1.33c-1-.11-1.58.79-1.69,1.7a1.65,1.65,0,0,0,1.25,2c.83.09,1.55-.62,1.67-1.7C109.67,224.09,109.38,223,108.35,222.89Zm-6.4-2.77a5.33,5.33,0,0,0-1-.08l-.91,5.22a4.28,4.28,0,0,0,.85.2,2.57,2.57,0,0,0,3.31-2.31A2.4,2.4,0,0,0,102,220.12Zm-11.11-.84a1.46,1.46,0,0,0-1.7,1l2.46.73A1.26,1.26,0,0,0,90.84,219.28Zm0,0a1.46,1.46,0,0,0-1.7,1l2.46.73A1.26,1.26,0,0,0,90.84,219.28Zm11.11.84a5.33,5.33,0,0,0-1-.08l-.91,5.22a4.28,4.28,0,0,0,.85.2,2.57,2.57,0,0,0,3.31-2.31A2.4,2.4,0,0,0,102,220.12Zm6.4,2.77c-1-.11-1.58.79-1.69,1.7a1.65,1.65,0,0,0,1.25,2c.83.09,1.55-.62,1.67-1.7C109.67,224.09,109.38,223,108.35,222.89Zm17.51-1.33a3.15,3.15,0,0,0-.76.11l.13,2.15.79,0c.91-.06,1.42-.57,1.38-1.22S126.74,221.5,125.86,221.56Zm1.94,4.07c-.06-.92-.87-1.25-1.81-1.19l-.72,0,.15,2.56a5.8,5.8,0,0,0,.73,0C127.05,227,127.86,226.6,127.8,225.63Zm26.81-5.29-.27-.79c-.91.29-1.89.8-1.58,1.69a.77.77,0,0,0,1.05.52,1.19,1.19,0,0,0,.84-1.14A.82.82,0,0,0,154.61,220.34Zm7.38-3.78c-.32-.75-1.1-1.55-2.05-1.14a1.92,1.92,0,0,0,1.44,3.44A1.66,1.66,0,0,0,162,216.56Zm7.73-6a1.46,1.46,0,0,0-.48,1.9l2.24-1.25A1.26,1.26,0,0,0,169.72,210.57Zm0,0a1.46,1.46,0,0,0-.48,1.9l2.24-1.25A1.26,1.26,0,0,0,169.72,210.57Zm-7.73,6c-.32-.75-1.1-1.55-2.05-1.14a1.92,1.92,0,0,0,1.44,3.44A1.66,1.66,0,0,0,162,216.56Zm-7.38,3.78-.27-.79c-.91.29-1.89.8-1.58,1.69a.77.77,0,0,0,1.05.52,1.19,1.19,0,0,0,.84-1.14A.82.82,0,0,0,154.61,220.34Zm-26.81,5.29c-.06-.92-.87-1.25-1.81-1.19l-.72,0,.15,2.56a5.8,5.8,0,0,0,.73,0C127.05,227,127.86,226.6,127.8,225.63Zm-.4-3.07c-.05-.78-.66-1.06-1.54-1a3.15,3.15,0,0,0-.76.11l.13,2.15.79,0C126.93,223.72,127.44,223.21,127.4,222.56Zm-19.05.33c-1-.11-1.58.79-1.69,1.7a1.65,1.65,0,0,0,1.25,2c.83.09,1.55-.62,1.67-1.7C109.67,224.09,109.38,223,108.35,222.89Zm-6.4-2.77a5.33,5.33,0,0,0-1-.08l-.91,5.22a4.28,4.28,0,0,0,.85.2,2.57,2.57,0,0,0,3.31-2.31A2.4,2.4,0,0,0,102,220.12Zm-11.11-.84a1.46,1.46,0,0,0-1.7,1l2.46.73A1.26,1.26,0,0,0,90.84,219.28Zm85.29-16.56-1.08.74a99,99,0,0,1-111-.63l-4.89,7.06a106.52,106.52,0,0,0,60.28,19H120a106.53,106.53,0,0,0,59.85-18.26l1.18-.81ZM69.06,214.85,65.79,213l3.35-5.83,3.14,1.8-.36.64-2.4-1.38-1,1.84,2.26,1.3-.36.63-2.26-1.3-1.21,2.1,2.53,1.45Zm3.61,1.87-.13-1.29c0-.33-.06-.64-.08-1h0c-.27.18-.54.34-.83.51l-1.12.65-.86-.44,2.65-1.41-.37-2.85.86.45.14,1.24c0,.32.06.61.08.92h0l.79-.49,1.08-.6.84.43-2.53,1.33.37,3Zm5.49-2.08a1.67,1.67,0,0,0-2.31,1,1.65,1.65,0,0,0,.77,2.34,2.4,2.4,0,0,0,1.08.23l-.14.67a3.33,3.33,0,0,1-1.38-.33A2.29,2.29,0,0,1,75,215.26,2.45,2.45,0,0,1,78.46,214a3.14,3.14,0,0,1,1,.73l-.47.54A2,2,0,0,0,78.16,214.64ZM82.4,221l-.72-.28.24-.75h0a1.84,1.84,0,0,1-1.82.24c-.7-.28-1.39-1-.76-2.59L80.39,215l.81.33-1,2.48c-.34.85-.31,1.53.43,1.83a1.27,1.27,0,0,0,1.37-.31,1.36,1.36,0,0,0,.24-.39l1.1-2.75.82.33-1.31,3.26C82.67,220.22,82.51,220.63,82.4,221Zm5.13-2.42a1.77,1.77,0,0,0-.84-.59.71.71,0,0,0-1,.36c-.13.37.09.64.6,1.07.69.58,1,1.11.72,1.79s-1.1,1.15-2.18.78a2.77,2.77,0,0,1-1.17-.76l.42-.56a2.44,2.44,0,0,0,1,.71c.6.21,1,0,1.12-.37s0-.7-.55-1.14c-.72-.57-1-1.16-.76-1.71a1.5,1.5,0,0,1,2-.79,2.48,2.48,0,0,1,1,.68Zm4.82,2.88a3.75,3.75,0,0,1-.15.38l-3.25-1a1.55,1.55,0,0,0,1.11,2.08,3.18,3.18,0,0,0,1.35.15l0,.64a3.8,3.8,0,0,1-1.62-.17,2.25,2.25,0,0,1-1.58-3,2.35,2.35,0,0,1,2.92-1.85A2,2,0,0,1,92.35,221.45Zm3.8-.41a1.78,1.78,0,0,0-.89-.51.69.69,0,0,0-.94.44c-.1.38.14.63.69,1,.73.52,1,1,.87,1.73s-1,1.24-2.1,1a2.8,2.8,0,0,1-1.24-.65l.38-.6a2.32,2.32,0,0,0,1,.63c.62.15,1-.09,1.09-.47s-.09-.69-.66-1.08c-.76-.52-1-1.08-.9-1.64a1.5,1.5,0,0,1,2-1,2.38,2.38,0,0,1,1.08.58Zm8.93,2.23a3.52,3.52,0,0,1-1.4,2.41,4.14,4.14,0,0,1-3.1.44,11.77,11.77,0,0,1-1.53-.35l1.14-6.51a12,12,0,0,1,1.84.18,3.85,3.85,0,0,1,2.54,1.29A3.12,3.12,0,0,1,105.08,223.27Zm5.4,1.7a2.37,2.37,0,0,1-2.68,2.28,2.3,2.3,0,0,1-2-2.73,2.36,2.36,0,0,1,2.67-2.28A2.29,2.29,0,0,1,110.48,225Zm5.32-.09-.17,2.88-.87,0,.16-2.78c0-.77-.2-1.44-1-1.49a1.24,1.24,0,0,0-1.22.83,1.18,1.18,0,0,0-.09.4l-.17,2.9-.88,0,.21-3.52c0-.5,0-.91,0-1.3l.77,0v.8h0a1.78,1.78,0,0,1,1.65-.81C114.89,222.77,115.9,223.23,115.8,224.88Zm1.36-1.56-.56.06a14.57,14.57,0,0,0,.65-2.33l.91-.06A11.41,11.41,0,0,1,117.16,223.32Zm4.11.37-1.26,0,0,2.61c0,.59.15.94.64.94a1.66,1.66,0,0,0,.51-.05l0,.66a2.19,2.19,0,0,1-.78.11,1.22,1.22,0,0,1-.94-.38,1.79,1.79,0,0,1-.32-1.27l0-2.63h-.75V223h.75l0-1.16.86-.21,0,1.39,1.26,0Zm7,3.27a3.38,3.38,0,0,1-2.28.77,11.8,11.8,0,0,1-1.35,0l-.4-6.6a8.71,8.71,0,0,1,1.57-.24,2.8,2.8,0,0,1,1.87.38,1.41,1.41,0,0,1,.63,1.15,1.58,1.58,0,0,1-1,1.54v0a1.74,1.74,0,0,1,1.48,1.6A1.79,1.79,0,0,1,128.23,227Zm5.24,0-.14-.78h0a1.83,1.83,0,0,1-1.49,1.07c-.75.09-1.7-.23-1.89-1.91l-.32-2.81.87-.1.3,2.66c.11.91.46,1.49,1.25,1.4a1.26,1.26,0,0,0,1.06-.92,1.39,1.39,0,0,0,0-.46l-.33-2.94.87-.1.4,3.49c.06.5.12.93.19,1.3Zm3.77-4.71a1.22,1.22,0,0,0-1,1.29,1.93,1.93,0,0,0,0,.41l.4,2.55-.86.13-.52-3.28c-.09-.56-.17-1-.27-1.48l.76-.12.17.93h0a1.47,1.47,0,0,1,1.16-1.26h.25l.13.82A1.62,1.62,0,0,0,137.24,222.28Zm5.19,3.18-.56-2.73c-.15-.76-.56-1.33-1.37-1.17a1.26,1.26,0,0,0-1,1.11,1.22,1.22,0,0,0,0,.42l.58,2.84-.86.18-.7-3.46c-.1-.48-.19-.88-.3-1.27l.76-.15.21.77h0a1.77,1.77,0,0,1,1.38-1.2c.66-.13,1.76.05,2.09,1.67l.57,2.83Zm7.48-1.8a3.15,3.15,0,0,1-4.13-2.36,3.36,3.36,0,0,1,2.41-4.36,3.59,3.59,0,0,1,1.62-.14v.73a3.12,3.12,0,0,0-1.38.11,2.49,2.49,0,0,0-1.76,3.38,2.44,2.44,0,0,0,3.22,1.89,3.39,3.39,0,0,0,1.29-.65l.36.61A4.21,4.21,0,0,1,149.91,223.66Zm5.35-1.83-.26-.55h0a1.79,1.79,0,0,1-1.17,1.16,1.37,1.37,0,0,1-1.84-.84c-.38-1.1.4-2,2.17-2.64l0-.09a1,1,0,0,0-1.4-.7,2.43,2.43,0,0,0-1.07.74l-.38-.48a3.1,3.1,0,0,1,1.37-.92A1.71,1.71,0,0,1,155,218.8l.59,1.71a5.94,5.94,0,0,0,.45,1.07Zm2.15-.78-2.53-6.62.82-.31,2.53,6.62Zm4.19-1.57a2.29,2.29,0,0,1-3.1-1.38,2.35,2.35,0,0,1,1.2-3.29,2.28,2.28,0,0,1,3.11,1.37A2.36,2.36,0,0,1,161.6,219.48Zm3.34-1.61-1.44-3c-.24-.51-.46-.95-.68-1.34l.69-.33.44.84,0,0a1.45,1.45,0,0,1,.75-1.53l.24-.08.36.75a1.25,1.25,0,0,0-.29.1,1.22,1.22,0,0,0-.57,1.52,1.67,1.67,0,0,0,.14.39l1.11,2.32Zm.14-7a.54.54,0,0,1,.24-.74.53.53,0,0,1,.73.24.52.52,0,0,1-.25.74A.53.53,0,0,1,165.08,210.92Zm2.93,5.45-2.21-4.29.78-.4,2.21,4.29Zm4-2a2.24,2.24,0,0,1-3.26-1,2.35,2.35,0,0,1,.7-3.38,2,2,0,0,1,2.85,1c.09.16.14.29.18.37l-3,1.66a1.55,1.55,0,0,0,2.26.65,3.27,3.27,0,0,0,1-.87l.44.48A4,4,0,0,1,172,214.33Zm3.6-2.12a2.75,2.75,0,0,1-1.33.44l-.16-.69a2.25,2.25,0,0,0,1.16-.31c.55-.34.64-.77.42-1.1s-.55-.43-1.23-.29c-.9.2-1.5,0-1.8-.49a1.49,1.49,0,0,1,.67-2.08,2.39,2.39,0,0,1,1.16-.37l.15.66a1.94,1.94,0,0,0-1,.28.71.71,0,0,0-.34,1c.21.34.55.34,1.21.21.88-.17,1.46,0,1.84.57S176.61,211.61,175.63,212.21Zm2.81-1.78a.63.63,0,0,1-.69-1.05.63.63,0,0,1,.69,1.05Zm-8.72.14a1.46,1.46,0,0,0-.48,1.9l2.24-1.25A1.26,1.26,0,0,0,169.72,210.57Zm-9.78,4.85a1.92,1.92,0,0,0,1.44,3.44,1.66,1.66,0,0,0,.61-2.3C161.67,215.81,160.89,215,159.94,215.42Zm-5.6,4.13c-.91.29-1.89.8-1.58,1.69a.77.77,0,0,0,1.05.52,1.19,1.19,0,0,0,.84-1.14.82.82,0,0,0,0-.28ZM126,224.44l-.72,0,.15,2.56a5.8,5.8,0,0,0,.73,0c.9-.06,1.71-.44,1.65-1.41S126.93,224.38,126,224.44Zm1.41-1.88c-.05-.78-.66-1.06-1.54-1a3.15,3.15,0,0,0-.76.11l.13,2.15.79,0C126.93,223.72,127.44,223.21,127.4,222.56Zm-19.05.33c-1-.11-1.58.79-1.69,1.7a1.65,1.65,0,0,0,1.25,2c.83.09,1.55-.62,1.67-1.7C109.67,224.09,109.38,223,108.35,222.89Zm-6.4-2.77a5.33,5.33,0,0,0-1-.08l-.91,5.22a4.28,4.28,0,0,0,.85.2,2.57,2.57,0,0,0,3.31-2.31A2.4,2.4,0,0,0,102,220.12Zm-11.11-.84a1.46,1.46,0,0,0-1.7,1l2.46.73A1.26,1.26,0,0,0,90.84,219.28Zm0,0a1.46,1.46,0,0,0-1.7,1l2.46.73A1.26,1.26,0,0,0,90.84,219.28Zm11.11.84a5.33,5.33,0,0,0-1-.08l-.91,5.22a4.28,4.28,0,0,0,.85.2,2.57,2.57,0,0,0,3.31-2.31A2.4,2.4,0,0,0,102,220.12Zm6.4,2.77c-1-.11-1.58.79-1.69,1.7a1.65,1.65,0,0,0,1.25,2c.83.09,1.55-.62,1.67-1.7C109.67,224.09,109.38,223,108.35,222.89Zm17.51-1.33a3.15,3.15,0,0,0-.76.11l.13,2.15.79,0c.91-.06,1.42-.57,1.38-1.22S126.74,221.5,125.86,221.56Zm1.94,4.07c-.06-.92-.87-1.25-1.81-1.19l-.72,0,.15,2.56a5.8,5.8,0,0,0,.73,0C127.05,227,127.86,226.6,127.8,225.63Zm26.81-5.29-.27-.79c-.91.29-1.89.8-1.58,1.69a.77.77,0,0,0,1.05.52,1.19,1.19,0,0,0,.84-1.14A.82.82,0,0,0,154.61,220.34Zm7.38-3.78c-.32-.75-1.1-1.55-2.05-1.14a1.92,1.92,0,0,0,1.44,3.44A1.66,1.66,0,0,0,162,216.56Zm7.73-6a1.46,1.46,0,0,0-.48,1.9l2.24-1.25A1.26,1.26,0,0,0,169.72,210.57Zm0,0a1.46,1.46,0,0,0-.48,1.9l2.24-1.25A1.26,1.26,0,0,0,169.72,210.57Zm-7.73,6c-.32-.75-1.1-1.55-2.05-1.14a1.92,1.92,0,0,0,1.44,3.44A1.66,1.66,0,0,0,162,216.56Zm-7.38,3.78-.27-.79c-.91.29-1.89.8-1.58,1.69a.77.77,0,0,0,1.05.52,1.19,1.19,0,0,0,.84-1.14A.82.82,0,0,0,154.61,220.34Zm-26.81,5.29c-.06-.92-.87-1.25-1.81-1.19l-.72,0,.15,2.56a5.8,5.8,0,0,0,.73,0C127.05,227,127.86,226.6,127.8,225.63Zm-1.94-4.07a3.15,3.15,0,0,0-.76.11l.13,2.15.79,0c.91-.06,1.42-.57,1.38-1.22S126.74,221.5,125.86,221.56Zm-17.51,1.33c-1-.11-1.58.79-1.69,1.7a1.65,1.65,0,0,0,1.25,2c.83.09,1.55-.62,1.67-1.7C109.67,224.09,109.38,223,108.35,222.89Zm-6.4-2.77a5.33,5.33,0,0,0-1-.08l-.91,5.22a4.28,4.28,0,0,0,.85.2,2.57,2.57,0,0,0,3.31-2.31A2.4,2.4,0,0,0,102,220.12Zm-11.11-.84a1.46,1.46,0,0,0-1.7,1l2.46.73A1.26,1.26,0,0,0,90.84,219.28Zm0,0a1.46,1.46,0,0,0-1.7,1l2.46.73A1.26,1.26,0,0,0,90.84,219.28Zm11.11.84a5.33,5.33,0,0,0-1-.08l-.91,5.22a4.28,4.28,0,0,0,.85.2,2.57,2.57,0,0,0,3.31-2.31A2.4,2.4,0,0,0,102,220.12Zm6.4,2.77c-1-.11-1.58.79-1.69,1.7a1.65,1.65,0,0,0,1.25,2c.83.09,1.55-.62,1.67-1.7C109.67,224.09,109.38,223,108.35,222.89Zm17.51-1.33a3.15,3.15,0,0,0-.76.11l.13,2.15.79,0c.91-.06,1.42-.57,1.38-1.22S126.74,221.5,125.86,221.56Zm1.94,4.07c-.06-.92-.87-1.25-1.81-1.19l-.72,0,.15,2.56a5.8,5.8,0,0,0,.73,0C127.05,227,127.86,226.6,127.8,225.63Zm26.81-5.29-.27-.79c-.91.29-1.89.8-1.58,1.69a.77.77,0,0,0,1.05.52,1.19,1.19,0,0,0,.84-1.14A.82.82,0,0,0,154.61,220.34Zm7.38-3.78c-.32-.75-1.1-1.55-2.05-1.14a1.92,1.92,0,0,0,1.44,3.44A1.66,1.66,0,0,0,162,216.56Zm0,0c-.32-.75-1.1-1.55-2.05-1.14a1.92,1.92,0,0,0,1.44,3.44A1.66,1.66,0,0,0,162,216.56Zm-7.38,3.78-.27-.79c-.91.29-1.89.8-1.58,1.69a.77.77,0,0,0,1.05.52,1.19,1.19,0,0,0,.84-1.14A.82.82,0,0,0,154.61,220.34Zm-26.81,5.29c-.06-.92-.87-1.25-1.81-1.19l-.72,0,.15,2.56a5.8,5.8,0,0,0,.73,0C127.05,227,127.86,226.6,127.8,225.63Zm-1.94-4.07a3.15,3.15,0,0,0-.76.11l.13,2.15.79,0c.91-.06,1.42-.57,1.38-1.22S126.74,221.5,125.86,221.56Zm-17.51,1.33c-1-.11-1.58.79-1.69,1.7a1.65,1.65,0,0,0,1.25,2c.83.09,1.55-.62,1.67-1.7C109.67,224.09,109.38,223,108.35,222.89Zm-6.4-2.77a5.33,5.33,0,0,0-1-.08l-.91,5.22a4.28,4.28,0,0,0,.85.2,2.57,2.57,0,0,0,3.31-2.31A2.4,2.4,0,0,0,102,220.12Zm-11.11-.84a1.46,1.46,0,0,0-1.7,1l2.46.73A1.26,1.26,0,0,0,90.84,219.28Zm0,0a1.46,1.46,0,0,0-1.7,1l2.46.73A1.26,1.26,0,0,0,90.84,219.28Zm11.11.84a5.33,5.33,0,0,0-1-.08l-.91,5.22a4.28,4.28,0,0,0,.85.2,2.57,2.57,0,0,0,3.31-2.31A2.4,2.4,0,0,0,102,220.12Zm6.4,2.77c-1-.11-1.58.79-1.69,1.7a1.65,1.65,0,0,0,1.25,2c.83.09,1.55-.62,1.67-1.7C109.67,224.09,109.38,223,108.35,222.89Zm17.51-1.33a3.15,3.15,0,0,0-.76.11l.13,2.15.79,0c.91-.06,1.42-.57,1.38-1.22S126.74,221.5,125.86,221.56Zm1.94,4.07c-.06-.92-.87-1.25-1.81-1.19l-.72,0,.15,2.56a5.8,5.8,0,0,0,.73,0C127.05,227,127.86,226.6,127.8,225.63Zm26.81-5.29-.27-.79c-.91.29-1.89.8-1.58,1.69a.77.77,0,0,0,1.05.52,1.19,1.19,0,0,0,.84-1.14A.82.82,0,0,0,154.61,220.34Zm7.38-3.78c-.32-.75-1.1-1.55-2.05-1.14a1.92,1.92,0,0,0,1.44,3.44A1.66,1.66,0,0,0,162,216.56Zm0,0c-.32-.75-1.1-1.55-2.05-1.14a1.92,1.92,0,0,0,1.44,3.44A1.66,1.66,0,0,0,162,216.56Zm-7.38,3.78-.27-.79c-.91.29-1.89.8-1.58,1.69a.77.77,0,0,0,1.05.52,1.19,1.19,0,0,0,.84-1.14A.82.82,0,0,0,154.61,220.34Zm-26.81,5.29c-.06-.92-.87-1.25-1.81-1.19l-.72,0,.15,2.56a5.8,5.8,0,0,0,.73,0C127.05,227,127.86,226.6,127.8,225.63Zm-1.94-4.07a3.15,3.15,0,0,0-.76.11l.13,2.15.79,0c.91-.06,1.42-.57,1.38-1.22S126.74,221.5,125.86,221.56Zm-17.51,1.33c-1-.11-1.58.79-1.69,1.7a1.65,1.65,0,0,0,1.25,2c.83.09,1.55-.62,1.67-1.7C109.67,224.09,109.38,223,108.35,222.89Zm-6.4-2.77a5.33,5.33,0,0,0-1-.08l-.91,5.22a4.28,4.28,0,0,0,.85.2,2.57,2.57,0,0,0,3.31-2.31A2.4,2.4,0,0,0,102,220.12Zm-11.11-.84a1.46,1.46,0,0,0-1.7,1l2.46.73A1.26,1.26,0,0,0,90.84,219.28Zm0,0a1.46,1.46,0,0,0-1.7,1l2.46.73A1.26,1.26,0,0,0,90.84,219.28Zm11.11.84a5.33,5.33,0,0,0-1-.08l-.91,5.22a4.28,4.28,0,0,0,.85.2,2.57,2.57,0,0,0,3.31-2.31A2.4,2.4,0,0,0,102,220.12Zm6.4,2.77c-1-.11-1.58.79-1.69,1.7a1.65,1.65,0,0,0,1.25,2c.83.09,1.55-.62,1.67-1.7C109.67,224.09,109.38,223,108.35,222.89Zm17.51-1.33a3.15,3.15,0,0,0-.76.11l.13,2.15.79,0c.91-.06,1.42-.57,1.38-1.22S126.74,221.5,125.86,221.56Zm1.94,4.07c-.06-.92-.87-1.25-1.81-1.19l-.72,0,.15,2.56a5.8,5.8,0,0,0,.73,0C127.05,227,127.86,226.6,127.8,225.63Zm26.81-5.29-.27-.79c-.91.29-1.89.8-1.58,1.69a.77.77,0,0,0,1.05.52,1.19,1.19,0,0,0,.84-1.14A.82.82,0,0,0,154.61,220.34Zm0,0-.27-.79c-.91.29-1.89.8-1.58,1.69a.77.77,0,0,0,1.05.52,1.19,1.19,0,0,0,.84-1.14A.82.82,0,0,0,154.61,220.34Zm-26.81,5.29c-.06-.92-.87-1.25-1.81-1.19l-.72,0,.15,2.56a5.8,5.8,0,0,0,.73,0C127.05,227,127.86,226.6,127.8,225.63Zm-1.94-4.07a3.15,3.15,0,0,0-.76.11l.13,2.15.79,0c.91-.06,1.42-.57,1.38-1.22S126.74,221.5,125.86,221.56Zm-17.51,1.33c-1-.11-1.58.79-1.69,1.7a1.65,1.65,0,0,0,1.25,2c.83.09,1.55-.62,1.67-1.7C109.67,224.09,109.38,223,108.35,222.89Zm-6.4-2.77a5.33,5.33,0,0,0-1-.08l-.91,5.22a4.28,4.28,0,0,0,.85.2,2.57,2.57,0,0,0,3.31-2.31A2.4,2.4,0,0,0,102,220.12Zm-11.11-.84a1.46,1.46,0,0,0-1.7,1l2.46.73A1.26,1.26,0,0,0,90.84,219.28Zm0,0a1.46,1.46,0,0,0-1.7,1l2.46.73A1.26,1.26,0,0,0,90.84,219.28Zm11.11.84a5.33,5.33,0,0,0-1-.08l-.91,5.22a4.28,4.28,0,0,0,.85.2,2.57,2.57,0,0,0,3.31-2.31A2.4,2.4,0,0,0,102,220.12Zm6.4,2.77c-1-.11-1.58.79-1.69,1.7a1.65,1.65,0,0,0,1.25,2c.83.09,1.55-.62,1.67-1.7C109.67,224.09,109.38,223,108.35,222.89Zm17.51-1.33a3.15,3.15,0,0,0-.76.11l.13,2.15.79,0c.91-.06,1.42-.57,1.38-1.22S126.74,221.5,125.86,221.56Zm1.94,4.07c-.06-.92-.87-1.25-1.81-1.19l-.72,0,.15,2.56a5.8,5.8,0,0,0,.73,0C127.05,227,127.86,226.6,127.8,225.63Zm0,0c-.06-.92-.87-1.25-1.81-1.19l-.72,0,.15,2.56a5.8,5.8,0,0,0,.73,0C127.05,227,127.86,226.6,127.8,225.63Zm-1.94-4.07a3.15,3.15,0,0,0-.76.11l.13,2.15.79,0c.91-.06,1.42-.57,1.38-1.22S126.74,221.5,125.86,221.56Zm-17.51,1.33c-1-.11-1.58.79-1.69,1.7a1.65,1.65,0,0,0,1.25,2c.83.09,1.55-.62,1.67-1.7C109.67,224.09,109.38,223,108.35,222.89Zm-6.4-2.77a5.33,5.33,0,0,0-1-.08l-.91,5.22a4.28,4.28,0,0,0,.85.2,2.57,2.57,0,0,0,3.31-2.31A2.4,2.4,0,0,0,102,220.12Zm-11.11-.84a1.46,1.46,0,0,0-1.7,1l2.46.73A1.26,1.26,0,0,0,90.84,219.28Zm0,0a1.46,1.46,0,0,0-1.7,1l2.46.73A1.26,1.26,0,0,0,90.84,219.28Zm11.11.84a5.33,5.33,0,0,0-1-.08l-.91,5.22a4.28,4.28,0,0,0,.85.2,2.57,2.57,0,0,0,3.31-2.31A2.4,2.4,0,0,0,102,220.12Zm6.4,2.77c-1-.11-1.58.79-1.69,1.7a1.65,1.65,0,0,0,1.25,2c.83.09,1.55-.62,1.67-1.7C109.67,224.09,109.38,223,108.35,222.89Zm17.51-1.33a3.15,3.15,0,0,0-.76.11l.13,2.15.79,0c.91-.06,1.42-.57,1.38-1.22S126.74,221.5,125.86,221.56Zm1.94,4.07c-.06-.92-.87-1.25-1.81-1.19l-.72,0,.15,2.56a5.8,5.8,0,0,0,.73,0C127.05,227,127.86,226.6,127.8,225.63Zm0,0c-.06-.92-.87-1.25-1.81-1.19l-.72,0,.15,2.56a5.8,5.8,0,0,0,.73,0C127.05,227,127.86,226.6,127.8,225.63Zm-1.94-4.07a3.15,3.15,0,0,0-.76.11l.13,2.15.79,0c.91-.06,1.42-.57,1.38-1.22S126.74,221.5,125.86,221.56Zm-17.51,1.33c-1-.11-1.58.79-1.69,1.7a1.65,1.65,0,0,0,1.25,2c.83.09,1.55-.62,1.67-1.7C109.67,224.09,109.38,223,108.35,222.89Zm-6.4-2.77a5.33,5.33,0,0,0-1-.08l-.91,5.22a4.28,4.28,0,0,0,.85.2,2.57,2.57,0,0,0,3.31-2.31A2.4,2.4,0,0,0,102,220.12Zm-11.11-.84a1.46,1.46,0,0,0-1.7,1l2.46.73A1.26,1.26,0,0,0,90.84,219.28Zm0,0a1.46,1.46,0,0,0-1.7,1l2.46.73A1.26,1.26,0,0,0,90.84,219.28Zm11.11.84a5.33,5.33,0,0,0-1-.08l-.91,5.22a4.28,4.28,0,0,0,.85.2,2.57,2.57,0,0,0,3.31-2.31A2.4,2.4,0,0,0,102,220.12Zm6.4,2.77c-1-.11-1.58.79-1.69,1.7a1.65,1.65,0,0,0,1.25,2c.83.09,1.55-.62,1.67-1.7C109.67,224.09,109.38,223,108.35,222.89Zm0,0c-1-.11-1.58.79-1.69,1.7a1.65,1.65,0,0,0,1.25,2c.83.09,1.55-.62,1.67-1.7C109.67,224.09,109.38,223,108.35,222.89Zm-6.4-2.77a5.33,5.33,0,0,0-1-.08l-.91,5.22a4.28,4.28,0,0,0,.85.2,2.57,2.57,0,0,0,3.31-2.31A2.4,2.4,0,0,0,102,220.12Zm-11.11-.84a1.46,1.46,0,0,0-1.7,1l2.46.73A1.26,1.26,0,0,0,90.84,219.28Zm0,0a1.46,1.46,0,0,0-1.7,1l2.46.73A1.26,1.26,0,0,0,90.84,219.28Zm11.11.84a5.33,5.33,0,0,0-1-.08l-.91,5.22a4.28,4.28,0,0,0,.85.2,2.57,2.57,0,0,0,3.31-2.31A2.4,2.4,0,0,0,102,220.12Zm6.4,2.77c-1-.11-1.58.79-1.69,1.7a1.65,1.65,0,0,0,1.25,2c.83.09,1.55-.62,1.67-1.7C109.67,224.09,109.38,223,108.35,222.89Zm0,0c-1-.11-1.58.79-1.69,1.7a1.65,1.65,0,0,0,1.25,2c.83.09,1.55-.62,1.67-1.7C109.67,224.09,109.38,223,108.35,222.89Zm-6.4-2.77a5.33,5.33,0,0,0-1-.08l-.91,5.22a4.28,4.28,0,0,0,.85.2,2.57,2.57,0,0,0,3.31-2.31A2.4,2.4,0,0,0,102,220.12Zm-11.11-.84a1.46,1.46,0,0,0-1.7,1l2.46.73A1.26,1.26,0,0,0,90.84,219.28Zm0,0a1.46,1.46,0,0,0-1.7,1l2.46.73A1.26,1.26,0,0,0,90.84,219.28Zm11.11.84a5.33,5.33,0,0,0-1-.08l-.91,5.22a4.28,4.28,0,0,0,.85.2,2.57,2.57,0,0,0,3.31-2.31A2.4,2.4,0,0,0,102,220.12Zm0,0a5.33,5.33,0,0,0-1-.08l-.91,5.22a4.28,4.28,0,0,0,.85.2,2.57,2.57,0,0,0,3.31-2.31A2.4,2.4,0,0,0,102,220.12Zm-11.11-.84a1.46,1.46,0,0,0-1.7,1l2.46.73A1.26,1.26,0,0,0,90.84,219.28Zm0,0a1.46,1.46,0,0,0-1.7,1l2.46.73A1.26,1.26,0,0,0,90.84,219.28Zm0,0a1.46,1.46,0,0,0-1.7,1l2.46.73A1.26,1.26,0,0,0,90.84,219.28Z" transform="translate(10.23 23.73)"/><path class="cls-1" d="M14.57,82.59l-.48,2.12L8.63,83.46l.48-2.12c.54-2.32,1.43-3.4,3.34-3S15.1,80.27,14.57,82.59Z" transform="translate(10.23 23.73)"/><path class="cls-1" d="M25.58,55.56c-3.71-1.81-6.58-1.35-7.78,1.1s.21,5,3.92,6.82,6.77,1.44,8-1S29.29,57.37,25.58,55.56Zm0,0c-3.71-1.81-6.58-1.35-7.78,1.1s.21,5,3.92,6.82,6.77,1.44,8-1S29.29,57.37,25.58,55.56Zm0,0c-3.71-1.81-6.58-1.35-7.78,1.1s.21,5,3.92,6.82,6.77,1.44,8-1S29.29,57.37,25.58,55.56Zm0,0c-3.71-1.81-6.58-1.35-7.78,1.1s.21,5,3.92,6.82,6.77,1.44,8-1S29.29,57.37,25.58,55.56Zm0,0c-3.71-1.81-6.58-1.35-7.78,1.1s.21,5,3.92,6.82,6.77,1.44,8-1S29.29,57.37,25.58,55.56Zm0,0c-3.71-1.81-6.58-1.35-7.78,1.1s.21,5,3.92,6.82,6.77,1.44,8-1S29.29,57.37,25.58,55.56Zm0,0c-3.71-1.81-6.58-1.35-7.78,1.1s.21,5,3.92,6.82,6.77,1.44,8-1S29.29,57.37,25.58,55.56Zm0,0c-3.71-1.81-6.58-1.35-7.78,1.1s.21,5,3.92,6.82,6.77,1.44,8-1S29.29,57.37,25.58,55.56Zm0,0c-3.71-1.81-6.58-1.35-7.78,1.1s.21,5,3.92,6.82,6.77,1.44,8-1S29.29,57.37,25.58,55.56Zm0,0c-3.71-1.81-6.58-1.35-7.78,1.1s.21,5,3.92,6.82,6.77,1.44,8-1S29.29,57.37,25.58,55.56Zm0,0c-3.71-1.81-6.58-1.35-7.78,1.1s.21,5,3.92,6.82,6.77,1.44,8-1S29.29,57.37,25.58,55.56Zm0,0c-3.71-1.81-6.58-1.35-7.78,1.1s.21,5,3.92,6.82,6.77,1.44,8-1S29.29,57.37,25.58,55.56Zm0,0c-3.71-1.81-6.58-1.35-7.78,1.1s.21,5,3.92,6.82,6.77,1.44,8-1S29.29,57.37,25.58,55.56Zm0,0c-3.71-1.81-6.58-1.35-7.78,1.1s.21,5,3.92,6.82,6.77,1.44,8-1S29.29,57.37,25.58,55.56Zm0,0c-3.71-1.81-6.58-1.35-7.78,1.1s.21,5,3.92,6.82,6.77,1.44,8-1S29.29,57.37,25.58,55.56Zm25-30.14c-1.85-1.26-4.1-3-6-4.29l-.1.09C45.56,23.28,47,25.69,48,27.69l.77,1.43,3.12-2.76Zm0,0c-1.85-1.26-4.1-3-6-4.29l-.1.09C45.56,23.28,47,25.69,48,27.69l.77,1.43,3.12-2.76Zm-25,30.14c-3.71-1.81-6.58-1.35-7.78,1.1s.21,5,3.92,6.82,6.77,1.44,8-1S29.29,57.37,25.58,55.56Zm0,0c-3.71-1.81-6.58-1.35-7.78,1.1s.21,5,3.92,6.82,6.77,1.44,8-1S29.29,57.37,25.58,55.56Zm25-30.14c-1.85-1.26-4.1-3-6-4.29l-.1.09C45.56,23.28,47,25.69,48,27.69l.77,1.43,3.12-2.76Zm0,0c-1.85-1.26-4.1-3-6-4.29l-.1.09C45.56,23.28,47,25.69,48,27.69l.77,1.43,3.12-2.76Zm-25,30.14c-3.71-1.81-6.58-1.35-7.78,1.1s.21,5,3.92,6.82,6.77,1.44,8-1S29.29,57.37,25.58,55.56Zm0,0c-3.71-1.81-6.58-1.35-7.78,1.1s.21,5,3.92,6.82,6.77,1.44,8-1S29.29,57.37,25.58,55.56Zm25-30.14c-1.85-1.26-4.1-3-6-4.29l-.1.09C45.56,23.28,47,25.69,48,27.69l.77,1.43,3.12-2.76Zm0,0c-1.85-1.26-4.1-3-6-4.29l-.1.09C45.56,23.28,47,25.69,48,27.69l.77,1.43,3.12-2.76Zm-25,30.14c-3.71-1.81-6.58-1.35-7.78,1.1s.21,5,3.92,6.82,6.77,1.44,8-1S29.29,57.37,25.58,55.56Zm0,0c-3.71-1.81-6.58-1.35-7.78,1.1s.21,5,3.92,6.82,6.77,1.44,8-1S29.29,57.37,25.58,55.56Zm25-30.14c-1.85-1.26-4.1-3-6-4.29l-.1.09C45.56,23.28,47,25.69,48,27.69l.77,1.43,3.12-2.76ZM194.6,20.71c-2.06-1.79-4.89-1.1-7.6,2s-3.15,6.17-1.09,8,5,.94,7.74-2.17S196.66,22.5,194.6,20.71Zm0,0c-2.06-1.79-4.89-1.1-7.6,2s-3.15,6.17-1.09,8,5,.94,7.74-2.17S196.66,22.5,194.6,20.71ZM50.53,25.42c-1.85-1.26-4.1-3-6-4.29l-.1.09C45.56,23.28,47,25.69,48,27.69l.77,1.43,3.12-2.76Zm-25,30.14c-3.71-1.81-6.58-1.35-7.78,1.1s.21,5,3.92,6.82,6.77,1.44,8-1S29.29,57.37,25.58,55.56Zm0,0c-3.71-1.81-6.58-1.35-7.78,1.1s.21,5,3.92,6.82,6.77,1.44,8-1S29.29,57.37,25.58,55.56Zm25-30.14c-1.85-1.26-4.1-3-6-4.29l-.1.09C45.56,23.28,47,25.69,48,27.69l.77,1.43,3.12-2.76ZM194.6,20.71c-2.06-1.79-4.89-1.1-7.6,2s-3.15,6.17-1.09,8,5,.94,7.74-2.17S196.66,22.5,194.6,20.71Zm0,0c-2.06-1.79-4.89-1.1-7.6,2s-3.15,6.17-1.09,8,5,.94,7.74-2.17S196.66,22.5,194.6,20.71ZM50.53,25.42c-1.85-1.26-4.1-3-6-4.29l-.1.09C45.56,23.28,47,25.69,48,27.69l.77,1.43,3.12-2.76Zm-25,30.14c-3.71-1.81-6.58-1.35-7.78,1.1s.21,5,3.92,6.82,6.77,1.44,8-1S29.29,57.37,25.58,55.56Zm206.23,3.7a121.41,121.41,0,0,0-223.62,0A120.44,120.44,0,0,0-1.35,106.5h27.7a93.65,93.65,0,0,1,187.3,0h27.7A120.44,120.44,0,0,0,231.81,59.26ZM27.55,81.4l-8.31,2.11-.51,2.26,7.43,1.7-1.34,5.87L2.65,88.26l1.92-8.39c1.09-4.77,3.67-8.49,9.19-7.22l.45.11.25.07a8.42,8.42,0,0,1,1.64.69l.18.11a5.8,5.8,0,0,1,.75.51l.21.18a1.29,1.29,0,0,1,.21.19.05.05,0,0,1,0,0,1.89,1.89,0,0,1,.2.2,2.61,2.61,0,0,1,.23.25,2.11,2.11,0,0,1,.19.23,4.46,4.46,0,0,1,.35.5,1.64,1.64,0,0,1,.14.22,4.92,4.92,0,0,1,.24.45,1.07,1.07,0,0,1,.09.19,5.07,5.07,0,0,1,.27.68,1.72,1.72,0,0,1,.07.21,2,2,0,0,1,.07.23l9.71-2.85Zm6.79-16.66C31.57,70.4,25.74,72.3,19,69s-8.62-9-5.86-14.62S21.59,46.75,28.29,50,37.1,59.08,34.34,64.74Zm8.2-14.52-6.19-4.81-16-3.73,3.95-5.08,4.79,1.59c1.69.61,3.28,1.13,5,1.76l.09-.11c-1-1.57-1.93-3-2.91-4.52l-2.73-4.25,3.86-5L40,40.66l6.19,4.81ZM59.8,32l-4-2.87L51,33.32l2.36,4.37-4.62,4.08L38.86,20.14l5.45-4.82L64.57,27.77Zm5.61-4.39L53.8,8.05,59,5,68,20.2l7.4-4.4L78,20.14ZM96.84,14c-6.15,1.66-12.09-.73-14.1-8.24-2-7.36,2-12.92,7.84-14.5a10.29,10.29,0,0,1,7.94,1l-2,4.54a5.67,5.67,0,0,0-4.35-.57c-3,.8-4.57,3.77-3.5,7.75s3.55,5.93,7.47,4.88A3.44,3.44,0,0,0,97.68,8l-.82-3-3.24.87L92.35,1.12l8.38-2.26,2.82,10.48A11.5,11.5,0,0,1,96.84,14ZM117,3l.45,7.82-6,.35L111,3.31l-7.7-14.49,6.43-.37,2,4.66c.65,1.68,1.3,3.22,2,5h.14c.49-1.82,1-3.42,1.49-5.17l1.4-4.85,6.29-.36Zm29.09,10.76-5.39-.86,1.05-6.63a76.28,76.28,0,0,1,2-7.9l-.14,0-2.73,5.09-3.94,7-3.18-.5L132.19,2l-.94-5.68-.14,0a79.22,79.22,0,0,1-.51,8.14l-1.06,6.64-5.32-.85,3.57-22.46,6.36,1,1.92,9.73c.22,1.31.34,2.75.55,4.12l.14,0c.62-1.24,1.19-2.57,1.8-3.75l4.71-8.67,6.36,1Zm21.06,9.39,4.16-8-6-3.13-4.17,8-5.34-2.77L166.25-3l5.34,2.78-3.91,7.51,6,3.13,3.9-7.51L183,5.72,172.45,25.9ZM182.51,34.6c-4.75-4.14-5.07-10.27-.16-15.91s10.89-6,15.65-1.88,5.19,10.13.3,15.75S187.27,38.73,182.51,34.6Zm15.08,16.59c-3.71-5.18-2.54-9.8,3.78-14.32L210.93,30l3.5,4.89L204.3,42.17c-3.3,2.36-3.88,4.07-2.5,6s3.23,2,6.53-.37l10.13-7.25,3.39,4.72-9.57,6.84C206,56.64,201.29,56.37,197.59,51.19Zm9.74,17.15a13.16,13.16,0,0,1-.46-9.19L212,60.64a9.28,9.28,0,0,0,.1,5.76c.73,1.67,1.58,2.14,2.51,1.73s.86-1.63.79-3.7l0-3.08a6.72,6.72,0,0,1,4-6.73c3.56-1.55,7.87.38,9.86,4.94a11,11,0,0,1,.23,8.15l-4.67-1.25a7.5,7.5,0,0,0-.31-4.83c-.58-1.35-1.43-2-2.36-1.57s-.83,1.78-.74,4l.11,3c.1,3-1.05,5.3-3.94,6.56C214,75.12,209.6,73.54,207.33,68.34ZM230.5,80.87l-3.49.77,1.6,7.24L223.69,90l-1.6-7.25-4,.87,1.94,8.82-4.92,1.08L211.91,78.8l22.22-4.89,3.15,14.36-4.92,1.08ZM194.6,20.71c-2.06-1.79-4.89-1.1-7.6,2s-3.15,6.17-1.09,8,5,.94,7.74-2.17S196.66,22.5,194.6,20.71ZM48.73,29.12l3.12-2.76-1.32-.94c-1.85-1.26-4.1-3-6-4.29l-.1.09C45.56,23.28,47,25.69,48,27.69ZM25.58,55.56c-3.71-1.81-6.58-1.35-7.78,1.1s.21,5,3.92,6.82,6.77,1.44,8-1S29.29,57.37,25.58,55.56Zm0,0c-3.71-1.81-6.58-1.35-7.78,1.1s.21,5,3.92,6.82,6.77,1.44,8-1S29.29,57.37,25.58,55.56Zm25-30.14c-1.85-1.26-4.1-3-6-4.29l-.1.09C45.56,23.28,47,25.69,48,27.69l.77,1.43,3.12-2.76ZM194.6,20.71c-2.06-1.79-4.89-1.1-7.6,2s-3.15,6.17-1.09,8,5,.94,7.74-2.17S196.66,22.5,194.6,20.71Zm0,0c-2.06-1.79-4.89-1.1-7.6,2s-3.15,6.17-1.09,8,5,.94,7.74-2.17S196.66,22.5,194.6,20.71ZM50.53,25.42c-1.85-1.26-4.1-3-6-4.29l-.1.09C45.56,23.28,47,25.69,48,27.69l.77,1.43,3.12-2.76Zm-25,30.14c-3.71-1.81-6.58-1.35-7.78,1.1s.21,5,3.92,6.82,6.77,1.44,8-1S29.29,57.37,25.58,55.56Zm0,0c-3.71-1.81-6.58-1.35-7.78,1.1s.21,5,3.92,6.82,6.77,1.44,8-1S29.29,57.37,25.58,55.56Zm25-30.14c-1.85-1.26-4.1-3-6-4.29l-.1.09C45.56,23.28,47,25.69,48,27.69l.77,1.43,3.12-2.76Zm0,0c-1.85-1.26-4.1-3-6-4.29l-.1.09C45.56,23.28,47,25.69,48,27.69l.77,1.43,3.12-2.76Zm-25,30.14c-3.71-1.81-6.58-1.35-7.78,1.1s.21,5,3.92,6.82,6.77,1.44,8-1S29.29,57.37,25.58,55.56Zm0,0c-3.71-1.81-6.58-1.35-7.78,1.1s.21,5,3.92,6.82,6.77,1.44,8-1S29.29,57.37,25.58,55.56Zm25-30.14c-1.85-1.26-4.1-3-6-4.29l-.1.09C45.56,23.28,47,25.69,48,27.69l.77,1.43,3.12-2.76Zm0,0c-1.85-1.26-4.1-3-6-4.29l-.1.09C45.56,23.28,47,25.69,48,27.69l.77,1.43,3.12-2.76Zm-25,30.14c-3.71-1.81-6.58-1.35-7.78,1.1s.21,5,3.92,6.82,6.77,1.44,8-1S29.29,57.37,25.58,55.56Zm0,0c-3.71-1.81-6.58-1.35-7.78,1.1s.21,5,3.92,6.82,6.77,1.44,8-1S29.29,57.37,25.58,55.56Zm25-30.14c-1.85-1.26-4.1-3-6-4.29l-.1.09C45.56,23.28,47,25.69,48,27.69l.77,1.43,3.12-2.76Zm0,0c-1.85-1.26-4.1-3-6-4.29l-.1.09C45.56,23.28,47,25.69,48,27.69l.77,1.43,3.12-2.76Zm-25,30.14c-3.71-1.81-6.58-1.35-7.78,1.1s.21,5,3.92,6.82,6.77,1.44,8-1S29.29,57.37,25.58,55.56Zm0,0c-3.71-1.81-6.58-1.35-7.78,1.1s.21,5,3.92,6.82,6.77,1.44,8-1S29.29,57.37,25.58,55.56Zm0,0c-3.71-1.81-6.58-1.35-7.78,1.1s.21,5,3.92,6.82,6.77,1.44,8-1S29.29,57.37,25.58,55.56Zm0,0c-3.71-1.81-6.58-1.35-7.78,1.1s.21,5,3.92,6.82,6.77,1.44,8-1S29.29,57.37,25.58,55.56Zm0,0c-3.71-1.81-6.58-1.35-7.78,1.1s.21,5,3.92,6.82,6.77,1.44,8-1S29.29,57.37,25.58,55.56Zm0,0c-3.71-1.81-6.58-1.35-7.78,1.1s.21,5,3.92,6.82,6.77,1.44,8-1S29.29,57.37,25.58,55.56Zm0,0c-3.71-1.81-6.58-1.35-7.78,1.1s.21,5,3.92,6.82,6.77,1.44,8-1S29.29,57.37,25.58,55.56Zm0,0c-3.71-1.81-6.58-1.35-7.78,1.1s.21,5,3.92,6.82,6.77,1.44,8-1S29.29,57.37,25.58,55.56Zm0,0c-3.71-1.81-6.58-1.35-7.78,1.1s.21,5,3.92,6.82,6.77,1.44,8-1S29.29,57.37,25.58,55.56Zm0,0c-3.71-1.81-6.58-1.35-7.78,1.1s.21,5,3.92,6.82,6.77,1.44,8-1S29.29,57.37,25.58,55.56Zm0,0c-3.71-1.81-6.58-1.35-7.78,1.1s.21,5,3.92,6.82,6.77,1.44,8-1S29.29,57.37,25.58,55.56Zm0,0c-3.71-1.81-6.58-1.35-7.78,1.1s.21,5,3.92,6.82,6.77,1.44,8-1S29.29,57.37,25.58,55.56Zm0,0c-3.71-1.81-6.58-1.35-7.78,1.1s.21,5,3.92,6.82,6.77,1.44,8-1S29.29,57.37,25.58,55.56Zm0,0c-3.71-1.81-6.58-1.35-7.78,1.1s.21,5,3.92,6.82,6.77,1.44,8-1S29.29,57.37,25.58,55.56Zm0,0c-3.71-1.81-6.58-1.35-7.78,1.1s.21,5,3.92,6.82,6.77,1.44,8-1S29.29,57.37,25.58,55.56Z" transform="translate(10.23 23.73)"/><polygon class="cls-1" points="135.31 186.82 135.31 186.82 135.3 186.82 135.31 186.82"/><path class="cls-1" d="M120,236.73A130.11,130.11,0,0,1-10.23,106.5,130.19,130.19,0,0,1,212.09,14.41,130.19,130.19,0,0,1,120,236.73Zm0-258A127.74,127.74,0,1,0,247.74,106.5,127.88,127.88,0,0,0,120-21.24Z" transform="translate(10.23 23.73)"/><path class="cls-1" d="M122.54,160.09V162a.55.55,0,0,1-.09.34.3.3,0,0,1-.27.12.33.33,0,0,1-.27-.12.63.63,0,0,1-.08-.34v-1.86a.62.62,0,0,1,.08-.33.34.34,0,0,1,.27-.13.31.31,0,0,1,.27.13A.54.54,0,0,1,122.54,160.09Z" transform="translate(10.23 23.73)"/><path class="cls-1" d="M169.1,131.09a42.36,42.36,0,0,1-7.54,8.07c-4.06,3.24-8.2,6.37-12.22,9.34h0c-.51.36-1,.74-1.51,1.11h0L145.9,151l0,0-.26.18-3,2.2L140,155.33c-.21.14-.41.29-.61.44-6.25,4.52-11.94,8.64-16.55,12.44-1.22,1-2.36,2-3.42,2.94-2.89-2.63-6.42-5.41-10.39-8.39-3-2.22-6.19-4.55-9.57-7-.2-.15-.4-.3-.61-.44l-3.62-2.63c-5.74-4.16-12-8.72-18-13.54a42.42,42.42,0,0,1-7.15-7.53,18.48,18.48,0,0,0,2.13-1.51,39.27,39.27,0,0,0,6.7,7.06c3.66,2.93,7.41,5.78,11.07,8.49l1.09.8.74.55,1,.73h0c1.11.82,2.21,1.62,3.29,2.4h0l.11.08,1.7,1.23.43.31,2.05,1.48.13.09,3.34,2.42c2.52,1.83,4.93,3.59,7.2,5.29v2h1.43a1.09,1.09,0,0,0,.79-.26l0-.05c2.19,1.69,4.23,3.33,6.07,4.91q2.61-2.24,5.69-4.6h0c.36-.28.72-.56,1.1-.84a1,1,0,0,0,.26.6,1.09,1.09,0,0,0,.8.29h0a1,1,0,0,0,.78-.29,1,1,0,0,0,.27-.6,1.64,1.64,0,0,0,0-.23v-.3a1.17,1.17,0,0,0-.25-.79l-.07-.07c2.19-1.63,4.5-3.33,6.92-5.08l3.12-2.26.36-.25c.49-.36,1-.73,1.5-1.09h0l.45-.08,1.76-1.49-.13.06c1.84-1.33,3.73-2.71,5.64-4.12l.56-.4c.24-.19.49-.37.74-.55l1-.77c3.29-2.45,6.64-5,9.92-7.64a39.1,39.1,0,0,0,7.17-7.71A19.21,19.21,0,0,0,169.1,131.09Z" transform="translate(10.23 23.73)"/><path class="cls-1" d="M112.75,160v.22a.36.36,0,0,1-.1.28.38.38,0,0,1-.29.1h-.58v-1h.58a.42.42,0,0,1,.29.09A.33.33,0,0,1,112.75,160Z" transform="translate(10.23 23.73)"/><path class="cls-1" d="M112.8,161.73V162a.35.35,0,0,1-.12.28,0,0,0,0,1,0,0,.44.44,0,0,1-.29.09h-.6v-1.07h.59a.41.41,0,0,1,.31.1A.39.39,0,0,1,112.8,161.73Z" transform="translate(10.23 23.73)"/><polygon class="cls-1" points="135.31 186.82 135.31 186.82 135.3 186.82 135.31 186.82"/><path class="cls-1" d="M142.12,150.6l-1.76,1.49-.45.08,1.9-1.38h0l.16-.12Z" transform="translate(10.23 23.73)"/></svg>