<svg id="Layer_1" data-name="Layer 1" xmlns="http://www.w3.org/2000/svg" viewBox="0 0 177.08 141.79"><defs><style>.cls-1{fill:#0070b9;}</style></defs><path class="cls-1" d="M31.46,79.86c3-9.06,6.35-11.7,16.12-12.12a40.84,40.84,0,0,1,10.54.72c8.72,1.94,12.24,4.92,10.76,17.32-.88.07-1.8.2-2.72.21-4.11,0-8.22,0-12.73,0,0-2.21.28-4.13-.1-5.9-.24-1.12-1.64-2.93-2.23-2.83a4.71,4.71,0,0,0-3.22,2.4c-1.27,3.46,0,6.58,3.18,8.5,4.13,2.51,8.48,4.7,12.49,7.38,6.89,4.59,9.87,17.7,5.49,24.77a13.51,13.51,0,0,1-5.92,4.73c-7.12,3.08-14.47,2.89-21.79.49-5.54-1.82-8.6-5.65-9-11.44-.19-2.69,0-5.4,0-8.33h15.6c0,2.79-.08,5.48,0,8.15.08,1.84.48,3.6,2.91,3.69s3.48-1.32,3.71-3.42c.43-3.87-.13-7.77-4-9.78-2.82-1.48-5.46-3.3-8.26-4.81C37,96.76,32.76,93.15,31.46,87Z" transform="translate(-31.46 -35.6)"/><path class="cls-1" d="M181.83,131.4l26.71,29.18-18.3,16.82-25.67-28.23C130.83,170,96.19,155.35,81.9,136c4.6-.32,8.29-.36,12.31,3,16.75,14.13,35.92,17.55,56.28,9.36,19.76-7.95,31.52-23.09,34-44.32,4.12-34.78-22.93-63.38-57.91-61.66A50.27,50.27,0,0,0,94.45,55.56c-3.78,3.46-7.57,3.53-12,3.09,14.15-20.53,48.29-30.9,76.46-16C189.66,58.89,202.25,98.82,181.83,131.4Z" transform="translate(-31.46 -35.6)"/><path class="cls-1" d="M153.36,97.32c0,5.08.1,10.16,0,15.23-.16,5.71-2.91,10-8.11,12.28a26.88,26.88,0,0,1-23,0c-4.82-2.21-7.87-6-7.94-11.6-.13-10-.5-20.08-.07-30.1.38-9,4.29-13.07,13.19-14.89a28.22,28.22,0,0,1,17,1.34c5.47,2.32,8.67,6.46,8.86,12.52C153.48,87.15,153.36,92.24,153.36,97.32Zm-17,0h0c0-5.42.17-10.85-.12-16.26-.07-1.35-1.59-2.63-2.44-3.94-1,1.26-2.69,2.5-2.71,3.78-.21,11.07-.18,22.15,0,33.22,0,1.19,1.44,3.16,2.48,3.36,2.39.45,2.71-1.7,2.72-3.55C136.42,108.36,136.39,102.83,136.39,97.29Z" transform="translate(-31.46 -35.6)"/><path class="cls-1" d="M94.52,79.8V91h11.1v10.77h-11v12.8h12.92v11.24h-30v-57h28.88v11Z" transform="translate(-31.46 -35.6)"/></svg>